<svg width="20" height="20" viewBox="0 0 20 20" fill="none" xmlns="http://www.w3.org/2000/svg">
<path d="M0.433594 11.3572L7.83493 19.5616H4.48894C2.24712 19.5616 0.433594 17.748 0.433594 15.5129V11.3572Z" fill="#959595"/>
<path d="M19.8136 4.24358V15.5798L14.7344 12.8829V10.4872C14.7344 9.2358 14.2258 8.10486 13.4027 7.28174C12.7268 6.61254 11.8501 6.15079 10.8664 6.01695V3.98259H12.7602V2.64419H10.8664V1.03142H9.52801V2.64419H7.63417V3.98259H9.52801V6.01695C7.33973 6.33148 5.66673 8.21193 5.66673 10.4872V11.2769H0.433594V4.24358C0.433594 2.00176 2.24712 0.188232 4.48894 0.188232H15.7582C18.0001 0.188232 19.8136 2.00176 19.8136 4.24358Z" fill="#959595"/>
</svg>
