<svg width="27" height="14" viewBox="0 0 27 14" fill="none" xmlns="http://www.w3.org/2000/svg">
<path d="M3.43394 0.475909L0.36439 4.77216C0.327928 4.82324 0.306232 4.88337 0.301681 4.94596C0.29713 5.00854 0.3099 5.07118 0.338591 5.12699C0.367282 5.18281 0.410785 5.22964 0.464333 5.26237C0.51788 5.29509 0.579404 5.31244 0.642159 5.31251L9.31907 5.32083L12.9555 0.192627H3.98431C3.87665 0.192655 3.77055 0.218372 3.67483 0.267641C3.57911 0.316911 3.49652 0.388311 3.43394 0.475909Z" fill="white"/>
<path d="M26.2587 4.80043L23.1691 0.475909C23.1064 0.388294 23.0238 0.316887 22.928 0.267617C22.8323 0.218348 22.7261 0.192639 22.6184 0.192627H13.6523L17.2778 5.33246L25.9801 5.34078C26.043 5.34086 26.1046 5.32363 26.1583 5.29096C26.2119 5.2583 26.2556 5.21147 26.2843 5.15562C26.3131 5.09978 26.326 5.03708 26.3214 4.97442C26.3169 4.91175 26.2952 4.85155 26.2587 4.80043Z" fill="white"/>
<path d="M16.3743 6.39858L13.9785 3.0022V13.4617H22.6188C22.8515 13.4617 23.0746 13.3693 23.239 13.2048C23.4035 13.0404 23.4959 12.8173 23.4959 12.5846V6.69159L16.9264 6.68527C16.8181 6.68505 16.7115 6.65891 16.6155 6.60903C16.5194 6.55915 16.4367 6.48699 16.3743 6.39858Z" fill="white"/>
<path d="M9.66878 6.67451H9.66778L3.10742 6.67987V12.5848C3.10742 12.8174 3.19983 13.0405 3.36432 13.205C3.52881 13.3695 3.75191 13.4619 3.98454 13.4619H12.6254V2.9978L10.2206 6.38902C10.1581 6.47717 10.0753 6.54908 9.97935 6.59874C9.88335 6.64841 9.77686 6.67439 9.66878 6.67451Z" fill="white"/>
</svg>
