<svg width="20" height="21" viewBox="0 0 20 21" fill="none" xmlns="http://www.w3.org/2000/svg">
<path d="M15.7582 0.945801H4.48894C2.24712 0.945801 0.433594 2.75933 0.433594 5.00115V16.2705C0.433594 18.5056 2.24712 20.3191 4.48894 20.3191H15.7582C16.2601 20.3191 16.742 20.2254 17.1836 20.0581C18.7228 19.4893 19.8136 18.0037 19.8136 16.2705V5.00115C19.8136 2.75933 18.0001 0.945801 15.7582 0.945801ZM9.49455 15.5745C8.75174 16.3173 7.25273 16.4645 6.21547 16.4645H5.1916C4.857 16.4645 4.58263 16.1902 4.58263 15.8556C4.58263 15.521 4.857 15.2466 5.1916 15.2265C5.80057 15.2265 6.16863 14.8451 6.12848 14.3499C6.07494 13.7877 6.26901 13.2122 6.6906 12.7839C7.0252 12.4493 7.45349 12.262 7.91524 12.2218L10.0299 13.9082C10.1169 14.4971 9.94291 15.1194 9.49455 15.5745ZM14.8481 7.24965L12.0576 11.6597C11.8167 12.0411 11.4419 12.3021 11.0069 12.4092L8.90565 10.7295C8.90565 10.415 8.98596 10.1004 9.16664 9.81269C9.25364 9.67885 9.36071 9.5517 9.48116 9.44463L13.3893 5.99825C13.5834 5.83095 13.8376 5.74396 14.0919 5.75734C14.3529 5.77742 14.5871 5.89118 14.7611 6.09194C15.0355 6.41316 15.0757 6.88829 14.8481 7.24965Z" fill="#959595"/>
</svg>
