<svg width="48" height="48" viewBox="0 0 48 48" fill="none" xmlns="http://www.w3.org/2000/svg">
<g clip-path="url(#clip0_238_9721)">
<path opacity="0.995" fill-rule="evenodd" clip-rule="evenodd" d="M47.9531 11.9531C47.9531 12.6094 47.9531 13.2656 47.9531 13.9219C31.9531 13.9219 15.9532 13.9219 -0.046875 13.9219C-0.046875 13.2656 -0.046875 12.6094 -0.046875 11.9531C0.520329 9.7455 1.92658 8.41737 4.17188 7.96875C17.3594 7.90625 30.5468 7.90625 43.7344 7.96875C45.9797 8.41737 47.3859 9.7455 47.9531 11.9531Z" fill="#2196F3"/>
<path fill-rule="evenodd" clip-rule="evenodd" d="M-0.046875 13.9219C15.9532 13.9219 31.9531 13.9219 47.9531 13.9219C47.9531 16.6094 47.9531 19.2968 47.9531 21.9844C31.9531 21.9844 15.9532 21.9844 -0.046875 21.9844C-0.046875 19.2968 -0.046875 16.6094 -0.046875 13.9219Z" fill="#445A65"/>
<path opacity="0.998" fill-rule="evenodd" clip-rule="evenodd" d="M-0.046875 21.9844C15.9532 21.9844 31.9531 21.9844 47.9531 21.9844C47.9531 26.6407 47.9531 31.2968 47.9531 35.9531C47.3859 38.1607 45.9797 39.4889 43.7344 39.9375C30.5468 40 17.3594 40 4.17188 39.9375C1.92658 39.4889 0.520329 38.1607 -0.046875 35.9531C-0.046875 31.2968 -0.046875 26.6407 -0.046875 21.9844Z" fill="#2196F3"/>
<path fill-rule="evenodd" clip-rule="evenodd" d="M6.51561 27.9844C9.45327 27.9687 12.3907 27.9844 15.3281 28.0312C16.0117 28.3983 16.1524 28.9139 15.75 29.5781C15.5812 29.7485 15.3782 29.8579 15.1406 29.9062C12.2969 29.9688 9.45308 29.9688 6.60936 29.9062C5.77726 29.3044 5.74602 28.6638 6.51561 27.9844Z" fill="#F9F9F9"/>
<path fill-rule="evenodd" clip-rule="evenodd" d="M6.70307 31.9219C11.5156 31.9062 16.3282 31.9219 21.1406 31.9687C21.9118 32.3007 22.0993 32.8476 21.7031 33.6094C21.5502 33.7778 21.3627 33.8872 21.1406 33.9375C16.3281 34 11.5155 34 6.70307 33.9375C5.94796 33.569 5.77609 33.0221 6.18745 32.2969C6.35733 32.1584 6.52921 32.0334 6.70307 31.9219Z" fill="#F4F7F9"/>
</g>
<defs>
<clipPath id="clip0_238_9721">
<rect width="48" height="48" fill="white"/>
</clipPath>
</defs>
</svg>
