<svg width="23" height="23" viewBox="0 0 23 23" fill="none" xmlns="http://www.w3.org/2000/svg">
<path d="M7.54191 9.64438C8.06098 9.64438 8.48226 9.22311 8.48226 8.70403V5.03668C8.48226 3.39718 9.81614 2.06283 11.4556 2.06283C13.0951 2.06283 14.4295 3.39718 14.4295 5.03668V8.70403C14.4295 9.22311 14.8503 9.64438 15.3698 9.64438C15.8889 9.64438 16.3102 9.22311 16.3102 8.70403V5.03668C16.3107 2.35998 14.1328 0.182129 11.4556 0.182129C8.77941 0.182129 6.60156 2.35998 6.60156 5.03668V8.70403C6.60156 9.22311 7.02284 9.64438 7.54191 9.64438Z" fill="white"/>
<path d="M22.2436 7.53147H17.2522V8.70408C17.2522 9.74129 16.4087 10.5848 15.3715 10.5848C14.3343 10.5848 13.4908 9.74129 13.4908 8.70408V7.53147H9.4243V8.70408C9.4243 9.74129 8.5808 10.5848 7.5436 10.5848C6.50639 10.5848 5.6629 9.74129 5.6629 8.70408V7.53147H0.615583C0.356047 7.53147 0.195717 7.736 0.25731 7.98801L3.54759 21.3866C3.746 22.1398 4.53872 22.7505 5.31732 22.7505H17.5419C18.3214 22.7505 19.1132 22.1398 19.3125 21.3866L22.6019 7.98801C22.6635 7.73553 22.5036 7.53147 22.2436 7.53147Z" fill="white"/>
</svg>
