<svg width="35" height="35" viewBox="0 0 35 35" fill="none" xmlns="http://www.w3.org/2000/svg">
<circle cx="17.5" cy="17.5" r="17.5" fill="#3F53BA" fill-opacity="0.07"/>
<g clip-path="url(#clip0_238_9287)">
<path d="M24.0003 14.4348C21.5952 16.9348 19.2108 19.4565 16.8057 21.9783C16.5155 22.2826 16.2252 22.587 15.9349 22.8913C15.7898 23.0435 15.7068 23.0435 15.5617 22.8913C14.0896 21.3261 12.5968 19.7609 11.104 18.1956C10.9588 18.0435 10.9588 17.9565 11.104 17.8043C11.4357 17.4565 11.7674 17.1087 12.0992 16.7609C12.2443 16.6087 12.3273 16.6087 12.4724 16.7609C13.5298 17.8696 14.5872 18.9783 15.6446 20.087C15.6861 20.1304 15.7068 20.1739 15.7276 20.2174C15.769 20.1739 15.8105 20.1304 15.852 20.1087C18.0705 17.7826 20.2682 15.4783 22.4867 13.1522C22.6733 12.9565 22.7355 12.9565 22.9222 13.1522C23.2332 13.4783 23.5442 13.8043 23.8552 14.1304C23.8966 14.1739 23.9588 14.2391 24.0003 14.3043C24.0003 14.3478 24.0003 14.3913 24.0003 14.4348Z" fill="#3F53BA"/>
</g>
<defs>
<clipPath id="clip0_238_9287">
<rect width="13" height="10" fill="white" transform="translate(11 13)"/>
</clipPath>
</defs>
</svg>
