<svg width="17" height="17" viewBox="0 0 17 17" fill="none" xmlns="http://www.w3.org/2000/svg">
<path d="M14.7008 0.763916H1.90078C1.02078 0.763916 0.300781 1.48392 0.300781 2.36392V15.1639C0.300781 16.0439 1.02078 16.7639 1.90078 16.7639H14.7008C15.5808 16.7639 16.3008 16.0439 16.3008 15.1639V2.36392C16.3008 1.48392 15.5808 0.763916 14.7008 0.763916ZM8.30078 3.96392C9.66078 3.96392 10.7008 5.00392 10.7008 6.36392C10.7008 7.72392 9.66078 8.76392 8.30078 8.76392C6.94078 8.76392 5.90078 7.72392 5.90078 6.36392C5.90078 5.00392 6.94078 3.96392 8.30078 3.96392ZM13.1008 13.5639H3.50078V12.5239C3.50078 12.1239 3.66078 11.8039 3.98078 11.5639C4.62078 11.0839 5.98078 10.3639 8.30078 10.3639C10.6208 10.3639 11.9808 11.0839 12.6208 11.4839C12.9408 11.7239 13.1008 12.0439 13.1008 12.4439V13.5639Z" fill="white"/>
</svg>
