<svg width="21" height="21" viewBox="0 0 21 21" fill="none" xmlns="http://www.w3.org/2000/svg">
<path d="M7.22892 8.55246C7.68654 8.55246 8.05794 8.18106 8.05794 7.72344V4.49027C8.05794 3.04487 9.23391 1.86849 10.6793 1.86849C12.1247 1.86849 13.3011 3.04487 13.3011 4.49027V7.72344C13.3011 8.18106 13.6721 8.55246 14.1301 8.55246C14.5877 8.55246 14.9591 8.18106 14.9591 7.72344V4.49027C14.9595 2.13046 13.0395 0.210449 10.6793 0.210449C8.31991 0.210449 6.3999 2.13046 6.3999 4.49027V7.72344C6.3999 8.18106 6.7713 8.55246 7.22892 8.55246Z" fill="#44B54F"/>
<path d="M20.1901 6.68945H15.7897V7.72324C15.7897 8.63765 15.046 9.38128 14.1316 9.38128C13.2172 9.38128 12.4736 8.63765 12.4736 7.72324V6.68945H8.88848V7.72324C8.88848 8.63765 8.14485 9.38128 7.23044 9.38128C6.31603 9.38128 5.5724 8.63765 5.5724 7.72324V6.68945H1.12263C0.893823 6.68945 0.752475 6.86976 0.806776 7.09194L3.70752 18.9042C3.88244 19.5683 4.58131 20.1067 5.26773 20.1067H16.045C16.7323 20.1067 17.4303 19.5683 17.606 18.9042L20.506 7.09194C20.5603 6.86935 20.4193 6.68945 20.1901 6.68945Z" fill="#44B54F"/>
</svg>
