<svg width="21" height="20" viewBox="0 0 21 20" fill="none" xmlns="http://www.w3.org/2000/svg">
<path d="M10.0019 0.507178C9.82847 0.586866 9.67378 0.750929 9.60816 0.924366C9.57066 1.01812 9.55659 2.81343 9.55659 6.68999V12.3244L8.00034 10.7681C7.14253 9.9103 6.37847 9.18843 6.30816 9.16499C5.96597 9.03374 5.56753 9.17437 5.38941 9.48843C5.28159 9.68062 5.25816 9.99468 5.34253 10.1587C5.41753 10.3041 9.83316 14.7291 9.98784 14.8134C10.1519 14.8978 10.4613 14.8978 10.6253 14.8134C10.6957 14.7759 11.7597 13.7353 12.9878 12.5025C15.4019 10.0837 15.3316 10.1634 15.2566 9.74624C15.2144 9.53062 14.966 9.27749 14.7222 9.20718C14.3144 9.08062 14.291 9.09937 12.5941 10.7916L11.0566 12.3197L11.0472 6.61968C11.0332 0.943116 11.0332 0.914991 10.9347 0.788428C10.8832 0.718116 10.7847 0.614991 10.7191 0.568116C10.5597 0.450929 10.1894 0.418117 10.0019 0.507178Z" fill="#BCBCBC"/>
<path d="M0.434696 12.554C0.256571 12.6337 0.101883 12.8212 0.0362581 13.0462C0.00344562 13.1634 -0.00592938 13.7399 0.00344562 14.8087C0.0221956 16.3837 0.0268831 16.4071 0.153446 16.8243C0.476883 17.8884 1.16126 18.6993 2.12688 19.1681C2.96595 19.5759 2.24407 19.5431 10.3066 19.5431C18.3691 19.5431 17.6472 19.5759 18.4863 19.1681C19.4753 18.6899 20.1972 17.804 20.4878 16.7306C20.5769 16.3884 20.5909 16.2149 20.605 14.7384C20.6238 13.1259 20.6238 13.1212 20.5159 12.9149C20.3753 12.6431 20.2113 12.5259 19.9253 12.4978C19.63 12.4696 19.3628 12.6103 19.2175 12.8634C19.1238 13.0321 19.1191 13.1024 19.1191 14.4853C19.1191 16.1071 19.0863 16.3743 18.8284 16.8618C18.6363 17.2274 18.2331 17.6306 17.9003 17.7946C17.3238 18.0806 17.7175 18.0665 10.3066 18.0665C2.90032 18.0665 3.30813 18.0806 2.7222 17.7946C2.36595 17.6259 1.96282 17.2181 1.78001 16.8524C1.52688 16.3556 1.49407 16.0978 1.49407 14.4853C1.49407 13.1024 1.48938 13.0321 1.39563 12.8634C1.21282 12.5399 0.786258 12.404 0.434696 12.554Z" fill="#BCBCBC"/>
</svg>
