<svg width="15" height="20" viewBox="0 0 15 20" fill="none" xmlns="http://www.w3.org/2000/svg">
<g clip-path="url(#clip0_180_4278)">
<path d="M2.025 19.5C1.875 19.4228 1.725 19.4228 1.575 19.3455C0.675 19.0366 0.075 18.187 0.075 17.1829C0.075 17.1057 0.075 17.1057 0.075 17.0285C0 12.3171 0 7.68293 0 2.97154C0 1.89024 0.6 0.963415 1.575 0.654472C1.8 0.577236 2.1 0.5 2.325 0.5C4.875 0.5 7.425 0.5 9.975 0.5C10.275 0.5 10.425 0.577236 10.65 0.808943C12.075 2.27642 13.425 3.66667 14.85 5.13415C14.925 5.21138 15 5.28862 15 5.44309C15 9.30488 15 13.0894 15 16.9512C15 18.4187 14.025 19.3455 13.05 19.4228C13.05 19.4228 13.05 19.4228 12.975 19.4228C9.3 19.5 5.7 19.5 2.025 19.5ZM9.225 1.65854C9.15 1.65854 9.075 1.65854 9 1.65854C6.825 1.65854 4.65 1.65854 2.4 1.65854C1.575 1.65854 1.125 2.12195 1.125 2.97154C1.125 7.60569 1.125 12.3171 1.125 16.9512C1.125 17.8008 1.575 18.2642 2.4 18.2642C5.775 18.2642 9.15 18.2642 12.525 18.2642C13.35 18.2642 13.8 17.8008 13.8 16.9512C13.8 13.4756 13.8 10 13.8 6.60163C13.8 6.52439 13.8 6.44715 13.8 6.36992C13.05 6.36992 12.3 6.36992 11.55 6.36992C10.2 6.36992 9.225 5.36585 9.225 3.97561C9.225 3.28049 9.225 2.58537 9.225 1.89024C9.225 1.81301 9.225 1.81301 9.225 1.65854ZM13.8 5.28862C12.675 4.13008 11.55 2.97154 10.425 1.81301C10.425 2.58537 10.425 3.35772 10.425 4.13008C10.425 4.74797 10.95 5.21138 11.55 5.28862C12.225 5.28862 13.05 5.28862 13.8 5.28862Z" fill="#3F53BA"/>
</g>
<defs>
<clipPath id="clip0_180_4278">
<rect width="15" height="19" fill="white" transform="translate(0 0.5)"/>
</clipPath>
</defs>
</svg>
