<svg width="17" height="16" viewBox="0 0 17 16" fill="none" xmlns="http://www.w3.org/2000/svg">
<path d="M1.33629 5.51917L1.33629 5.51914L1.33137 5.51974C0.982838 5.56193 0.665338 5.79732 0.546171 6.16238C0.426217 6.52986 0.54808 6.90866 0.80749 7.14473C1.49582 7.77284 2.357 8.55711 3.046 9.18426L3.90741 9.96815L4.04043 10.0892L4.00361 10.2661C3.94439 10.5512 3.8617 10.9504 3.76733 11.4065C3.57859 12.3186 3.34305 13.459 3.15496 14.3718L3.15491 14.3718L3.15359 14.3786C3.08833 14.7195 3.21032 15.0947 3.52277 15.3217C3.83596 15.5499 4.23269 15.548 4.53521 15.3775L4.53675 15.3767C5.34728 14.916 6.35943 14.3394 7.16884 13.878L8.18054 13.3011L8.33741 13.2116L8.49435 13.3011L9.50598 13.8781C10.3152 14.3396 11.3268 14.9163 12.1358 15.3773L12.1358 15.3773L12.1432 15.3814C12.444 15.5461 12.8386 15.5508 13.153 15.3216C13.4649 15.0949 13.5884 14.7191 13.5206 14.3765L13.5206 14.3765L13.5198 14.3727C13.3317 13.4595 13.0964 12.319 12.9082 11.4068L12.6728 10.2666L12.6363 10.0898L12.77 9.96823L13.6313 9.18468C14.3203 8.55787 15.1814 7.77437 15.8695 7.14772L15.8696 7.14775L15.8745 7.14312C16.1281 6.90585 16.2502 6.5307 16.1317 6.16389C16.0135 5.79785 15.6943 5.56171 15.3443 5.52119L15.3425 5.52098C14.416 5.41725 13.2582 5.28849 12.3322 5.18567L11.1746 5.05725L10.9948 5.03732L10.9203 4.8725L10.4406 3.81138L9.19376 1.05248L9.19384 1.05244L9.18993 1.04421C9.04195 0.731996 8.72351 0.5 8.33739 0.5C7.95266 0.5 7.62889 0.732222 7.48393 1.05186L7.48375 1.05228C7.09967 1.90129 6.62004 2.9625 6.23644 3.81143L5.75699 4.8726L5.68258 5.03732L5.50301 5.05722L4.34579 5.18544C3.41998 5.28804 2.26258 5.41634 1.33629 5.51917Z" fill="white" stroke="#44B54F"/>
</svg>
