<svg width="51" height="51" viewBox="0 0 51 51" fill="none" xmlns="http://www.w3.org/2000/svg">
<g clip-path="url(#clip0_262_10885)">
<path opacity="0.995" fill-rule="evenodd" clip-rule="evenodd" d="M23.458 -0.0498047C24.7861 -0.0498047 26.1143 -0.0498047 27.4424 -0.0498047C36.5966 0.947782 43.453 5.4302 48.0117 13.3975C49.6272 16.5079 50.6066 19.795 50.9502 23.2588C50.9502 24.7198 50.9502 26.1806 50.9502 27.6416C50.0278 35.7807 46.2094 42.1723 39.4951 46.8164C35.8044 49.1589 31.7867 50.5368 27.4424 50.9502C26.1143 50.9502 24.7861 50.9502 23.458 50.9502C14.3038 49.9526 7.44738 45.4702 2.88867 37.5029C1.27324 34.3925 0.293744 31.1054 -0.0498047 27.6416C-0.0498047 26.1806 -0.0498047 24.7198 -0.0498047 23.2588C0.872621 15.1197 4.69098 8.72806 11.4053 4.08398C15.096 1.74146 19.1136 0.363527 23.458 -0.0498047Z" fill="#E04F5F"/>
<path fill-rule="evenodd" clip-rule="evenodd" d="M17.1826 13.4971C17.2874 13.4822 17.387 13.4988 17.4815 13.5469C20.1225 16.2045 22.7787 18.8441 25.4502 21.4658C28.1217 18.8441 30.7779 16.2045 33.419 13.5469C33.5186 13.4804 33.6182 13.4804 33.7178 13.5469C34.9297 14.7588 36.1416 15.9707 37.3535 17.1826C37.42 17.2822 37.42 17.3818 37.3535 17.4815C34.696 20.1225 32.0563 22.7787 29.4346 25.4502C32.0563 28.1217 34.696 30.7779 37.3535 33.419C37.42 33.5186 37.42 33.6182 37.3535 33.7178C36.1416 34.9297 34.9297 36.1416 33.7178 37.3535C33.6182 37.42 33.5186 37.42 33.419 37.3535C30.7779 34.6959 28.1217 32.0563 25.4502 29.4346C22.7787 32.0563 20.1225 34.6959 17.4815 37.3535C17.3819 37.42 17.2823 37.42 17.1826 37.3535C15.9707 36.1416 14.7588 34.9297 13.5469 33.7178C13.4805 33.6182 13.4805 33.5186 13.5469 33.419C16.2045 30.7779 18.8441 28.1217 21.4658 25.4502C18.8441 22.7787 16.2045 20.1225 13.5469 17.4815C13.4805 17.3818 13.4805 17.2822 13.5469 17.1826C14.779 15.9672 15.9908 14.7387 17.1826 13.4971Z" fill="#FEFEFE"/>
</g>
<defs>
<clipPath id="clip0_262_10885">
<rect width="51" height="51" fill="white"/>
</clipPath>
</defs>
</svg>
