<svg width="20" height="20" viewBox="0 0 20 20" fill="none" xmlns="http://www.w3.org/2000/svg">
<g clip-path="url(#clip0_5_3676)">
<path d="M19.8155 4.497V15.7663C19.8155 17.4995 18.7248 18.9852 17.1856 19.554C16.7439 19.7213 16.2621 19.815 15.7602 19.815H4.49089C2.24908 19.815 0.435547 18.0014 0.435547 15.7663V4.497C0.435547 2.25518 2.24908 0.44165 4.49089 0.44165H15.7602C18.002 0.44165 19.8155 2.25518 19.8155 4.497Z" fill="#959595"/>
<path d="M10.1266 12.5008C12.0669 12.5008 13.6399 10.6132 13.6399 8.2848C13.6399 5.95639 12.0669 4.06885 10.1266 4.06885C8.18624 4.06885 6.61328 5.95639 6.61328 8.2848C6.61328 10.6132 8.18624 12.5008 10.1266 12.5008Z" fill="white"/>
<path d="M17.0123 16.081C16.3832 14.8162 15.1854 13.7589 13.6395 13.1299C13.2179 12.9893 12.7227 12.9893 12.3747 13.2035C11.6721 13.6251 10.9694 13.8325 10.1262 13.8325C9.28302 13.8325 8.58036 13.6184 7.8777 13.2035C7.52972 13.0629 7.03451 12.9893 6.61292 13.2035C5.06707 13.8325 3.8692 14.8899 3.24015 16.1546C2.75164 17.0648 3.52122 18.1221 4.57855 18.1221H15.6739C16.7245 18.1221 17.5008 17.0648 17.0056 16.0877L17.0123 16.081Z" fill="white"/>
</g>
<defs>
<clipPath id="clip0_5_3676">
<rect width="19.38" height="19.3733" fill="white" transform="translate(0.435547 0.44165)"/>
</clipPath>
</defs>
</svg>
