<svg width="16" height="17" viewBox="0 0 16 17" fill="none" xmlns="http://www.w3.org/2000/svg">
<path d="M11.7376 5.18246C10.7194 5.18246 9.91939 4.38246 9.91939 3.36428V0.818825C9.91939 0.382462 9.62848 0.0915527 9.19212 0.0915527H3.37393C1.77393 0.0915527 0.464844 1.40064 0.464844 3.00064V13.1825C0.464844 14.7825 1.77393 16.0916 3.37393 16.0916H12.1012C13.7012 16.0916 15.0103 14.7825 15.0103 13.1825V5.90973C15.0103 5.47337 14.7194 5.18246 14.283 5.18246H11.7376ZM9.19212 11.7279H4.82848C4.39212 11.7279 4.10121 11.437 4.10121 11.0006C4.10121 10.5643 4.39212 10.2734 4.82848 10.2734H9.19212C9.62848 10.2734 9.91939 10.5643 9.91939 11.0006C9.91939 11.437 9.62848 11.7279 9.19212 11.7279ZM10.6467 8.81883H4.82848C4.39212 8.81883 4.10121 8.52792 4.10121 8.09155C4.10121 7.65519 4.39212 7.36428 4.82848 7.36428H10.6467C11.083 7.36428 11.3739 7.65519 11.3739 8.09155C11.3739 8.52792 11.083 8.81883 10.6467 8.81883Z" fill="#44B54F"/>
</svg>
