<svg width="15" height="17" viewBox="0 0 15 17" fill="none" xmlns="http://www.w3.org/2000/svg">
<path d="M11.73 5.91806C10.7118 5.91806 9.91182 5.11806 9.91182 4.09988V1.55442C9.91182 1.11806 9.62091 0.827148 9.18455 0.827148H3.36637C1.76637 0.827148 0.457275 2.13624 0.457275 3.73624V13.9181C0.457275 15.5181 1.76637 16.8271 3.36637 16.8271H12.0936C13.6936 16.8271 15.0027 15.5181 15.0027 13.9181V6.64533C15.0027 6.20897 14.7118 5.91806 14.2755 5.91806H11.73ZM9.18455 12.4635H4.82091C4.38455 12.4635 4.09364 12.1726 4.09364 11.7362C4.09364 11.2999 4.38455 11.009 4.82091 11.009H9.18455C9.62091 11.009 9.91182 11.2999 9.91182 11.7362C9.91182 12.1726 9.62091 12.4635 9.18455 12.4635ZM10.6391 9.55442H4.82091C4.38455 9.55442 4.09364 9.26351 4.09364 8.82715C4.09364 8.39079 4.38455 8.09988 4.82091 8.09988H10.6391C11.0755 8.09988 11.3664 8.39079 11.3664 8.82715C11.3664 9.26351 11.0755 9.55442 10.6391 9.55442Z" fill="white"/>
</svg>
