<svg width="20" height="20" viewBox="0 0 20 20" fill="none" xmlns="http://www.w3.org/2000/svg">
<path d="M19.8136 4.37029V15.6396C19.8136 17.0918 19.044 18.3699 17.893 19.0793L14.2994 15.2715C13.9246 14.8767 13.7841 14.3413 13.9113 13.8394L14.7879 10.4734C14.9485 9.83095 14.8682 9.15506 14.547 8.55947L12.0576 3.92862C11.9706 3.7747 11.8033 3.68101 11.6159 3.68101C11.4821 3.68101 11.3616 3.72786 11.2746 3.80816C11.1876 3.88846 11.1341 3.99554 11.1341 4.11599V7.32145C11.4419 7.24115 11.7765 7.27461 12.0777 7.43522C12.5059 7.66944 12.7736 8.1178 12.7736 8.59962V10.2927C12.7736 10.7009 12.8874 11.0757 13.1015 11.3835C13.2488 11.6043 13.3558 11.6512 13.3826 11.6512V12.4141C13.0547 12.4141 12.7469 12.2133 12.4725 11.8185C12.1713 11.3902 12.0107 10.8615 12.0107 10.2927V8.59962C12.0107 8.39886 11.897 8.21149 11.7163 8.11111C11.5289 8.01073 11.3014 8.0308 11.1341 8.15126V15.6396C11.1341 15.847 11.1876 16.0545 11.3014 16.2419L13.3692 19.6882H7.79478L9.86261 16.2419C9.97637 16.0545 10.0299 15.847 10.0299 15.6396V8.15126C9.86261 8.0308 9.63508 8.01073 9.4477 8.11111C9.26702 8.21149 9.15325 8.39886 9.15325 8.59962V10.2927C9.15325 10.8615 8.99265 11.3902 8.69151 11.8185C8.41714 12.2133 8.1093 12.4141 7.7814 12.4141V11.6512C7.7814 11.6512 7.91524 11.6043 8.06246 11.3835C8.2766 11.0757 8.39037 10.7009 8.39037 10.2927V8.59962C8.39037 8.1178 8.65805 7.66944 9.08634 7.43522C9.38747 7.27461 9.72207 7.24115 10.0299 7.32145V4.11599C10.0299 3.99554 9.97637 3.88846 9.88937 3.80816C9.80238 3.72786 9.68192 3.68101 9.54808 3.68101C9.36071 3.68101 9.19341 3.7747 9.10641 3.92862L6.61699 8.55947C6.29578 9.15506 6.21547 9.83095 6.37608 10.4734L7.25273 13.8394C7.37988 14.3413 7.23935 14.8767 6.86459 15.2715L2.96986 19.3938C1.48424 18.7915 0.433594 17.3394 0.433594 15.6396V4.37029C0.433594 2.12847 2.24712 0.314941 4.48894 0.314941H15.7582C18.0001 0.314941 19.8136 2.12847 19.8136 4.37029Z" fill="#959595"/>
</svg>
