<svg width="21" height="20" viewBox="0 0 21 20" fill="none" xmlns="http://www.w3.org/2000/svg">
<path d="M20.5586 10.4994C20.338 11.0874 19.7913 11.4674 19.1653 11.4674H18.656V18.8004C18.656 19.1683 18.3574 19.467 17.9894 19.467H13.9896V14.8005C13.9896 12.9626 12.4943 11.4674 10.6564 11.4674C8.81847 11.4674 7.32321 12.9626 7.32321 14.8005V19.467H3.32338C2.9554 19.467 2.65675 19.1683 2.65675 18.8004V11.4674H2.14677C1.5208 11.4674 0.974156 11.088 0.7535 10.5001C0.532843 9.91209 0.694836 9.26546 1.16681 8.85347L8.95247 1.48047C9.90842 0.575845 11.405 0.575845 12.3603 1.48047L20.1646 8.87081C20.6166 9.26479 20.7793 9.91143 20.5586 10.4994Z" fill="#44B54F"/>
</svg>
