<svg width="21" height="21" viewBox="0 0 21 21" fill="none" xmlns="http://www.w3.org/2000/svg">
<g clip-path="url(#clip0_26_2426)">
<path fill-rule="evenodd" clip-rule="evenodd" d="M10.656 0.859863C5.02219 0.859863 0.656006 4.98599 0.656006 10.5596C0.656006 13.4751 1.85075 15.9945 3.79655 17.7352C3.95976 17.8817 4.058 18.0853 4.06672 18.3048L4.12059 20.0834C4.13881 20.6507 4.7243 21.0191 5.24323 20.7917L7.22707 19.9163C7.39662 19.8418 7.58359 19.8275 7.76027 19.8759C8.67217 20.1278 9.64428 20.2601 10.656 20.2601C16.2898 20.2601 20.656 16.1332 20.656 10.5596C20.656 4.98599 16.2898 0.859863 10.656 0.859863ZM10.7653 17.5854C10.5982 17.6512 10.4207 17.6845 10.2409 17.6845C9.71717 17.6797 9.23468 17.3977 8.97481 16.9429C8.74902 16.5182 8.73396 16.0128 8.93362 15.5754C9.13327 15.1381 9.52465 14.8188 9.99367 14.7119C10.0816 14.6952 10.1719 14.6865 10.2615 14.6865C10.9285 14.6865 11.5037 15.1555 11.6376 15.8092C11.842 16.5373 11.4665 17.3018 10.7653 17.5854ZM14.1444 9.0012C13.7086 9.76891 13.093 10.4202 12.3523 10.9003C12.1621 11.0429 11.9965 11.1673 11.8404 11.2996C11.6051 11.4755 11.4293 11.7195 11.3366 11.9984C11.6519 12.7003 11.3484 13.5258 10.6528 13.8546C9.95643 14.1842 9.12535 13.8966 8.78229 13.2074C8.14689 11.9112 8.63018 10.3156 10.0143 9.14302C10.2171 8.9711 10.4247 8.81423 10.6552 8.64072C11.0347 8.40383 11.3643 8.09327 11.6242 7.72803C11.7058 7.51649 11.6931 7.27961 11.5885 7.07758C11.4847 6.81851 11.2764 6.61489 11.0149 6.51824C10.9404 6.49685 10.8628 6.48655 10.7851 6.48734C10.2377 6.51111 9.75837 6.86208 9.5706 7.37706C9.3353 8.12179 8.54144 8.53535 7.7975 8.30005C7.05277 8.06554 6.64 7.27168 6.87451 6.52695C7.43385 4.84021 8.99779 3.68984 10.7748 3.65894C11.1155 3.65894 11.4546 3.70569 11.7826 3.79759C12.8569 4.12401 13.7324 4.90835 14.1745 5.93988C14.6229 6.91358 14.6118 8.03622 14.1444 9.0012Z" fill="#44B54F"/>
</g>
<defs>
<clipPath id="clip0_26_2426">
<rect width="20" height="20" fill="white" transform="translate(0.656006 0.859863)"/>
</clipPath>
</defs>
</svg>
