<svg width="43" height="43" viewBox="0 0 43 43" fill="none" xmlns="http://www.w3.org/2000/svg">
<path d="M0 20.6213C0 10.9003 0 6.03984 3.01991 3.01991C6.03984 0 10.9003 0 20.6213 0H22.3397C32.0606 0 36.9211 0 39.941 3.01991C42.9609 6.03984 42.9609 10.9003 42.9609 20.6213V22.3397C42.9609 32.0606 42.9609 36.9211 39.941 39.941C36.9211 42.9609 32.0606 42.9609 22.3397 42.9609H20.6213C10.9003 42.9609 6.03984 42.9609 3.01991 39.941C0 36.9211 0 32.0606 0 22.3397V20.6213Z" fill="white"/>
<path d="M21.5068 11C23.0607 11.028 24.6146 11.042 26.1684 11.0839C27.5193 11.1259 28.8212 11.3636 29.9901 12.0909C31.502 13.028 32.4259 14.3916 32.7269 16.1329C32.9018 17.1748 32.9648 18.2517 32.9858 19.3077C33.0208 21.5804 33.0068 23.8531 32.9858 26.1259C32.9718 27.3427 32.9298 28.5594 32.5239 29.7273C31.7469 31.951 30.1721 33.2867 27.8833 33.7203C26.8544 33.9161 25.7835 33.958 24.7266 33.979C22.4378 34.014 20.1419 34 17.8461 33.979C16.6493 33.965 15.4454 33.9231 14.2905 33.5175C12.0647 32.7413 10.7208 31.1818 10.2798 28.8951C10.0838 27.8601 10.0348 26.7832 10.0208 25.7203C9.98584 23.4476 9.99983 21.1748 10.0208 18.9021C10.0348 17.6783 10.0768 16.4615 10.4898 15.2937C11.2667 13.0769 12.8346 11.7343 15.1234 11.3007C16.1523 11.1049 17.2232 11.0839 18.2801 11.042C19.351 11 20.4289 11.035 21.5068 11.035C21.5068 11.021 21.5068 11.014 21.5068 11ZM30.963 22.5105C30.949 22.5105 30.935 22.5105 30.921 22.5105C30.921 21.5385 30.949 20.5664 30.914 19.5944C30.879 18.6224 30.851 17.6504 30.718 16.6923C30.4661 14.9161 29.3112 13.6923 27.5403 13.3636C26.5184 13.1748 25.4545 13.1399 24.4116 13.1189C22.4727 13.0839 20.5339 13.0909 18.5951 13.1189C17.6152 13.1329 16.6283 13.1678 15.6623 13.3217C14.0035 13.5804 12.8626 14.5315 12.4146 16.1818C12.2466 16.7972 12.1696 17.4545 12.1486 18.0909C12.0997 20.021 12.0787 21.951 12.0857 23.8741C12.0927 25.2657 12.1276 26.6573 12.2396 28.042C12.4006 29.951 13.5835 31.3007 15.4664 31.6643C16.4883 31.8601 17.5522 31.8951 18.5951 31.9091C20.5339 31.9441 22.4727 31.9371 24.4116 31.9161C25.2795 31.9091 26.1544 31.8601 27.0224 31.7692C27.8413 31.6853 28.6112 31.4196 29.2692 30.9021C30.3471 30.049 30.753 28.8741 30.816 27.5664C30.9 25.8811 30.914 24.1958 30.963 22.5105Z" fill="black"/>
<path d="M21.507 28.4126C18.2873 28.4196 15.6345 25.7972 15.5855 22.6434C15.5365 19.2937 18.2453 16.6084 21.465 16.6084C24.7127 16.6154 27.3585 19.2168 27.4075 22.3776C27.4635 25.7063 24.7757 28.4336 21.507 28.4126ZM21.507 26.3357C23.6068 26.3287 25.3357 24.6014 25.3287 22.5035C25.3217 20.4056 23.5928 18.6783 21.493 18.6853C19.3862 18.6923 17.6643 20.4196 17.6713 22.5175C17.6713 24.6154 19.4072 26.3427 21.507 26.3357Z" fill="black"/>
<path d="M27.6315 15C28.4154 15 29.0173 15.6014 29.0173 16.3776C29.0173 17.1399 28.4154 17.7552 27.6525 17.7622C26.8965 17.7692 26.2526 17.1399 26.2456 16.3846C26.2386 15.6224 26.8615 15.007 27.6315 15Z" fill="black"/>
</svg>
