<svg width="23" height="22" viewBox="0 0 23 22" fill="none" xmlns="http://www.w3.org/2000/svg">
<path d="M7.70103 6.75436C7.70103 6.75436 3.44174 7.21572 0.600415 7.52417C0.344318 7.55449 0.117875 7.7219 0.0329591 7.97631C-0.0519571 8.23072 0.0329589 8.49567 0.221662 8.66308C2.33244 10.5468 5.50399 13.3677 5.50399 13.3677C5.5013 13.3677 4.63326 17.4712 4.05637 20.209C4.00785 20.4568 4.0995 20.7192 4.32056 20.876C4.54026 21.0329 4.82331 21.0355 5.04571 20.9129C7.5312 19.5315 11.254 17.454 11.254 17.454C11.254 17.454 14.9782 19.5315 17.4597 20.9142C17.6861 21.0355 17.9692 21.0329 18.1889 20.876C18.4099 20.7192 18.5016 20.4568 18.4517 20.2103C17.8748 17.4712 17.0081 13.3677 17.0081 13.3677C17.0081 13.3677 20.1797 10.5468 22.2905 8.66704C22.4792 8.49435 22.5627 8.2294 22.4792 7.97631C22.3956 7.72322 22.1691 7.55581 21.913 7.52681C19.0717 7.21572 14.8111 6.75436 14.8111 6.75436C14.8111 6.75436 13.0454 2.93427 11.8687 0.387545C11.7581 0.1595 11.5263 0 11.254 0C10.9818 0 10.7486 0.160818 10.6434 0.387545C9.4654 2.93427 7.70103 6.75436 7.70103 6.75436Z" fill="#44B54F"/>
<path d="M8.57143 7.88275C8.57143 7.88275 5.35495 8.23426 3.20927 8.46927C3.01588 8.49237 2.84488 8.61992 2.78075 8.81376C2.71662 9.0076 2.78075 9.20946 2.92325 9.33701C4.51724 10.7722 6.9123 12.9215 6.9123 12.9215C6.91026 12.9215 6.25475 16.0479 5.8191 18.1339C5.78246 18.3227 5.85167 18.5226 6.01861 18.6421C6.18452 18.7616 6.39827 18.7636 6.56622 18.6702C8.44318 17.6177 11.2546 16.0349 11.2546 16.0349C11.2546 16.0349 14.0669 17.6177 15.9408 18.6712C16.1118 18.7636 16.3256 18.7616 16.4915 18.6421C16.6584 18.5226 16.7277 18.3227 16.69 18.1349C16.2543 16.0479 15.5999 12.9215 15.5999 12.9215C15.5999 12.9215 17.9949 10.7722 19.5889 9.34003C19.7314 9.20846 19.7945 9.00659 19.7314 8.81376C19.6683 8.62093 19.4973 8.49338 19.3039 8.47128C17.1582 8.23426 13.9407 7.88275 13.9407 7.88275C13.9407 7.88275 12.6073 4.97221 11.7187 3.03184C11.6352 2.8581 11.4602 2.73657 11.2546 2.73657C11.0489 2.73657 10.8728 2.8591 10.7935 3.03184C9.90383 4.97221 8.57143 7.88275 8.57143 7.88275Z" fill="white"/>
</svg>
