<svg width="36" height="34" viewBox="0 0 36 34" fill="none" xmlns="http://www.w3.org/2000/svg">
<path d="M11.0554 5.49294C11.0554 6.33537 10.5221 6.64364 9.73015 6.64364H0.363281V4.33691H9.73104C10.523 4.33691 11.0563 4.6257 11.0563 5.49294H11.0554Z" fill="#44B54F"/>
<path d="M28.6486 27.4962V33.7343H20.9355V27.4962C20.9355 25.8521 21.095 24.3674 21.6531 23.2911C22.2112 22.2148 23.1776 21.5469 24.7925 21.5469C28.0214 21.5469 28.6494 24.2079 28.6494 27.4962H28.6486Z" fill="#44B54F"/>
<path d="M13.7401 17.3613V33.7343H12.3599C6.63033 33.7343 1.98145 29.0854 1.98145 23.3558V17.3613H13.7401Z" fill="#44B54F"/>
<path d="M17.5515 11.9054C17.5515 12.7478 16.9234 13.2058 16.0119 13.2058H6.85938V10.4907H16.0128C16.9243 10.4907 17.5524 10.7299 17.5524 11.9054H17.5515Z" fill="#44B54F"/>
<path d="M35.2547 11.3127V17.1026H19.9926C21.9804 16.579 22.8326 15.2193 22.8326 12.6034C22.8326 10.5155 22.0407 9.23986 20.4559 8.5427C21.3931 8.11396 22.2098 6.93313 22.2098 5.03477C22.2098 2.07518 21.0441 0.913846 19.5293 0.461182H24.4023C30.3968 0.461182 35.2547 5.31913 35.2547 11.3136V11.3127Z" fill="#44B54F"/>
</svg>
