<svg width="254" height="34" viewBox="0 0 254 34" fill="none" xmlns="http://www.w3.org/2000/svg">
<path d="M11.5554 5.03005C11.5554 5.87248 11.0221 6.18075 10.2302 6.18075H0.863281V3.87402H10.231C11.023 3.87402 11.5563 4.16281 11.5563 5.03005H11.5554Z" fill="#44B54F"/>
<path d="M29.1486 27.0333V33.2714H21.4355V27.0333C21.4355 25.3892 21.595 23.9045 22.1531 22.8282C22.7112 21.7519 23.6776 21.084 25.2925 21.084C28.5214 21.084 29.1494 23.7451 29.1494 27.0333H29.1486Z" fill="#44B54F"/>
<path d="M14.2401 16.8984V33.2714H12.8599C7.13033 33.2714 2.48145 28.6225 2.48145 22.8929V16.8984H14.2401Z" fill="#44B54F"/>
<path d="M18.0515 11.4425C18.0515 12.285 17.4234 12.7429 16.5119 12.7429H7.35938V10.0278H16.5128C17.4243 10.0278 18.0524 10.267 18.0524 11.4425H18.0515Z" fill="#44B54F"/>
<path d="M35.7547 10.8498V16.6397H20.4926C22.4804 16.1162 23.3326 14.7564 23.3326 12.1405C23.3326 10.0526 22.5407 8.77697 20.9559 8.07981C21.8931 7.65106 22.7098 6.47024 22.7098 4.57188C22.7098 1.61229 21.5441 0.450955 20.0293 -0.00170898H24.9023C30.8968 -0.00170898 35.7547 4.85624 35.7547 10.8507V10.8498Z" fill="#44B54F"/>
<path fill-rule="evenodd" clip-rule="evenodd" d="M59.7393 13.8968C59.7393 11.3999 57.8063 9.54734 55.3094 9.54734H49.1895V23.8023H55.8734C58.854 23.8023 60.3032 21.7891 60.3836 19.2922C60.3836 18.0036 59.8196 16.9559 58.6113 16.3937C59.3359 15.8298 59.7393 14.7839 59.7393 13.8968ZM55.6325 18.0839C57.0817 18.0839 57.162 20.5808 55.6325 20.5808H52.7322V18.0839H55.6307H55.6325ZM55.0685 12.7689C56.5177 12.7689 56.5177 15.1051 55.0685 15.1051H52.7322V12.7689H55.0685ZM62.3165 16.6347C62.3968 21.4661 66.0217 23.963 69.6448 23.963C72.7057 23.963 75.9272 22.3531 76.4091 18.3249H72.8663C72.4629 19.8544 71.2564 20.579 69.6448 20.579C67.5512 20.579 66.102 18.7264 66.102 16.6329C66.102 14.2966 67.5512 12.6868 69.6448 12.6868C71.1743 12.6868 72.3023 13.3311 72.786 14.7803H76.4108C75.8469 10.9163 72.6253 9.3064 69.6465 9.3064C66.0217 9.3064 62.3986 11.8033 62.3183 16.6347H62.3165ZM88.1689 9.54734H79.229V23.8023H88.3296V20.5808H82.8539V18.0036H87.6853V14.7821H82.8539V12.7689H88.1689V9.54734ZM108.947 9.54734H97.1089V23.8023H100.814V12.8492H105.244V23.8023H108.949V9.54734H108.947ZM121.673 23.8023H125.298V23.2384L118.855 9.3064H117.245L110.802 23.2401V23.8041H114.427L115.231 21.9515H120.87L121.675 23.8041L121.673 23.8023ZM119.66 18.8889H116.438L118.048 15.1033L119.658 18.8889H119.66ZM134.075 15.6673L128.439 9.46703H127.15V23.8023H130.855V17.4414L133.916 20.5826H134.32L137.3 17.4414V23.8041H141.086V9.46703H139.797L134.079 15.6691L134.075 15.6673ZM143.256 23.2384V23.8023H147.363L149.779 19.6153H151.712V23.8023H155.337V9.54734H149.135C143.497 9.54734 142.451 16.3116 146.074 18.7282L143.256 23.2384ZM149.135 16.3116C147.122 16.3116 147.042 12.7689 149.135 12.7689H151.712V16.3116H149.135ZM161.054 12.7689V23.8023H164.679V12.7689H168.221V9.54734H157.591V12.7689H161.054ZM182.318 9.54734H178.612V14.7018H174.183V9.54734H170.477V23.8023H174.183V18.0857H178.612V23.8041H182.318V9.54734ZM194.559 16.7953V23.8023H198.265V9.46703H196.976L189.728 16.4741V9.54734H186.023V23.8023H187.311L194.559 16.7953ZM205.673 23.8023V18.3267C206.157 18.3267 206.558 18.3267 207.122 18.2463L210.264 23.8041H214.29V23.2401L210.424 16.9577C213.242 15.1051 213.162 12.4476 213.162 9.54913H209.377C209.377 12.2067 209.618 14.9445 205.914 14.9445H205.673V9.54734H201.968V23.8023H205.673ZM224.922 16.7953V23.8023H228.708V9.46703H227.339L220.171 16.4741V9.54734H216.385V23.8023H217.674L224.922 16.7953Z" fill="#44B54F"/>
<path fill-rule="evenodd" clip-rule="evenodd" d="M244.814 13.8167H241.996V21.0646H243.849V18.8908H244.814C246.263 18.8908 247.391 17.8431 247.391 16.3939C247.391 14.8643 246.263 13.8167 244.814 13.8167ZM244.814 17.1185H243.849V15.5889H244.814C245.218 15.5889 245.539 15.9102 245.539 16.3939C245.539 16.7972 245.218 17.1185 244.814 17.1185ZM251.821 13.8167L250.693 16.7972L249.324 13.8167H247.391L249.808 18.8105C249.487 19.2138 249.083 19.4548 248.359 19.3744V21.0664C249.969 21.1467 251.016 20.4221 251.661 18.8926L253.754 13.8184H251.821V13.8167Z" fill="#44B54F"/>
<path fill-rule="evenodd" clip-rule="evenodd" d="M235.956 19.7761C237.325 19.7761 238.453 18.8105 238.453 17.4398C238.453 16.0691 237.325 15.1035 235.956 15.1035C234.587 15.1035 233.459 16.0691 233.459 17.4398C233.459 18.8105 234.587 19.7761 235.956 19.7761Z" fill="#44B54F"/>
</svg>
