<svg width="102" height="18" viewBox="0 0 102 18" fill="none" xmlns="http://www.w3.org/2000/svg">
<path d="M97.3197 5.918H95.8438V4.064H97.3197V0.697998H99.3717V4.064H101.064V5.918H99.3717V14H97.3197V5.918Z" fill="#363636"/>
<path d="M85.8076 4.06402H87.7336V5.12602C88.1536 4.67002 88.5916 4.34002 89.0476 4.13602C89.5036 3.93202 90.0376 3.83002 90.6496 3.83002C91.9936 3.83002 92.9896 4.23202 93.6376 5.03602C94.2856 5.82802 94.6096 7.05202 94.6096 8.70802V14H92.5756V9.03202C92.5756 7.86802 92.3896 7.02202 92.0176 6.49402C91.6576 5.96602 91.0816 5.70202 90.2896 5.70202C89.4616 5.70202 88.8436 5.97802 88.4356 6.53002C88.0396 7.07002 87.8416 7.91602 87.8416 9.06802V14H85.8076V4.06402Z" fill="#363636"/>
<path d="M83.9769 10.958C83.8209 11.438 83.5809 11.882 83.2569 12.29C82.9449 12.686 82.5789 13.028 82.1589 13.316C81.7389 13.604 81.2769 13.832 80.7729 14C80.2689 14.156 79.7469 14.234 79.2069 14.234C78.4509 14.234 77.7489 14.102 77.1009 13.838C76.4529 13.574 75.8889 13.208 75.4089 12.74C74.9409 12.272 74.5689 11.726 74.2929 11.102C74.0169 10.466 73.8789 9.78202 73.8789 9.05002C73.8789 8.31802 74.0109 7.63402 74.2749 6.99802C74.5509 6.36202 74.9229 5.81002 75.3909 5.34202C75.8589 4.87402 76.4049 4.50802 77.0289 4.24402C77.6649 3.96802 78.3489 3.83002 79.0809 3.83002C79.8129 3.83002 80.4909 3.96802 81.1149 4.24402C81.7509 4.50802 82.2969 4.87402 82.7529 5.34202C83.2209 5.81002 83.5869 6.36802 83.8509 7.01602C84.1149 7.65202 84.2469 8.34202 84.2469 9.08602C84.2469 9.25402 84.2349 9.39802 84.2109 9.51802C84.1989 9.62602 84.1809 9.75202 84.1569 9.89602H76.0389C76.1589 10.628 76.5009 11.222 77.0649 11.678C77.6409 12.134 78.3369 12.362 79.1529 12.362C80.2929 12.362 81.1629 11.894 81.7629 10.958H83.9769ZM82.2129 8.07802C82.0329 7.32202 81.6729 6.74002 81.1329 6.33202C80.5929 5.91202 79.9149 5.70202 79.0989 5.70202C78.3069 5.70202 77.6409 5.91202 77.1009 6.33202C76.5609 6.74002 76.1949 7.32202 76.0029 8.07802H82.2129Z" fill="#363636"/>
<path d="M57.4541 4.06402H59.3621V5.07202C59.7221 4.61602 60.1001 4.29802 60.4961 4.11802C60.9041 3.92602 61.4081 3.83002 62.0081 3.83002C62.7281 3.83002 63.3221 3.96202 63.7901 4.22602C64.2701 4.49002 64.6901 4.91602 65.0501 5.50402C65.4581 4.92802 65.9201 4.50802 66.4361 4.24402C66.9521 3.96802 67.5761 3.83002 68.3081 3.83002C69.6161 3.83002 70.6061 4.20202 71.2781 4.94602C71.9621 5.69002 72.3041 6.77602 72.3041 8.20402V14H70.2521V8.45602C70.2521 6.62002 69.5501 5.70202 68.1461 5.70202C66.6461 5.70202 65.8961 6.74002 65.8961 8.81602V14H63.8621V8.43802C63.8621 6.61402 63.1361 5.70202 61.6841 5.70202C60.9281 5.70202 60.3701 5.95402 60.0101 6.45802C59.6621 6.96202 59.4881 7.74802 59.4881 8.81602V14H57.4541V4.06402Z" fill="#363636"/>
<path d="M53.4834 12.848C53.0634 13.352 52.6314 13.712 52.1874 13.928C51.7434 14.132 51.1914 14.234 50.5314 14.234C49.2234 14.234 48.2394 13.832 47.5794 13.028C46.9314 12.212 46.6074 11.006 46.6074 9.41003V4.06403H48.6414V9.08603C48.6414 10.226 48.8154 11.06 49.1634 11.588C49.5234 12.104 50.0934 12.362 50.8734 12.362C51.7374 12.362 52.3674 12.086 52.7634 11.534C53.1714 10.982 53.3754 10.1 53.3754 8.88803V4.06403H55.4094V14H53.4834V12.848Z" fill="#363636"/>
<path d="M36.6711 14.648C37.0671 15.188 37.4811 15.566 37.9131 15.782C38.3451 16.01 38.8911 16.124 39.5511 16.124C40.5471 16.124 41.3031 15.848 41.8191 15.296C42.3471 14.756 42.6111 13.958 42.6111 12.902V12.452C42.1671 13.076 41.6751 13.532 41.1351 13.82C40.5951 14.096 39.9411 14.234 39.1731 14.234C38.4531 14.234 37.7871 14.102 37.1751 13.838C36.5751 13.574 36.0531 13.214 35.6091 12.758C35.1771 12.29 34.8351 11.738 34.5831 11.102C34.3311 10.454 34.2051 9.75202 34.2051 8.99602C34.2051 8.25202 34.3311 7.56802 34.5831 6.94402C34.8351 6.30802 35.1771 5.76202 35.6091 5.30602C36.0531 4.85002 36.5751 4.49002 37.1751 4.22602C37.7871 3.96202 38.4471 3.83002 39.1551 3.83002C40.6431 3.83002 41.7951 4.38202 42.6111 5.48602V4.06402H44.5731V12.146C44.5731 16.01 42.8811 17.942 39.4971 17.942C38.2611 17.942 37.2051 17.654 36.3291 17.078C35.4531 16.514 34.8171 15.704 34.4211 14.648H36.6711ZM39.3891 12.362C39.8571 12.362 40.2831 12.284 40.6671 12.128C41.0511 11.96 41.3811 11.726 41.6571 11.426C41.9451 11.126 42.1611 10.772 42.3051 10.364C42.4611 9.95602 42.5391 9.50002 42.5391 8.99602C42.5391 8.51602 42.4611 8.07802 42.3051 7.68202C42.1491 7.27402 41.9271 6.92602 41.6391 6.63802C41.3511 6.33802 41.0091 6.11002 40.6131 5.95402C40.2171 5.78602 39.7791 5.70202 39.2991 5.70202C38.8551 5.70202 38.4471 5.78602 38.0751 5.95402C37.7031 6.11002 37.3791 6.33802 37.1031 6.63802C36.8391 6.93802 36.6291 7.29202 36.4731 7.70002C36.3291 8.09602 36.2571 8.54002 36.2571 9.03202C36.2571 9.52402 36.3291 9.97402 36.4731 10.382C36.6291 10.79 36.8451 11.144 37.1211 11.444C37.3971 11.732 37.7271 11.96 38.1111 12.128C38.4951 12.284 38.9211 12.362 39.3891 12.362Z" fill="#363636"/>
<path d="M28.8721 4.06402H30.7801V5.18002C30.9361 4.92802 31.0921 4.71802 31.2481 4.55002C31.4041 4.38202 31.5781 4.25002 31.7701 4.15402C31.9621 4.04602 32.1781 3.96802 32.4181 3.92002C32.6581 3.87202 32.9401 3.84202 33.2641 3.83002V5.81002C31.6921 5.87002 30.9061 6.72802 30.9061 8.38402V14H28.8721V4.06402Z" fill="#363636"/>
<path d="M20.263 0.697998H22.063L27.697 14H25.393L23.809 10.22H18.589L16.951 14H14.665L20.263 0.697998ZM22.963 8.24L21.163 3.524L19.345 8.24H22.963Z" fill="#363636"/>
<path d="M4.71973 4.06402H6.64573V5.12602C7.06573 4.67002 7.50373 4.34002 7.95973 4.13602C8.41573 3.93202 8.94973 3.83002 9.56173 3.83002C10.9057 3.83002 11.9017 4.23202 12.5497 5.03602C13.1977 5.82802 13.5217 7.05202 13.5217 8.70802V14H11.4877V9.03202C11.4877 7.86802 11.3017 7.02202 10.9297 6.49402C10.5697 5.96602 9.99373 5.70202 9.20173 5.70202C8.37373 5.70202 7.75573 5.97802 7.34773 6.53002C6.95173 7.07002 6.75373 7.91602 6.75373 9.06802V14H4.71973V4.06402Z" fill="#3F53BA"/>
<path d="M0.314453 0.697998H2.40245V14H0.314453V0.697998Z" fill="#3F53BA"/>
</svg>
