<svg width="205" height="15" viewBox="0 0 205 15" fill="none" xmlns="http://www.w3.org/2000/svg">
<path fill-rule="evenodd" clip-rule="evenodd" d="M10.5498 4.59044C10.5498 2.09354 8.6169 0.240945 6.12 0.240945H0V14.4959H6.68398C9.66456 14.4959 11.1138 12.4827 11.1941 9.98582C11.1941 8.69721 10.6301 7.64955 9.42183 7.08734C10.1464 6.52335 10.5498 5.47748 10.5498 4.59044ZM6.44304 8.77753C7.89228 8.77753 7.97259 11.2744 6.44304 11.2744H3.54278V8.77753H6.44125H6.44304ZM5.87905 3.46246C7.32829 3.46246 7.32829 5.79874 5.87905 5.79874H3.54278V3.46246H5.87905ZM13.127 7.32829C13.2073 12.1597 16.8322 14.6566 20.4553 14.6566C23.5162 14.6566 26.7377 13.0467 27.2196 9.01847H23.6768C23.2735 10.548 22.067 11.2726 20.4553 11.2726C18.3618 11.2726 16.9125 9.42004 16.9125 7.3265C16.9125 4.99023 18.3618 3.38036 20.4553 3.38036C21.9849 3.38036 23.1128 4.02467 23.5965 5.47391H27.2214C26.6574 1.60987 23.4359 0 20.4571 0C16.8322 0 13.2091 2.4969 13.1288 7.32829H13.127ZM38.9795 0.240945H30.0396V14.4959H39.1401V11.2744H33.6644V8.69721H38.4958V5.47569H33.6644V3.46246H38.9795V0.240945ZM59.7579 0.240945H47.9194V14.4959H51.6246V3.54278H56.0544V14.4959H59.7596V0.240945H59.7579ZM72.4833 14.4959H76.1082V13.932L69.6651 0H68.0553L61.6122 13.9337V14.4977H65.2371L66.042 12.6451H71.6801L72.4851 14.4977L72.4833 14.4959ZM70.4701 9.58246H67.2486L68.8584 5.79695L70.4683 9.58246H70.4701ZM84.8857 6.36094L79.2494 0.16063H77.9608V14.4959H81.666V8.13501L84.7269 11.2762H85.1302L88.1108 8.13501V14.4977H91.8963V0.16063H90.6077L84.8893 6.36272L84.8857 6.36094ZM94.0666 13.932V14.4959H98.1734L100.59 10.3089H102.523V14.4959H106.148V0.240945H99.9456C94.3075 0.240945 93.2617 7.00524 96.8848 9.42183L94.0666 13.932ZM99.9456 7.00524C97.9324 7.00524 97.8521 3.46246 99.9456 3.46246H102.523V7.00524H99.9456ZM111.864 3.46246V14.4959H115.489V3.46246H119.032V0.240945H108.402V3.46246H111.864ZM133.128 0.240945H129.423V5.39538H124.993V0.240945H121.288V14.4959H124.993V8.77931H129.423V14.4977H133.128V0.240945ZM145.37 7.48892V14.4959H149.075V0.16063H147.787L140.539 7.16766V0.240945H136.833V14.4959H138.122L145.37 7.48892ZM156.484 14.4959V9.02026C156.967 9.02026 157.369 9.02026 157.933 8.93994L161.074 14.4977H165.101V13.9337L161.235 7.65133C164.053 5.79874 163.973 3.1412 163.973 0.242729H160.187C160.187 2.90026 160.428 5.63811 156.725 5.63811H156.484V0.240945H152.779V14.4959H156.484ZM175.733 7.48892V14.4959H179.518V0.16063H178.149L170.981 7.16766V0.240945H167.196V14.4959H168.485L175.733 7.48892Z" fill="#44B54F"/>
<path fill-rule="evenodd" clip-rule="evenodd" d="M195.625 4.51025H192.807V11.7582H194.659V9.58437H195.625C197.074 9.58437 198.202 8.53671 198.202 7.08747C198.202 5.55792 197.074 4.51025 195.625 4.51025ZM195.625 7.81209H194.659V6.28254H195.625C196.028 6.28254 196.349 6.6038 196.349 7.08747C196.349 7.49083 196.028 7.81209 195.625 7.81209ZM202.632 4.51025L201.504 7.49083L200.135 4.51025H198.202L200.619 9.50406C200.297 9.90741 199.894 10.1484 199.169 10.068V11.76C200.779 11.8403 201.827 11.1157 202.471 9.58615L204.565 4.51204H202.632V4.51025Z" fill="#44B54F"/>
<path fill-rule="evenodd" clip-rule="evenodd" d="M186.766 10.4697C188.135 10.4697 189.263 9.5041 189.263 8.13339C189.263 6.76268 188.135 5.79712 186.766 5.79712C185.398 5.79712 184.27 6.76268 184.27 8.13339C184.27 9.5041 185.398 10.4697 186.766 10.4697Z" fill="#44B54F"/>
</svg>
