<svg width="55" height="16" viewBox="0 0 55 16" fill="none" xmlns="http://www.w3.org/2000/svg">
<path d="M4.26245 1.73335H8.79995C9.21245 1.73335 10.45 1.60001 11 3.46668C11.4125 4.66668 11.9625 6.53335 12.7875 9.33334H13.0625C13.8875 6.40001 14.575 4.40001 14.85 3.46668C15.4 1.60001 16.775 1.73335 17.325 1.73335H21.5875V14.5333H17.1875V6.93335H16.9125L14.575 14.5333H11.275L8.93745 6.93335H8.52495V14.5333H4.26245M23.375 1.73335H27.775V9.33334H28.1875L31.075 3.06668C31.625 1.86668 32.8625 1.73335 32.8625 1.73335H36.9875V14.5333H32.5875V6.93335H32.3125L29.425 13.2C28.875 14.4 27.5 14.5333 27.5 14.5333H23.375M42.9 10.6667V14.5333H38.775V7.86668H52.25C51.7 9.46668 49.775 10.6667 47.575 10.6667" fill="#0F754E"/>
<path d="M52.525 7.06667C53.075 4.66667 51.425 1.73334 47.85 1.73334H38.5C38.775 4.53334 41.25 7.06667 43.8625 7.06667" fill="url(#paint0_linear_238_9836)"/>
<defs>
<linearGradient id="paint0_linear_238_9836" x1="50.875" y1="4.08093e-06" x2="39.875" y2="4.08093e-06" gradientUnits="userSpaceOnUse">
<stop stop-color="#1F5CD7"/>
<stop offset="1" stop-color="#02AEFF"/>
</linearGradient>
</defs>
</svg>
