<svg width="18" height="17" viewBox="0 0 18 17" fill="none" xmlns="http://www.w3.org/2000/svg">
<path d="M6.14052 5.23773L6.19557 5.73469L6.47886 5.70331L6.59619 5.44355L6.14052 5.23773ZM6.14052 5.23773L6.59621 5.44352L6.59625 5.44342L6.59643 5.44302L6.59715 5.44144L6.59999 5.43515L6.61117 5.4104L6.65439 5.31471L6.81531 4.95849L7.36322 3.7458C7.80154 2.77577 8.34952 1.56334 8.78833 0.593327C8.78839 0.593209 8.78846 0.593079 8.78854 0.59294C8.78993 0.594315 8.79167 0.596416 8.79326 0.599355L10.2153 3.74585L10.7635 4.95858L10.9245 5.31483L10.9677 5.41052L10.9789 5.43527L10.9818 5.44156L10.9825 5.44315L10.9827 5.44355L10.9827 5.44365L11.4384 5.23773M6.14052 5.23773L6.19553 5.73469L6.19542 5.7347L6.19499 5.73475L6.19326 5.73494L6.1864 5.7357L6.15941 5.73869L6.05507 5.75025L5.66661 5.79328L4.34412 5.93982C3.28741 6.05693 1.96676 6.20333 0.908923 6.32076C0.906847 6.3211 0.905229 6.32169 0.904088 6.32225L0.904538 6.32265C1.69069 7.04003 2.67449 7.93597 3.46185 8.65265L4.44612 9.54835L4.7353 9.81141L4.81297 9.88207L4.83306 9.90034L4.83817 9.90498L4.83945 9.90615L4.83978 9.90645L4.83986 9.90652L4.50347 10.2764L4.83988 9.90654L5.79636 10.7764H4.90964L4.88409 10.8992C4.81649 11.2247 4.72204 11.6806 4.61421 12.2017C4.39893 13.2422 4.13036 14.5424 3.91566 15.5844C3.91533 15.5867 3.91534 15.5886 3.91548 15.5902C3.91573 15.59 3.91599 15.5899 3.91624 15.5898C4.84173 15.0638 5.99733 14.4055 6.92184 13.8785L8.07784 13.2193L8.41736 13.0256L8.50854 12.9736L8.53213 12.9601L8.53812 12.9567L8.53963 12.9559L8.54001 12.9557L8.5401 12.9556L8.78793 13.3899M11.4384 5.23773L11.3834 5.73469L11.3835 5.73471L11.3839 5.73476L11.3856 5.73495L11.3925 5.73571L11.4195 5.7387L11.5238 5.75026L11.9124 5.79331L13.2352 5.94006C14.2929 6.0575 15.6149 6.20453 16.6729 6.32298C16.6736 6.32308 16.6743 6.32323 16.6749 6.3234C16.6741 6.32495 16.6727 6.32692 16.6707 6.329C15.8851 7.04439 14.9032 7.93784 14.1171 8.65294L13.1328 9.54836L12.8436 9.8114L12.7659 9.88206L12.7458 9.90034L12.7407 9.90498L12.7394 9.90615L12.7391 9.90644L12.739 9.90652L13.0754 10.2764M11.4384 5.23773L10.9827 5.44368L11.1001 5.70333L11.3833 5.73469L11.4384 5.23773ZM8.78793 13.3899L9.03569 12.9556L9.03579 12.9556L9.03617 12.9558L9.03768 12.9567L9.04368 12.9601L9.06727 12.9736L9.1585 13.0256L9.49812 13.2193L10.6542 13.8786C11.5771 14.4049 12.7302 15.0623 13.6536 15.5885C13.6565 15.5899 13.659 15.5907 13.6609 15.5911C13.6609 15.5901 13.6609 15.5889 13.6607 15.5876C13.4459 14.5447 13.1773 13.243 12.9624 12.2016L12.6934 10.8987L12.6143 10.516L12.5931 10.4132L12.5876 10.3866L12.5862 10.3799L12.5859 10.3782L12.5858 10.3777L12.5858 10.3776L13.0754 10.2764M8.78793 13.3899L8.54013 12.9556L8.78789 12.8142L9.03566 12.9555L8.78793 13.3899ZM13.0754 10.2764L12.5857 10.3776L12.5281 10.0984L12.739 9.90654L13.0754 10.2764ZM3.91649 15.5933L3.91592 15.5928C3.91585 15.5926 3.91578 15.5922 3.91571 15.5919L3.91649 15.5933Z" stroke="#44B54F"/>
</svg>
