<svg width="21" height="21" viewBox="0 0 21 21" fill="none" xmlns="http://www.w3.org/2000/svg">
<path d="M20.1269 16.0943L19.2186 20.0322C19.091 20.5889 18.6017 20.9784 18.0286 20.9784C8.17263 20.9776 0.15625 12.9612 0.15625 3.1048C0.15625 2.53209 0.545701 2.0422 1.10243 1.91524L5.04031 1.00695C5.6138 0.874044 6.19979 1.17173 6.43809 1.71483L8.25545 5.95351C8.4679 6.45277 8.3246 7.03447 7.90464 7.37747L5.80132 9.0663C7.12878 11.7705 9.32743 13.9691 12.0324 15.2974L13.7544 13.1956C14.0938 12.7745 14.6799 12.6287 15.1792 12.845L19.4178 14.6619C19.9277 14.9301 20.2597 15.5239 20.1269 16.0943Z" fill="#44B54F"/>
</svg>
