<svg width="15" height="15" viewBox="0 0 15 15" fill="none" xmlns="http://www.w3.org/2000/svg">
<circle cx="7.5" cy="7.5" r="7.5" fill="#F4F7FB"/>
<path d="M7.00219 9.7141C7.00219 9.42686 7.02042 9.16755 7.05689 8.93617C7.10066 8.70479 7.1663 8.48936 7.25383 8.28989C7.34865 8.08245 7.47265 7.88298 7.62582 7.69149C7.78629 7.49202 7.97958 7.28457 8.20569 7.06915C8.50474 6.78191 8.70897 6.53457 8.81838 6.32713C8.92779 6.1117 8.98249 5.87234 8.98249 5.60904C8.98249 5.38564 8.94602 5.18218 8.87308 4.99867C8.80015 4.80718 8.69803 4.64362 8.56674 4.50798C8.44274 4.36436 8.28957 4.25665 8.10722 4.18484C7.93217 4.10505 7.73888 4.06516 7.52735 4.06516C6.60102 4.06516 6.09045 4.66755 5.99562 5.87234H5C5.03647 4.97872 5.27717 4.2766 5.7221 3.76596C6.17433 3.25532 6.77972 3 7.53829 3C7.8957 3 8.22392 3.06782 8.52298 3.20346C8.82203 3.33112 9.08096 3.51463 9.29978 3.75399C9.5186 3.98537 9.69001 4.26463 9.814 4.59176C9.938 4.9109 10 5.26197 10 5.64495C10 5.84441 9.98176 6.02793 9.9453 6.19548C9.90883 6.36303 9.85047 6.53059 9.77024 6.69814C9.69001 6.85771 9.58425 7.02128 9.45295 7.18883C9.32166 7.3484 9.1612 7.52394 8.97155 7.71543C8.78191 7.89894 8.62509 8.07048 8.50109 8.23005C8.3771 8.38165 8.27498 8.53325 8.19475 8.68484C8.12181 8.83644 8.07075 8.99601 8.04157 9.16356C8.0124 9.32314 7.99781 9.50665 7.99781 9.7141H7.00219ZM6.98031 10.4801H8.00875V12H6.98031V10.4801Z" fill="#3F53BA"/>
</svg>
