<svg width="18" height="17" viewBox="0 0 18 17" fill="none" xmlns="http://www.w3.org/2000/svg">
<path d="M6.04482 5.23773C6.04482 5.23773 2.87114 5.58924 0.754021 5.82426C0.563199 5.84735 0.394472 5.97491 0.331199 6.16874C0.267926 6.36258 0.331199 6.56445 0.471805 6.69199C2.04458 8.12718 4.40776 10.2764 4.40776 10.2764C4.40576 10.2764 3.75897 13.4029 3.32912 15.4889C3.29296 15.6777 3.36126 15.8776 3.52597 15.9971C3.68967 16.1166 3.90058 16.1186 4.06629 16.0252C5.91827 14.9727 8.69223 13.3899 8.69223 13.3899C8.69223 13.3899 11.4672 14.9727 13.3162 16.0262C13.4849 16.1186 13.6958 16.1166 13.8595 15.9971C14.0242 15.8776 14.0925 15.6777 14.0553 15.4899C13.6255 13.4029 12.9797 10.2764 12.9797 10.2764C12.9797 10.2764 15.3429 8.12718 16.9157 6.69501C17.0563 6.56344 17.1185 6.36157 17.0563 6.16874C16.994 5.97591 16.8253 5.84836 16.6345 5.82626C14.5173 5.58924 11.3426 5.23773 11.3426 5.23773C11.3426 5.23773 10.027 2.32719 9.1502 0.386825C9.06785 0.213077 8.8951 0.0915527 8.69223 0.0915527C8.48935 0.0915527 8.3156 0.214081 8.23727 0.386825C7.35948 2.32719 6.04482 5.23773 6.04482 5.23773Z" fill="#44B54F"/>
</svg>
