<svg width="177" height="48" viewBox="0 0 177 48" fill="none" xmlns="http://www.w3.org/2000/svg">
<path d="M103.566 12.4297C103.103 12.4297 102.691 12.5208 102.332 12.7031C101.978 12.8802 101.678 13.138 101.434 13.4766C101.194 13.8151 101.012 14.224 100.887 14.7031C100.762 15.1823 100.699 15.7214 100.699 16.3203C100.699 17.1276 100.798 17.8177 100.996 18.3906C101.199 18.9583 101.512 19.3932 101.934 19.6953C102.355 19.9922 102.9 20.1406 103.566 20.1406C104.03 20.1406 104.493 20.0885 104.957 19.9844C105.426 19.8802 105.934 19.7318 106.48 19.5391V21.5703C105.975 21.7786 105.478 21.9271 104.988 22.0156C104.499 22.1094 103.949 22.1562 103.34 22.1562C102.163 22.1562 101.194 21.9141 100.434 21.4297C99.6784 20.9401 99.1185 20.2578 98.7539 19.3828C98.3893 18.5026 98.207 17.4766 98.207 16.3047C98.207 15.4401 98.3242 14.6484 98.5586 13.9297C98.793 13.2109 99.1367 12.5885 99.5898 12.0625C100.043 11.5365 100.603 11.1302 101.27 10.8438C101.936 10.5573 102.702 10.4141 103.566 10.4141C104.134 10.4141 104.702 10.487 105.27 10.6328C105.842 10.7734 106.389 10.9688 106.91 11.2188L106.129 13.1875C105.702 12.9844 105.272 12.8073 104.84 12.6562C104.408 12.5052 103.983 12.4297 103.566 12.4297ZM112.332 13.1016C113.139 13.1016 113.835 13.2578 114.418 13.5703C115.001 13.8776 115.452 14.3255 115.77 14.9141C116.087 15.5026 116.246 16.2214 116.246 17.0703V18.2266H110.613C110.639 18.8984 110.84 19.4271 111.215 19.8125C111.595 20.1927 112.121 20.3828 112.793 20.3828C113.35 20.3828 113.861 20.3255 114.324 20.2109C114.788 20.0964 115.264 19.9245 115.754 19.6953V21.5391C115.322 21.7526 114.868 21.9089 114.395 22.0078C113.926 22.1068 113.355 22.1562 112.684 22.1562C111.809 22.1562 111.033 21.9948 110.355 21.6719C109.684 21.349 109.155 20.8568 108.77 20.1953C108.389 19.5339 108.199 18.7005 108.199 17.6953C108.199 16.6745 108.371 15.8255 108.715 15.1484C109.064 14.4661 109.548 13.9557 110.168 13.6172C110.788 13.2734 111.509 13.1016 112.332 13.1016ZM112.348 14.7969C111.884 14.7969 111.499 14.9453 111.191 15.2422C110.889 15.5391 110.715 16.0052 110.668 16.6406H114.012C114.007 16.2865 113.941 15.9714 113.816 15.6953C113.697 15.4193 113.514 15.2005 113.27 15.0391C113.03 14.8776 112.723 14.7969 112.348 14.7969ZM121.363 13.1016C121.993 13.1016 122.582 13.1849 123.129 13.3516C123.676 13.513 124.118 13.7656 124.457 14.1094C124.796 14.4479 124.965 14.8854 124.965 15.4219C124.965 15.9479 124.806 16.3672 124.488 16.6797C124.171 16.987 123.749 17.2083 123.223 17.3438V17.4219C123.592 17.5104 123.926 17.6302 124.223 17.7812C124.525 17.9323 124.764 18.1406 124.941 18.4062C125.118 18.6719 125.207 19.0208 125.207 19.4531C125.207 19.9375 125.053 20.3854 124.746 20.7969C124.439 21.2031 123.967 21.5312 123.332 21.7812C122.702 22.0312 121.892 22.1562 120.902 22.1562C120.434 22.1562 119.991 22.1354 119.574 22.0938C119.163 22.0521 118.785 21.9922 118.441 21.9141C118.098 21.8307 117.798 21.7318 117.543 21.6172V19.6484C117.902 19.8151 118.345 19.9688 118.871 20.1094C119.402 20.25 119.967 20.3203 120.566 20.3203C120.999 20.3203 121.389 20.2891 121.738 20.2266C122.092 20.1641 122.371 20.0599 122.574 19.9141C122.783 19.763 122.887 19.5625 122.887 19.3125C122.887 19.0781 122.796 18.8854 122.613 18.7344C122.436 18.5781 122.163 18.4635 121.793 18.3906C121.428 18.3125 120.965 18.2734 120.402 18.2734H119.48V16.625H120.355C121.147 16.625 121.759 16.5599 122.191 16.4297C122.624 16.2995 122.84 16.0599 122.84 15.7109C122.84 15.4297 122.702 15.2188 122.426 15.0781C122.15 14.9375 121.694 14.8672 121.059 14.8672C120.647 14.8672 120.194 14.9167 119.699 15.0156C119.204 15.1094 118.741 15.2448 118.309 15.4219L117.605 13.7578C118.111 13.5651 118.658 13.4089 119.246 13.2891C119.84 13.1641 120.546 13.1016 121.363 13.1016ZM135.012 17.6172C135.012 18.3464 134.913 18.9922 134.715 19.5547C134.522 20.1172 134.238 20.5938 133.863 20.9844C133.493 21.3698 133.046 21.6615 132.52 21.8594C131.999 22.0573 131.41 22.1562 130.754 22.1562C130.139 22.1562 129.574 22.0573 129.059 21.8594C128.548 21.6615 128.103 21.3698 127.723 20.9844C127.348 20.5938 127.056 20.1172 126.848 19.5547C126.645 18.9922 126.543 18.3464 126.543 17.6172C126.543 16.6484 126.715 15.8281 127.059 15.1562C127.402 14.4844 127.892 13.974 128.527 13.625C129.163 13.276 129.921 13.1016 130.801 13.1016C131.618 13.1016 132.342 13.276 132.973 13.625C133.608 13.974 134.105 14.4844 134.465 15.1562C134.829 15.8281 135.012 16.6484 135.012 17.6172ZM128.973 17.6172C128.973 18.1901 129.035 18.6719 129.16 19.0625C129.285 19.4531 129.48 19.7474 129.746 19.9453C130.012 20.1432 130.358 20.2422 130.785 20.2422C131.207 20.2422 131.548 20.1432 131.809 19.9453C132.074 19.7474 132.267 19.4531 132.387 19.0625C132.512 18.6719 132.574 18.1901 132.574 17.6172C132.574 17.0391 132.512 16.5599 132.387 16.1797C132.267 15.7943 132.074 15.5052 131.809 15.3125C131.543 15.1198 131.197 15.0234 130.77 15.0234C130.139 15.0234 129.681 15.2396 129.395 15.6719C129.113 16.1042 128.973 16.7526 128.973 17.6172ZM139.363 13.2656V16.625H142.691V13.2656H145.074V22H142.691V18.3984H139.363V22H136.98V13.2656H139.363ZM149.957 13.2656V16.625H153.285V13.2656H155.668V22H153.285V18.3984H149.957V22H147.574V13.2656H149.957ZM161.746 13.0859C162.918 13.0859 163.816 13.3411 164.441 13.8516C165.066 14.362 165.379 15.138 165.379 16.1797V22H163.715L163.254 20.8125H163.191C162.941 21.125 162.686 21.3802 162.426 21.5781C162.165 21.776 161.866 21.9219 161.527 22.0156C161.189 22.1094 160.777 22.1562 160.293 22.1562C159.777 22.1562 159.314 22.0573 158.902 21.8594C158.496 21.6615 158.176 21.3594 157.941 20.9531C157.707 20.5417 157.59 20.0208 157.59 19.3906C157.59 18.4635 157.915 17.7812 158.566 17.3438C159.217 16.901 160.194 16.6562 161.496 16.6094L163.012 16.5625V16.1797C163.012 15.7214 162.892 15.3854 162.652 15.1719C162.413 14.9583 162.079 14.8516 161.652 14.8516C161.23 14.8516 160.816 14.9115 160.41 15.0312C160.004 15.151 159.598 15.3021 159.191 15.4844L158.402 13.875C158.866 13.6302 159.384 13.4375 159.957 13.2969C160.535 13.1562 161.132 13.0859 161.746 13.0859ZM163.012 17.9531L162.09 17.9844C161.319 18.0052 160.783 18.1432 160.48 18.3984C160.184 18.6536 160.035 18.9896 160.035 19.4062C160.035 19.7708 160.142 20.0312 160.355 20.1875C160.569 20.3385 160.848 20.4141 161.191 20.4141C161.702 20.4141 162.132 20.263 162.48 19.9609C162.835 19.6589 163.012 19.2292 163.012 18.6719V17.9531ZM169.168 22H166.59L168.941 18.5469C168.645 18.4219 168.366 18.25 168.105 18.0312C167.845 17.8073 167.634 17.526 167.473 17.1875C167.311 16.849 167.23 16.4427 167.23 15.9688C167.23 15.099 167.559 14.4323 168.215 13.9688C168.876 13.5 169.728 13.2656 170.77 13.2656H174.832V22H172.449V18.75H171.137L169.168 22ZM169.566 15.9844C169.566 16.349 169.71 16.6354 169.996 16.8438C170.288 17.0469 170.663 17.1484 171.121 17.1484H172.449V14.9453H170.816C170.389 14.9453 170.074 15.0495 169.871 15.2578C169.668 15.4609 169.566 15.7031 169.566 15.9844ZM102.074 38.1562C101.21 38.1562 100.473 38 99.8633 37.6875C99.2539 37.3698 98.7904 36.8802 98.4727 36.2188C98.1549 35.5573 97.9961 34.7109 97.9961 33.6797C97.9961 32.612 98.1758 31.7422 98.5352 31.0703C98.8997 30.3932 99.4023 29.8958 100.043 29.5781C100.689 29.2604 101.436 29.1016 102.285 29.1016C102.889 29.1016 103.41 29.1615 103.848 29.2812C104.29 29.3958 104.676 29.5339 105.004 29.6953L104.301 31.5391C103.926 31.388 103.577 31.2656 103.254 31.1719C102.931 31.0729 102.608 31.0234 102.285 31.0234C101.868 31.0234 101.522 31.1224 101.246 31.3203C100.97 31.513 100.764 31.8047 100.629 32.1953C100.493 32.5859 100.426 33.0755 100.426 33.6641C100.426 34.2422 100.499 34.7214 100.645 35.1016C100.79 35.4818 101.001 35.7656 101.277 35.9531C101.553 36.1354 101.889 36.2266 102.285 36.2266C102.78 36.2266 103.22 36.1615 103.605 36.0312C103.991 35.8958 104.366 35.7083 104.73 35.4688V37.5078C104.366 37.737 103.983 37.901 103.582 38C103.186 38.1042 102.684 38.1562 102.074 38.1562ZM112.488 29.2656H115.113L111.652 33.4531L115.418 38H112.715L109.145 33.5703V38H106.762V29.2656H109.145V33.5078L112.488 29.2656ZM118.973 29.2656V32.7188C118.973 32.8958 118.965 33.1198 118.949 33.3906C118.939 33.6562 118.923 33.9271 118.902 34.2031C118.882 34.4792 118.861 34.7266 118.84 34.9453C118.819 35.1641 118.803 35.3125 118.793 35.3906L122.824 29.2656H125.691V38H123.387V34.5156C123.387 34.2292 123.397 33.9141 123.418 33.5703C123.439 33.2214 123.462 32.8932 123.488 32.5859C123.514 32.2786 123.533 32.0469 123.543 31.8906L119.527 38H116.668V29.2656H118.973ZM136.051 29.2656V36.2578H137.332V41.1328H135.191V38H129.316V41.1328H127.176V36.2578H127.91C128.296 35.6693 128.618 34.9974 128.879 34.2422C129.145 33.487 129.358 32.6875 129.52 31.8438C129.686 30.9948 129.806 30.1354 129.879 29.2656H136.051ZM133.668 31.0547H131.879C131.796 31.7005 131.689 32.3255 131.559 32.9297C131.434 33.5286 131.277 34.1068 131.09 34.6641C130.902 35.2161 130.673 35.7474 130.402 36.2578H133.668V31.0547ZM144.551 29.2656H147.176L143.715 33.4531L147.48 38H144.777L141.207 33.5703V38H138.824V29.2656H141.207V33.5078L144.551 29.2656ZM152.309 29.0859C153.48 29.0859 154.379 29.3411 155.004 29.8516C155.629 30.362 155.941 31.138 155.941 32.1797V38H154.277L153.816 36.8125H153.754C153.504 37.125 153.249 37.3802 152.988 37.5781C152.728 37.776 152.428 37.9219 152.09 38.0156C151.751 38.1094 151.34 38.1562 150.855 38.1562C150.34 38.1562 149.876 38.0573 149.465 37.8594C149.059 37.6615 148.738 37.3594 148.504 36.9531C148.27 36.5417 148.152 36.0208 148.152 35.3906C148.152 34.4635 148.478 33.7812 149.129 33.3438C149.78 32.901 150.757 32.6562 152.059 32.6094L153.574 32.5625V32.1797C153.574 31.7214 153.454 31.3854 153.215 31.1719C152.975 30.9583 152.642 30.8516 152.215 30.8516C151.793 30.8516 151.379 30.9115 150.973 31.0312C150.566 31.151 150.16 31.3021 149.754 31.4844L148.965 29.875C149.428 29.6302 149.947 29.4375 150.52 29.2969C151.098 29.1562 151.694 29.0859 152.309 29.0859ZM153.574 33.9531L152.652 33.9844C151.882 34.0052 151.345 34.1432 151.043 34.3984C150.746 34.6536 150.598 34.9896 150.598 35.4062C150.598 35.7708 150.704 36.0312 150.918 36.1875C151.132 36.3385 151.41 36.4141 151.754 36.4141C152.264 36.4141 152.694 36.263 153.043 35.9609C153.397 35.6589 153.574 35.2292 153.574 34.6719V33.9531Z" fill="#44B54F"/>
<path d="M8.62891 43L12.4023 24.9531C12.5742 24.2188 12.7227 23.5625 12.8477 22.9844C12.9727 22.4062 13.1055 21.8516 13.2461 21.3203C13.3867 20.7891 13.543 20.2266 13.7148 19.6328C13.4492 19.9609 13.168 20.2891 12.8711 20.6172C12.5898 20.9453 12.293 21.2578 11.9805 21.5547L8.81641 24.5781L5.20703 19.6328L16.7383 8.73438H23.793L16.5039 43H8.62891ZM25.0586 43L39.6133 15.8359H28.668L30.1445 8.78125H49.1055L47.957 14.0547L33.2852 43H25.0586ZM53.6992 43L72.9883 8.73438H78.9414L59.6523 43H53.6992ZM54.9883 29.7578C53.0977 29.7578 51.6602 29.1719 50.6758 28C49.6914 26.8281 49.1992 25.0469 49.1992 22.6562C49.1992 21.5938 49.3164 20.4219 49.5508 19.1406C49.7852 17.8594 50.1445 16.5781 50.6289 15.2969C51.1133 14.0156 51.7305 12.8437 52.4805 11.7812C53.2305 10.7188 54.1211 9.86719 55.1523 9.22656C56.1992 8.57031 57.3945 8.24219 58.7383 8.24219C60.5039 8.24219 61.9102 8.8125 62.957 9.95312C64.0195 11.0938 64.5508 12.9375 64.5508 15.4844C64.5508 16.4531 64.4414 17.5625 64.2227 18.8125C64.0039 20.0625 63.6523 21.3281 63.168 22.6094C62.6992 23.875 62.0898 25.0547 61.3398 26.1484C60.5898 27.2266 59.6914 28.1016 58.6445 28.7734C57.5977 29.4297 56.3789 29.7578 54.9883 29.7578ZM55.7148 24.4609C56.0742 24.4609 56.4102 24.2344 56.7227 23.7812C57.0352 23.3281 57.3164 22.7422 57.5664 22.0234C57.832 21.2891 58.0586 20.5078 58.2461 19.6797C58.4336 18.8516 58.5742 18.0469 58.668 17.2656C58.7773 16.4844 58.832 15.8281 58.832 15.2969C58.832 14.7187 58.7695 14.2969 58.6445 14.0312C58.5195 13.7656 58.3086 13.6328 58.0117 13.6328C57.668 13.6328 57.332 13.8594 57.0039 14.3125C56.6914 14.7656 56.4023 15.3516 56.1367 16.0703C55.8711 16.7891 55.6445 17.5625 55.457 18.3906C55.2695 19.2188 55.1211 20.0156 55.0117 20.7812C54.9023 21.5469 54.8477 22.2031 54.8477 22.75C54.8477 23.3438 54.9258 23.7812 55.082 24.0625C55.2539 24.3281 55.4648 24.4609 55.7148 24.4609ZM74.0664 43.375C72.1445 43.375 70.6914 42.7969 69.707 41.6406C68.7383 40.4688 68.2539 38.6797 68.2539 36.2734C68.2539 34.8828 68.3945 33.5 68.6758 32.125C68.957 30.7344 69.3633 29.4297 69.8945 28.2109C70.4258 26.9766 71.0742 25.8906 71.8398 24.9531C72.6211 24 73.5039 23.25 74.4883 22.7031C75.4727 22.1562 76.5586 21.8828 77.7461 21.8828C79.5117 21.8828 80.918 22.4531 81.9648 23.5938C83.0273 24.7188 83.5586 26.5625 83.5586 29.125C83.5586 30.1406 83.4414 31.2812 83.207 32.5469C82.9883 33.7969 82.6367 35.0625 82.1523 36.3438C81.6836 37.6094 81.0742 38.7734 80.3242 39.8359C79.5742 40.8984 78.6758 41.7578 77.6289 42.4141C76.5977 43.0547 75.4102 43.375 74.0664 43.375ZM74.7695 38.0547C75.1289 38.0547 75.4648 37.8359 75.7773 37.3984C76.0898 36.9609 76.3711 36.3906 76.6211 35.6875C76.8867 34.9688 77.1133 34.2031 77.3008 33.3906C77.4883 32.5625 77.6289 31.7578 77.7227 30.9766C77.832 30.1953 77.8867 29.5156 77.8867 28.9375C77.8867 28.3594 77.8164 27.9375 77.6758 27.6719C77.5352 27.3906 77.3164 27.25 77.0195 27.25C76.6133 27.25 76.2383 27.5078 75.8945 28.0234C75.5664 28.5234 75.2773 29.1719 75.0273 29.9688C74.7773 30.75 74.5664 31.5703 74.3945 32.4297C74.2383 33.2891 74.1133 34.0781 74.0195 34.7969C73.9414 35.5 73.9023 36.0234 73.9023 36.3672C73.9023 36.9453 73.9727 37.375 74.1133 37.6562C74.2695 37.9219 74.4883 38.0547 74.7695 38.0547Z" fill="#44B54F"/>
</svg>
