<svg width="35" height="43" viewBox="0 0 35 43" fill="none" xmlns="http://www.w3.org/2000/svg">
<path d="M0 9.35966L5.22909 18.6674V24.3448L0.00611716 33.6342L0 9.35966Z" fill="#5B57A2"/>
<path d="M20.078 15.2804L24.9778 12.2898L35.0057 12.2804L20.078 21.3871V15.2804Z" fill="#D90751"/>
<path d="M20.0493 9.30484L20.077 21.6279L14.8357 18.4208V0L20.0493 9.30484Z" fill="#FAB718"/>
<path d="M35.0047 12.2804L24.9765 12.2898L20.0493 9.30484L14.8357 0L35.0047 12.2804Z" fill="#ED6F26"/>
<path d="M20.077 33.6858V27.707L14.8357 24.5609L14.8386 43L20.077 33.6858Z" fill="#63B22F"/>
<path d="M24.9652 30.7224L5.22873 18.6674L0 9.35966L34.984 30.7102L24.9652 30.7224Z" fill="#1487C9"/>
<path d="M14.839 43L20.0767 33.6858L24.9643 30.7224L34.9831 30.7102L14.839 43Z" fill="#017F36"/>
<path d="M0.00671387 33.6342L14.8797 24.5612L9.87944 21.5061L5.22969 24.3448L0.00671387 33.6342Z" fill="#984995"/>
</svg>
