<svg width="21" height="21" viewBox="0 0 21 21" fill="none" xmlns="http://www.w3.org/2000/svg">
<path d="M16.1655 0.945068H4.89544C2.65349 0.945068 0.839844 2.75871 0.839844 5.00067V16.2707C0.839844 18.5059 2.65349 20.3196 4.89544 20.3196H6.99686C7.07047 18.4926 7.5724 15.2869 8.26841 13.3126C7.5791 13.4063 6.27408 13.5603 5.89261 13.1252C5.47099 12.6434 5.95953 11.4923 5.31706 11.2179C4.82182 11.0104 3.99197 11.1309 3.89827 10.5687C3.80458 9.97312 3.93843 8.60118 3.12195 8.64803C2.63341 8.6748 1.64293 7.10877 2.25194 6.82769C3.10188 6.23207 7.55902 8.48072 9.55336 9.54481C9.70059 9.26373 9.80767 8.96257 9.6939 8.86218C9.46635 8.64803 8.58296 8.98934 8.43572 6.95485C8.08772 4.82666 9.47305 4.41843 10.0687 4.33812C10.0821 4.33812 10.0887 4.33143 10.1021 4.33143C10.1088 4.33143 10.1222 4.33143 10.1289 4.32473C10.7245 4.24442 12.1701 4.27119 12.3976 6.41946C12.8059 8.42048 11.8555 8.32679 11.6949 8.58779C11.6146 8.71495 11.802 8.97595 12.0095 9.21019C13.6558 7.65755 17.3567 4.29796 18.3271 4.64597C18.9896 4.75974 18.4476 6.52653 17.9724 6.63361C17.176 6.80761 17.6712 8.09256 17.7382 8.69487C17.7984 9.26373 16.9618 9.36411 16.5402 9.69873C15.9981 10.127 16.7745 11.1108 16.5001 11.6864C16.2458 12.2084 14.9474 12.4092 14.2581 12.5029C15.7238 14.611 17.4169 18.5929 17.5909 19.898C17.5976 19.9515 17.5976 20.005 17.5909 20.0586C19.1302 19.4897 20.221 18.004 20.221 16.2707V5.00067C20.221 2.75871 18.4074 0.945068 16.1655 0.945068ZM12.5382 5.38213C12.4445 5.13451 12.3307 4.90697 12.1835 4.71958C12.4646 4.48535 12.6185 4.24442 12.5917 4.03027C12.5181 3.50826 11.3804 3.06656 9.9549 3.26064C8.52942 3.45472 7.54563 4.18419 7.61925 4.69951C7.64602 4.91366 7.86018 5.11444 8.1948 5.26167C8.1011 5.48252 8.05426 5.73014 8.02749 5.99114C7.38502 5.73683 6.9567 5.32859 6.88309 4.79989C6.74254 3.76926 8.04756 2.77209 9.85451 2.53117C11.6615 2.28355 13.1873 2.89925 13.3279 3.92988C13.3948 4.45189 13.0936 4.9672 12.5382 5.38213Z" fill="#959595"/>
</svg>
