<svg width="21" height="22" viewBox="0 0 21 22" fill="none" xmlns="http://www.w3.org/2000/svg">
<path d="M20.3894 18.2987L16.0601 13.9693C16.9546 12.6211 17.4782 11.0069 17.4782 9.27155C17.4782 4.56954 13.6528 0.744141 8.95075 0.744141C4.24874 0.744141 0.42334 4.56954 0.42334 9.27155C0.42334 13.9736 4.24874 17.799 8.95075 17.799C10.6861 17.799 12.3003 17.2754 13.6485 16.3809L17.9779 20.7102C18.643 21.3762 19.7243 21.3762 20.3894 20.7102C21.0554 20.0442 21.0554 18.9647 20.3894 18.2987ZM2.98156 9.27155C2.98156 5.97997 5.65917 3.30237 8.95075 3.30237C12.2423 3.30237 14.9199 5.97997 14.9199 9.27155C14.9199 12.5631 12.2423 15.2407 8.95075 15.2407C5.65917 15.2407 2.98156 12.5631 2.98156 9.27155Z" fill="#44B54F"/>
</svg>
