<svg width="17" height="18" viewBox="0 0 17 18" fill="none" xmlns="http://www.w3.org/2000/svg">
<path d="M16.5978 14.8922L13.1137 11.4081C13.8336 10.3231 14.2549 9.024 14.2549 7.62746C14.2549 3.84344 11.1764 0.764893 7.39236 0.764893C3.60833 0.764893 0.529785 3.84344 0.529785 7.62746C0.529785 11.4115 3.60833 14.49 7.39236 14.49C8.78889 14.49 10.088 14.0687 11.1729 13.3488L14.6571 16.8329C15.1924 17.3689 16.0625 17.3689 16.5978 16.8329C17.1338 16.2969 17.1338 15.4281 16.5978 14.8922ZM2.58856 7.62746C2.58856 4.97851 4.7434 2.82366 7.39236 2.82366C10.0413 2.82366 12.1962 4.97851 12.1962 7.62746C12.1962 10.2764 10.0413 12.4313 7.39236 12.4313C4.7434 12.4313 2.58856 10.2764 2.58856 7.62746Z" fill="white" fill-opacity="0.35"/>
</svg>
