<svg width="20" height="20" viewBox="0 0 20 20" fill="none" xmlns="http://www.w3.org/2000/svg">
<path d="M19.8155 4.6237V15.893C19.8155 17.6262 18.7248 19.1119 17.1856 19.6807C16.7439 19.848 16.2621 19.9417 15.7602 19.9417H4.49089C2.24908 19.9417 0.435547 18.1281 0.435547 15.893V4.6237C0.435547 2.38189 2.24908 0.568359 4.49089 0.568359H15.7602C18.002 0.568359 19.8155 2.38189 19.8155 4.6237Z" fill="#959595"/>
<path d="M15.8661 15.9802H5.05854C4.78135 15.9802 4.55664 16.2049 4.55664 16.4821V17.8941C4.55664 18.1713 4.78135 18.396 5.05854 18.396H15.8661C16.1433 18.396 16.368 18.1713 16.368 17.8941V16.4821C16.368 16.2049 16.1433 15.9802 15.8661 15.9802Z" fill="white"/>
<path d="M10.4602 7.51489C12.963 7.51489 14.9906 9.54257 14.9906 12.0454V16.3885C14.9906 16.529 14.8769 16.6428 14.7363 16.6428H6.18398C6.04345 16.6428 5.92969 16.529 5.92969 16.3885V12.0454C5.92969 9.54257 7.95736 7.51489 10.4602 7.51489Z" fill="white"/>
<path d="M10.459 2.59619V8.96696" stroke="white" stroke-width="2" stroke-miterlimit="10"/>
<path d="M7.89648 4.87817H13.0159" stroke="white" stroke-width="2" stroke-miterlimit="10"/>
</svg>
