<svg width="22" height="23" viewBox="0 0 22 23" fill="none" xmlns="http://www.w3.org/2000/svg">
<path d="M21.9179 8.87406C21.7333 8.32092 21.2665 7.92414 20.7008 7.83771L14.9581 6.97736L12.3731 1.48996C12.1162 0.946254 11.5905 0.608398 11.0005 0.608398C10.4104 0.608398 9.88475 0.946254 9.62782 1.48996L7.08055 6.95772L1.30009 7.83771C0.734376 7.92414 0.26845 8.32092 0.0830228 8.87406C-0.106333 9.44213 0.0335231 10.0581 0.448378 10.4816L4.62914 14.7606L3.6415 20.7917C3.54329 21.3943 3.78686 21.9844 4.27871 22.3309C4.75171 22.6664 5.35985 22.6994 5.86585 22.4205L10.9643 19.5731L16.1351 22.4205C16.6426 22.6994 17.2492 22.6648 17.7222 22.3309C18.2141 21.9844 18.4584 21.3943 18.3594 20.7917L17.3702 14.7527L21.5525 10.4816C21.9674 10.0581 22.1072 9.44213 21.9179 8.87406Z" fill="white"/>
</svg>
