<svg width="20" height="20" viewBox="0 0 20 20" fill="none" xmlns="http://www.w3.org/2000/svg">
<path d="M15.2195 0.220215H4.17114C1.97328 0.220215 0.195312 1.9988 0.195312 4.19742V15.2496C0.195312 17.4416 1.97328 19.2202 4.17114 19.2202H15.2195C15.7115 19.2202 16.1839 19.1283 16.6169 18.9643C18.1259 18.4064 19.1953 16.9494 19.1953 15.2496V4.19742C19.1953 1.9988 17.4173 0.220215 15.2195 0.220215ZM16.2626 14.5998L14.8521 16.2472C14.7209 16.3784 14.5503 16.4572 14.36 16.4637C14.3403 16.4637 14.2419 16.4703 14.091 16.4703C13.0413 16.4703 9.24262 16.2472 6.20498 13.215C2.72777 9.73006 2.94428 5.24094 2.95084 5.05061C2.96396 4.86685 3.04269 4.68964 3.1739 4.55838L4.8141 3.14733C5.12901 2.88481 5.59483 2.91106 5.87038 3.21296L8.67183 6.29759C8.94738 6.59949 8.93426 7.06546 8.63903 7.34768L6.77577 9.16564C6.8545 9.5988 7.13005 10.4782 8.03544 11.3839C8.93426 12.2831 9.81341 12.5587 10.253 12.644L12.0638 10.7736C12.3459 10.4848 12.8182 10.4651 13.12 10.7408L16.197 13.5432C16.4988 13.8188 16.5316 14.2848 16.2626 14.5998Z" fill="#44B54F"/>
</svg>
