<svg width="14" height="16" viewBox="0 0 14 16" fill="none" xmlns="http://www.w3.org/2000/svg">
<path d="M12.758 2.36258H10.3251L9.32098 0.686626C9.03984 0.260682 8.60571 0 8.10957 0H5.1209C4.62476 0 4.16405 0.260682 3.91008 0.686626L2.90539 2.36258H0.472517C0.210418 2.36258 0 2.57315 0 2.8351V3.30762C0 3.57045 0.210418 3.78013 0.472517 3.78013H0.945033V13.2305C0.945033 14.2744 1.79113 15.1205 2.8351 15.1205H10.3954C11.4393 15.1205 12.2854 14.2744 12.2854 13.2305V3.78013H12.758C13.0208 3.78013 13.2305 3.57045 13.2305 3.30762V2.8351C13.2305 2.57315 13.0208 2.36258 12.758 2.36258ZM5.0766 1.5026C5.10613 1.45092 5.1652 1.41755 5.22722 1.41755H8.00325C8.06601 1.41755 8.12507 1.45077 8.15461 1.50246L8.67068 2.36258H4.55979L5.0766 1.5026ZM10.3954 13.703H2.8351C2.57412 13.703 2.36258 13.4914 2.36258 13.2305V3.78013H10.8679V13.2305C10.8679 13.4904 10.6553 13.703 10.3954 13.703ZM6.61523 12.2854C6.87642 12.2854 7.08775 12.0741 7.08775 11.8129V5.6702C7.08775 5.40902 6.87642 5.19768 6.61523 5.19768C6.35405 5.19768 6.14272 5.41032 6.14272 5.6702V11.8129C6.14272 12.0728 6.35535 12.2854 6.61523 12.2854ZM4.25265 12.2854C4.51253 12.2854 4.72517 12.0728 4.72517 11.8129V5.6702C4.72517 5.40902 4.51383 5.19768 4.25265 5.19768C3.99147 5.19768 3.78013 5.41032 3.78013 5.6702V11.8129C3.78013 12.0728 3.99277 12.2854 4.25265 12.2854ZM8.97782 12.2854C9.239 12.2854 9.45033 12.0741 9.45033 11.8129V5.6702C9.45033 5.40902 9.239 5.19768 8.97782 5.19768C8.71663 5.19768 8.5053 5.41032 8.5053 5.6702V11.8129C8.5053 12.0728 8.71793 12.2854 8.97782 12.2854Z" fill="#696969"/>
</svg>
