<svg width="45" height="32" viewBox="0 0 45 32" fill="none" xmlns="http://www.w3.org/2000/svg">
<path d="M28.4042 0C19.6976 0 12.7012 7.17188 12.7012 15.9375C12.7012 24.7754 19.7664 31.875 28.4021 31.875C37.0378 31.875 44.1093 24.7031 44.1093 15.9375C44.1093 7.17188 37.0399 0 28.4042 0ZM28.4042 21.8779C25.1924 21.8779 22.5525 19.1973 22.5525 15.9375C22.5525 12.6778 25.1924 9.99706 28.4042 9.99706C31.616 9.99706 34.2569 12.6778 34.2569 15.9375C34.1849 19.1973 31.616 21.8779 28.4042 21.8779Z" fill="#8B3FFD"/>
<path d="M12.701 4.63037V27.812H7.13726L0 4.63037H12.701Z" fill="#8B3FFD"/>
</svg>
