<svg width="44" height="44" viewBox="0 0 44 44" fill="none" xmlns="http://www.w3.org/2000/svg">
<path d="M0.753906 21.0216C0.753906 11.3007 0.753906 6.44023 3.77382 3.4203C6.79374 0.400391 11.6542 0.400391 21.3752 0.400391H23.0936C32.8145 0.400391 37.675 0.400391 40.6949 3.4203C43.7148 6.44023 43.7148 11.3007 43.7148 21.0216V22.7401C43.7148 32.461 43.7148 37.3215 40.6949 40.3414C37.675 43.3613 32.8145 43.3613 23.0936 43.3613H21.3752C11.6542 43.3613 6.79374 43.3613 3.77382 40.3414C0.753906 37.3215 0.753906 32.461 0.753906 22.7401V21.0216Z" fill="white"/>
<path d="M23.613 31.3503C13.8215 31.3503 8.23663 24.6376 8.00391 13.4678H12.9086C13.0697 21.6661 16.6855 25.1388 19.5496 25.8548V13.4678H24.168V20.5384C26.9963 20.2341 29.9674 17.0121 30.9698 13.4678H35.5883C34.8185 17.8355 31.5965 21.0575 29.3052 22.3821C31.5965 23.4561 35.2662 26.2665 36.6625 31.3503H31.5786C30.4867 27.9492 27.766 25.3178 24.168 24.9598V31.3503H23.613Z" fill="black"/>
</svg>
