<svg width="20" height="20" viewBox="0 0 20 20" fill="none" xmlns="http://www.w3.org/2000/svg">
<g clip-path="url(#clip0_26_328)">
<path d="M14.4905 13.3025L13.4933 14.4703C13.4015 14.5621 13.2768 14.6212 13.1456 14.6212C13.1325 14.6212 13.0603 14.6212 12.9553 14.6212C12.214 14.6212 9.51748 14.4637 7.36554 12.3184C4.89869 9.85151 5.05615 6.66954 5.06271 6.53832C5.06927 6.40711 5.12832 6.28245 5.22017 6.1906L6.38143 5.19336C6.60449 5.00966 6.93253 5.02278 7.12935 5.23929L9.11727 7.42402C9.31409 7.64053 9.30097 7.96857 9.09103 8.16539L7.77231 9.4513C7.83136 9.75966 8.02162 10.3829 8.66457 11.0193C9.30097 11.6557 9.92424 11.8525 10.2326 11.9116L11.5185 10.5863C11.7153 10.3829 12.0499 10.3698 12.2664 10.5601L14.4446 12.548C14.6611 12.7448 14.6808 13.0729 14.4905 13.2959V13.3025Z" fill="#44B54F"/>
<path d="M15.2195 0.220215H4.17114C1.97328 0.220215 0.195312 1.99818 0.195312 4.19604V15.2444C0.195312 17.4357 1.97328 19.2137 4.17114 19.2137H15.2195C15.7115 19.2137 16.1839 19.1218 16.6169 18.9578C18.1259 18.4001 19.1953 16.9436 19.1953 15.2444V4.19604C19.1953 1.99818 17.4173 0.220215 15.2195 0.220215ZM15.5803 14.4505C14.091 16.3007 11.9063 17.2651 9.69531 17.2651C8.12729 17.2651 6.54614 16.7796 5.20774 15.7824L2.8393 16.7271C2.66216 16.7993 2.46534 16.7665 2.321 16.6418C2.17667 16.5172 2.11762 16.3204 2.16354 16.1367L2.93116 13.0662C2.41941 12.023 2.15042 10.8684 2.15042 9.71365C2.15042 7.6995 2.93772 5.80343 4.3614 4.37975C5.78509 2.95606 7.68116 2.16876 9.69531 2.16876H9.70187C11.4208 2.16876 13.1004 2.76579 14.4322 3.84176C17.6732 6.44639 18.1915 11.2095 15.5803 14.4505Z" fill="#44B54F"/>
</g>
<defs>
<clipPath id="clip0_26_328">
<rect width="19" height="18.9934" fill="white" transform="translate(0.195312 0.220215)"/>
</clipPath>
</defs>
</svg>
