<svg width="16" height="17" viewBox="0 0 16 17" fill="none" xmlns="http://www.w3.org/2000/svg">
<path d="M4.26875 4.52079C3.63219 4.70044 3.12437 5.18485 2.91344 5.8136L0 14.5583L0.460937 15.0192L5.12031 10.3286C5.05469 10.1333 4.97191 9.91453 4.97191 9.68422C4.97191 8.8561 5.64378 8.18454 6.47159 8.18454C7.29941 8.18454 7.97128 8.85641 7.97128 9.68422C7.97128 10.512 7.29941 11.1839 6.47159 11.1839C6.24116 11.1839 6.02253 11.1292 5.82722 11.0355L1.13659 15.6949L1.62469 16.1833L10.3684 13.2695C10.9972 13.0586 11.4816 12.5789 11.6612 11.9142L12.9972 7.18297L9.02531 3.2111L4.26875 4.52079ZM15.5594 2.50172L13.6803 0.62266C13.0944 0.0367227 12.1416 0.0370352 11.5559 0.622863L9.79062 2.39193L13.7625 6.3638L15.5316 4.59849C16.1469 4.03954 16.1469 3.08766 15.5594 2.50172Z" fill="#44B54F"/>
</svg>
