<svg width="43" height="43" viewBox="0 0 43 43" fill="none" xmlns="http://www.w3.org/2000/svg">
<path d="M0 20.6213C0 10.9003 0 6.03984 3.01991 3.01991C6.03984 0 10.9003 0 20.6213 0H22.3397C32.0606 0 36.9211 0 39.941 3.01991C42.9609 6.03984 42.9609 10.9003 42.9609 20.6213V22.3397C42.9609 32.0606 42.9609 36.9211 39.941 39.941C36.9211 42.9609 32.0606 42.9609 22.3397 42.9609H20.6213C10.9003 42.9609 6.03984 42.9609 3.01991 39.941C0 36.9211 0 32.0606 0 22.3397V20.6213Z" fill="white"/>
<path d="M34.4355 14.9671C34.1244 13.7986 33.2108 12.8803 32.0484 12.5675C29.9437 12 21.5 12 21.5 12C21.5 12 13.0564 12 10.9516 12.5675C9.78919 12.8803 8.8757 13.7986 8.56454 14.9671C8 17.0829 8 21.5 8 21.5C8 21.5 8 25.9171 8.56454 28.033C8.8757 29.2015 9.78919 30.1197 10.9516 30.4325C13.0564 31 21.5 31 21.5 31C21.5 31 29.9437 31 32.0484 30.4325C33.2108 30.1197 34.1244 29.2015 34.4355 28.033C35.0001 25.9171 35.0001 21.5 35.0001 21.5C35.0001 21.5 34.9978 17.0829 34.4355 14.9671Z" fill="black"/>
<path d="M18.7974 25.5711L25.812 21.5004L18.7974 17.4296V25.5711Z" fill="white"/>
</svg>
