<svg width="43" height="43" viewBox="0 0 43 43" fill="none" xmlns="http://www.w3.org/2000/svg">
<path d="M0 20.6213C0 10.9003 0 6.03984 3.01991 3.01991C6.03984 0 10.9003 0 20.6213 0H22.3397C32.0606 0 36.9211 0 39.941 3.01991C42.9609 6.03984 42.9609 10.9003 42.9609 20.6213V22.3397C42.9609 32.0606 42.9609 36.9211 39.941 39.941C36.9211 42.9609 32.0606 42.9609 22.3397 42.9609H20.6213C10.9003 42.9609 6.03984 42.9609 3.01991 39.941C0 36.9211 0 32.0606 0 22.3397V20.6213Z" fill="white"/>
<path d="M37.5602 21.5548C37.5602 21.3912 37.4272 21.2558 37.2635 21.2481C31.3918 21.0257 27.8183 20.2767 25.3183 17.7767C22.8131 15.2716 22.0667 11.6954 21.8443 5.81089C21.8391 5.64729 21.7037 5.51438 21.5375 5.51438H20.8524C20.6888 5.51438 20.5533 5.64729 20.5457 5.81089C20.3233 11.6928 19.5769 15.2716 17.0717 17.7767C14.5692 20.2793 10.9981 21.0257 5.1264 21.2481C4.9628 21.2532 4.82988 21.3887 4.82988 21.5548V22.2399C4.82988 22.4035 4.9628 22.539 5.1264 22.5467C10.9981 22.769 14.5717 23.518 17.0717 26.0181C19.5717 28.5181 20.3182 32.0841 20.5431 37.9454C20.5482 38.109 20.6837 38.242 20.8499 38.242H21.5375C21.7011 38.242 21.8366 38.109 21.8443 37.9454C22.0692 32.0841 22.8156 28.5181 25.3157 26.0181C27.8183 23.5155 31.3892 22.769 37.261 22.5467C37.4246 22.5415 37.5576 22.4061 37.5576 22.2399V21.5548H37.5602Z" fill="black"/>
</svg>
