<svg width="44" height="44" viewBox="0 0 44 44" fill="none" xmlns="http://www.w3.org/2000/svg">
<path d="M22.1084 43.3613H22.2797C30.8111 43.3613 35.7631 42.5024 39.2708 39.0969C42.8474 35.4846 43.6733 30.4991 43.6733 22.001V21.7607C43.6733 13.2651 42.8474 8.31304 39.2708 4.66478C35.7656 1.2594 30.7779 0.400391 22.2822 0.400391H22.1109C13.5796 0.400391 8.62493 1.2594 5.1173 4.66478C1.54062 8.27724 0.714844 13.2651 0.714844 21.7607V22.001C0.714844 30.4966 1.54062 35.4488 5.1173 39.0969C8.59171 42.5024 13.5796 43.3613 22.1084 43.3613Z" fill="white"/>
<path d="M38.5604 21.5549C38.5604 21.3913 38.4274 21.2558 38.2637 21.2481C32.392 21.0257 28.8185 20.2767 26.3185 17.7767C23.8133 15.2716 23.0668 11.6954 22.8445 5.81092C22.8393 5.64732 22.7038 5.5144 22.5377 5.5144H21.8526C21.689 5.5144 21.5535 5.64732 21.5459 5.81092C21.3235 11.6928 20.5771 15.2716 18.0719 17.7767C15.5694 20.2793 11.9983 21.0257 6.12659 21.2481C5.96299 21.2532 5.83008 21.3887 5.83008 21.5549V22.2399C5.83008 22.4035 5.96299 22.539 6.12659 22.5467C11.9983 22.7691 15.5719 23.5181 18.0719 26.0181C20.5719 28.5181 21.3184 32.0842 21.5433 37.9454C21.5484 38.1091 21.6839 38.242 21.8501 38.242H22.5377C22.7013 38.242 22.8368 38.1091 22.8445 37.9454C23.0694 32.0842 23.8158 28.5181 26.3159 26.0181C28.8185 23.5155 32.3894 22.7691 38.2612 22.5467C38.4248 22.5416 38.5578 22.4061 38.5578 22.2399V21.5549H38.5604Z" fill="black"/>
</svg>
