<svg width="27" height="14" fill="none" xmlns="http://www.w3.org/2000/svg"><path d="M3.434.476L.364 4.772a.342.342 0 00.278.54l8.677.009L12.955.193h-8.97a.677.677 0 00-.551.283zM26.259 4.8L23.169.476a.678.678 0 00-.55-.283h-8.967l3.626 5.14 8.702.008a.342.342 0 00.279-.54z" fill="#fff"/><path d="M16.374 6.399L13.98 3.002v10.46h8.64a.877.877 0 00.877-.877V6.692l-6.57-.007a.677.677 0 01-.552-.286zm-6.705.276h-.001l-6.56.005v5.905a.877.877 0 00.877.877h8.64V2.998l-2.404 3.391a.678.678 0 01-.552.286z" fill="#fff"/></svg>