<svg width="20" height="21" fill="none" xmlns="http://www.w3.org/2000/svg"><path d="M15.758.946H4.488A4.053 4.053 0 00.435 5v11.27a4.051 4.051 0 004.055 4.048h11.27c.501 0 .983-.094 1.425-.26a4.036 4.036 0 002.63-3.789V5.001A4.053 4.053 0 0015.758.946zM9.495 15.575c-.743.742-2.242.89-3.28.89H5.192a.611.611 0 01-.61-.61c0-.334.275-.608.61-.629.609 0 .977-.38.936-.876a1.966 1.966 0 01.563-1.566 1.948 1.948 0 011.224-.562l2.115 1.686a1.957 1.957 0 01-.535 1.667zm5.353-8.325l-2.79 4.41a1.722 1.722 0 01-1.051.75l-2.101-1.68a1.706 1.706 0 01.575-1.285l3.908-3.447a1 1 0 01.703-.24c.26.02.495.133.67.334a.987.987 0 01.086 1.158z" fill="#959595"/></svg>