<svg width="48" height="48" fill="none" xmlns="http://www.w3.org/2000/svg"><g clip-path="url(#clip0_238_9721)" fill-rule="evenodd" clip-rule="evenodd"><path opacity=".995" d="M47.953 11.953v1.969h-48v-1.969C.52 9.746 1.927 8.417 4.172 7.97c13.187-.063 26.375-.063 39.562 0 2.246.448 3.652 1.776 4.22 3.984z" fill="#2196F3"/><path d="M-.047 13.922h48v8.062h-48v-8.062z" fill="#445A65"/><path opacity=".998" d="M-.047 21.984h48v13.97c-.567 2.207-1.973 3.535-4.219 3.983-13.187.063-26.375.063-39.562 0C1.927 39.49.52 38.161-.047 35.953V21.984z" fill="#2196F3"/><path d="M6.516 27.984c2.937-.015 5.875 0 8.812.047.684.367.824.883.422 1.547-.169.17-.372.28-.61.328-2.843.063-5.687.063-8.53 0-.833-.602-.864-1.242-.094-1.922z" fill="#F9F9F9"/><path d="M6.703 31.922c4.813-.016 9.625 0 14.438.047.77.332.958.879.562 1.64-.153.169-.34.278-.562.328a555.87 555.87 0 01-14.438 0c-.755-.368-.927-.915-.516-1.64.17-.139.342-.264.516-.375z" fill="#F4F7F9"/></g><defs><clipPath id="clip0_238_9721"><path fill="#fff" d="M0 0h48v48H0z"/></clipPath></defs></svg>