<svg width="23" height="23" fill="none" xmlns="http://www.w3.org/2000/svg"><path d="M7.542 9.644a.94.94 0 00.94-.94V5.037a2.977 2.977 0 012.974-2.974 2.978 2.978 0 012.974 2.974v3.667a.94.94 0 001.88 0V5.037A4.86 4.86 0 0011.456.182a4.86 4.86 0 00-4.854 4.855v3.667c0 .52.42.94.94.94z" fill="#fff"/><path d="M22.244 7.531h-4.992v1.173c0 1.037-.843 1.88-1.88 1.88a1.883 1.883 0 01-1.881-1.88V7.531H9.424v1.173c0 1.037-.843 1.88-1.88 1.88a1.883 1.883 0 01-1.881-1.88V7.531H.616c-.26 0-.42.205-.359.457l3.29 13.399c.199.753.992 1.363 1.77 1.363h12.225c.78 0 1.571-.61 1.77-1.363l3.29-13.399c.061-.252-.098-.457-.358-.457z" fill="#fff"/></svg>