<svg width="35" height="35" fill="none" xmlns="http://www.w3.org/2000/svg"><circle cx="17.5" cy="17.5" r="17.5" fill="#3F53BA" fill-opacity=".07"/><g clip-path="url(#clip0_238_9287)"><path d="M24 14.435c-2.405 2.5-4.79 5.021-7.194 7.543l-.871.913c-.145.153-.228.153-.373 0a917.5 917.5 0 00-4.458-4.695c-.145-.152-.145-.24 0-.392l.995-1.043c.145-.152.228-.152.373 0l3.173 3.326c.041.043.062.087.083.13a.553.553 0 01.124-.108l6.635-6.957c.186-.195.248-.195.435 0l.933.978c.042.044.104.11.145.174v.13z" fill="#3F53BA"/></g><defs><clipPath id="clip0_238_9287"><path fill="#fff" transform="translate(11 13)" d="M0 0h13v10H0z"/></clipPath></defs></svg>