<svg width="21" height="21" fill="none" xmlns="http://www.w3.org/2000/svg"><path d="M7.229 8.552a.83.83 0 00.829-.829V4.49a2.625 2.625 0 012.621-2.622 2.625 2.625 0 012.622 2.622v3.233a.83.83 0 001.658 0V4.49c0-2.36-1.92-4.28-4.28-4.28A4.285 4.285 0 006.4 4.49v3.233a.83.83 0 00.83.83z" fill="#44B54F"/><path d="M20.19 6.69h-4.4v1.033a1.66 1.66 0 01-1.658 1.658 1.66 1.66 0 01-1.658-1.658V6.69H8.888v1.034A1.66 1.66 0 017.23 9.381a1.66 1.66 0 01-1.658-1.658V6.69h-4.45c-.228 0-.37.18-.315.403l2.9 11.812c.175.664.874 1.203 1.56 1.203h10.778c.687 0 1.385-.539 1.561-1.203l2.9-11.812c.054-.223-.087-.403-.316-.403z" fill="#44B54F"/></svg>