<svg width="21" height="20" fill="none" xmlns="http://www.w3.org/2000/svg"><path d="M10.002.507a.795.795 0 00-.394.417c-.037.094-.051 1.89-.051 5.766v5.634L8 10.768c-.857-.858-1.622-1.58-1.692-1.603a.755.755 0 00-.919.323c-.107.193-.13.507-.046.67.075.146 4.49 4.571 4.645 4.655a.834.834 0 00.637 0c.07-.037 1.135-1.078 2.363-2.31 2.414-2.42 2.344-2.34 2.269-2.757-.043-.215-.291-.469-.535-.539-.408-.126-.431-.108-2.128 1.585l-1.537 1.528-.01-5.7C11.033.943 11.033.915 10.935.788a1.201 1.201 0 00-.216-.22c-.16-.117-.53-.15-.717-.06z" fill="#BCBCBC"/><path d="M.435 12.554a.782.782 0 00-.399.492c-.033.117-.042.694-.033 1.763.02 1.575.024 1.598.15 2.015.324 1.064 1.008 1.875 1.974 2.344.839.408.117.375 8.18.375 8.062 0 7.34.033 8.18-.375a3.786 3.786 0 002-2.437c.09-.343.104-.516.118-1.993.019-1.612.019-1.617-.09-1.823-.14-.272-.304-.39-.59-.417a.723.723 0 00-.707.365c-.094.17-.099.24-.099 1.622 0 1.622-.033 1.89-.29 2.377-.193.365-.596.769-.929.933-.576.286-.182.271-7.593.271-7.407 0-6.999.015-7.585-.271-.356-.17-.76-.577-.942-.943-.253-.496-.286-.754-.286-2.367 0-1.383-.005-1.453-.098-1.622-.183-.323-.61-.459-.961-.309z" fill="#BCBCBC"/></svg>