<svg width="15" height="20" fill="none" xmlns="http://www.w3.org/2000/svg"><g clip-path="url(#clip0_180_4278)"><path d="M2.025 19.5c-.15-.077-.3-.077-.45-.154-.9-.31-1.5-1.159-1.5-2.163v-.154C0 12.317 0 7.683 0 2.972 0 1.89.6.963 1.575.654 1.8.577 2.1.5 2.325.5h7.65c.3 0 .45.077.675.309l4.2 4.325c.075.077.15.155.15.31V16.95c0 1.468-.975 2.395-1.95 2.472h-.075C9.3 19.5 5.7 19.5 2.025 19.5zm7.2-17.841H2.4c-.825 0-1.275.463-1.275 1.313v13.98c0 .849.45 1.312 1.275 1.312h10.125c.825 0 1.275-.463 1.275-1.313V6.37h-2.25c-1.35 0-2.325-1.004-2.325-2.394V1.66zm4.575 3.63l-3.375-3.476V4.13c0 .618.525 1.081 1.125 1.159h2.25z" fill="#3F53BA"/></g><defs><clipPath id="clip0_180_4278"><path fill="#fff" transform="translate(0 .5)" d="M0 0h15v19H0z"/></clipPath></defs></svg>