<svg width="17" height="16" fill="none" xmlns="http://www.w3.org/2000/svg"><path d="M1.336 5.52h0-.005a.942.942 0 00-.785.642.935.935 0 00.261.983l2.239 2.04.861.783.133.121-.036.177a1630.655 1630.655 0 00-.849 4.106h0l-.001.007a.936.936 0 001.382.999v-.001l2.633-1.499 1.012-.577.156-.09.157.09 1.012.577 2.63 1.5h0l.007.003a.94.94 0 001.01-.06.94.94 0 00.368-.944h0l-.001-.004-.612-2.966-.235-1.14-.037-.177.134-.122.861-.783 2.239-2.037h0l.005-.005a.938.938 0 00-.53-1.622h-.003c-.926-.104-2.084-.233-3.01-.335l-1.157-.129-.18-.02-.075-.165-.48-1.06-1.246-2.76h0l-.004-.008a.938.938 0 00-1.706.008h0l-1.248 2.76-.479 1.06-.074.165-.18.02-1.157.128-3.01.334z" fill="#fff" stroke="#44B54F"/></svg>