<svg width="51" height="51" fill="none" xmlns="http://www.w3.org/2000/svg"><g clip-path="url(#clip0_262_10885)" fill-rule="evenodd" clip-rule="evenodd"><path opacity=".995" d="M23.458-.05h3.984c9.155.998 16.011 5.48 20.57 13.447a26.988 26.988 0 012.938 9.862v4.383c-.922 8.139-4.74 14.53-11.455 19.174a26.952 26.952 0 01-12.053 4.134h-3.984c-9.154-.997-16.01-5.48-20.57-13.447A26.988 26.988 0 01-.05 27.642v-4.383c.923-8.14 4.741-14.53 11.455-19.175A26.95 26.95 0 0123.458-.05z" fill="#E04F5F"/><path d="M17.183 13.497a.491.491 0 01.299.05 895.802 895.802 0 007.968 7.919 897.16 897.16 0 007.969-7.92.25.25 0 01.299 0l3.635 3.637c.067.1.067.199 0 .299a897.157 897.157 0 00-7.918 7.968 898.519 898.519 0 007.918 7.969c.067.1.067.2 0 .299l-3.635 3.635c-.1.067-.2.067-.299 0a897.16 897.16 0 00-7.969-7.918 895.802 895.802 0 00-7.968 7.918c-.1.067-.2.067-.3 0l-3.635-3.635a.249.249 0 010-.299 897.16 897.16 0 007.919-7.969 895.802 895.802 0 00-7.92-7.968.25.25 0 010-.3 189.727 189.727 0 003.637-3.685z" fill="#FEFEFE"/></g><defs><clipPath id="clip0_262_10885"><path fill="#fff" d="M0 0h51v51H0z"/></clipPath></defs></svg>