<svg width="20" height="20" fill="none" xmlns="http://www.w3.org/2000/svg"><g clip-path="url(#clip0_5_3676)"><path d="M19.816 4.497v11.27a4.036 4.036 0 01-2.63 3.787 4.023 4.023 0 01-1.426.261H4.49a4.051 4.051 0 01-4.054-4.049V4.497A4.053 4.053 0 014.49.442h11.27a4.053 4.053 0 014.055 4.055z" fill="#959595"/><path d="M10.127 12.5c1.94 0 3.513-1.887 3.513-4.215 0-2.329-1.573-4.216-3.513-4.216S6.613 5.956 6.613 8.285c0 2.328 1.573 4.216 3.514 4.216zm6.885 3.581c-.629-1.265-1.827-2.322-3.373-2.951-.421-.14-.916-.14-1.264.073a4.177 4.177 0 01-2.249.63c-.843 0-1.546-.215-2.248-.63-.348-.14-.843-.214-1.265 0-1.546.63-2.744 1.687-3.373 2.952-.488.91.281 1.967 1.339 1.967h11.095c1.05 0 1.827-1.057 1.332-2.034l.006-.007z" fill="#fff"/></g><defs><clipPath id="clip0_5_3676"><path fill="#fff" transform="translate(.436 .442)" d="M0 0h19.38v19.373H0z"/></clipPath></defs></svg>