<svg width="16" height="17" fill="none" xmlns="http://www.w3.org/2000/svg"><path d="M11.738 5.182a1.8 1.8 0 01-1.819-1.818V.82c0-.437-.29-.727-.727-.727H3.374A2.916 2.916 0 00.464 3v10.181c0 1.6 1.31 2.91 2.91 2.91H12.1c1.6 0 2.91-1.31 2.91-2.91V5.91c0-.437-.292-.728-.728-.728h-2.545zm-2.546 6.546H4.828c-.436 0-.727-.291-.727-.727 0-.437.291-.728.727-.728h4.364c.436 0 .727.291.727.728 0 .436-.29.727-.727.727zm1.455-2.91H4.828c-.436 0-.727-.29-.727-.726 0-.437.291-.728.727-.728h5.819c.436 0 .727.291.727.728 0 .436-.291.727-.727.727z" fill="#44B54F"/></svg>