<svg width="15" height="17" fill="none" xmlns="http://www.w3.org/2000/svg"><path d="M11.73 5.918A1.8 1.8 0 019.912 4.1V1.554c0-.436-.291-.727-.727-.727H3.366c-1.6 0-2.909 1.31-2.909 2.91v10.181c0 1.6 1.31 2.91 2.91 2.91h8.727c1.6 0 2.909-1.31 2.909-2.91V6.645c0-.436-.291-.727-.728-.727H11.73zm-2.545 6.545H4.82c-.436 0-.727-.29-.727-.727 0-.436.29-.727.727-.727h4.364c.436 0 .727.29.727.727s-.291.727-.727.727zm1.454-2.909H4.821c-.436 0-.727-.29-.727-.727 0-.436.29-.727.727-.727h5.818c.437 0 .727.29.727.727s-.29.727-.727.727z" fill="#fff"/></svg>