<svg width="20" height="20" fill="none" xmlns="http://www.w3.org/2000/svg"><path d="M19.814 4.37v11.27a4.04 4.04 0 01-1.921 3.44l-3.594-3.808a1.528 1.528 0 01-.388-1.433l.877-3.366c.16-.642.08-1.318-.241-1.914l-2.49-4.63a.5.5 0 00-.441-.248.5.5 0 00-.341.127.416.416 0 00-.14.308v3.205a1.3 1.3 0 01.943.114c.428.234.696.683.696 1.165v1.693c0 .408.113.783.328 1.09.147.221.254.268.28.268v.763c-.327 0-.635-.2-.91-.595a2.635 2.635 0 01-.461-1.526V8.6a.554.554 0 00-.877-.448v7.488c0 .207.054.415.167.602l2.068 3.446H7.795l2.068-3.446c.113-.188.167-.395.167-.602V8.15a.554.554 0 00-.877.449v1.693c0 .569-.16 1.097-.461 1.526-.275.394-.583.595-.91.595v-.763s.133-.047.28-.268c.215-.307.328-.682.328-1.09V8.6c0-.482.268-.93.696-1.165a1.3 1.3 0 01.944-.114V4.116a.416.416 0 00-.14-.308.5.5 0 00-.342-.127.5.5 0 00-.442.248l-2.489 4.63a2.654 2.654 0 00-.24 1.914l.876 3.366a1.528 1.528 0 01-.388 1.432L2.97 19.395A4.053 4.053 0 01.434 15.64V4.37A4.053 4.053 0 014.489.315h11.27a4.053 4.053 0 014.055 4.055z" fill="#959595"/></svg>