<svg width="21" height="21" fill="none" xmlns="http://www.w3.org/2000/svg"><g clip-path="url(#clip0_26_2426)"><path fill-rule="evenodd" clip-rule="evenodd" d="M10.656.86c-5.634 0-10 4.126-10 9.7 0 2.915 1.195 5.434 3.14 7.175.164.147.262.35.27.57l.055 1.778a.801.801 0 001.122.709l1.984-.876a.797.797 0 01.533-.04c.912.252 1.884.384 2.896.384 5.634 0 10-4.127 10-9.7 0-5.574-4.366-9.7-10-9.7zm.11 16.725a1.43 1.43 0 01-.525.1 1.474 1.474 0 01-1.266-.742 1.546 1.546 0 011.019-2.231 1.405 1.405 0 011.644 1.097 1.483 1.483 0 01-.873 1.776zm3.378-8.584a5.5 5.5 0 01-1.792 1.9c-.19.142-.356.266-.512.399a1.44 1.44 0 00-.503.698 1.413 1.413 0 01-2.555 1.21c-.635-1.297-.152-2.892 1.232-4.065.203-.172.41-.329.641-.502a3.4 3.4 0 00.97-.913.794.794 0 00-.037-.65.988.988 0 00-.573-.56.804.804 0 00-.23-.03 1.355 1.355 0 00-1.214.89 1.413 1.413 0 11-2.696-.851 4.186 4.186 0 013.9-2.868c.34 0 .68.047 1.008.139a3.807 3.807 0 012.392 2.142 3.583 3.583 0 01-.03 3.06z" fill="#44B54F"/></g><defs><clipPath id="clip0_26_2426"><path fill="#fff" transform="translate(.656 .86)" d="M0 0h20v20H0z"/></clipPath></defs></svg>