<svg width="43" height="43" fill="none" xmlns="http://www.w3.org/2000/svg"><path d="M0 20.621C0 10.901 0 6.04 3.02 3.02 6.04 0 10.9 0 20.62 0h1.719C32.06 0 36.92 0 39.94 3.02c3.02 3.02 3.02 7.88 3.02 17.601v1.719c0 9.72 0 14.581-3.02 17.601-3.02 3.02-7.88 3.02-17.601 3.02H20.62c-9.72 0-14.581 0-17.601-3.02C0 36.921 0 32.061 0 22.34v-1.72z" fill="#fff"/><path d="M21.507 11c1.554.028 3.108.042 4.661.084 1.351.042 2.653.28 3.822 1.007 1.512.937 2.436 2.3 2.737 4.042.175 1.042.238 2.119.259 3.175.035 2.272.02 4.545 0 6.818-.014 1.217-.056 2.433-.462 3.601-.777 2.224-2.352 3.56-4.64 3.993-1.03.196-2.1.238-3.157.259-2.29.035-4.585.021-6.88 0-1.198-.014-2.402-.056-3.557-.462-2.225-.776-3.57-2.335-4.01-4.622-.196-1.035-.245-2.112-.26-3.175a277.07 277.07 0 010-6.818c.015-1.224.057-2.44.47-3.608.777-2.217 2.345-3.56 4.633-3.993 1.03-.196 2.1-.217 3.157-.259 1.071-.042 2.149-.007 3.227-.007V11zm9.456 11.51h-.042c0-.972.028-1.944-.007-2.916s-.063-1.944-.196-2.902c-.252-1.776-1.407-3-3.178-3.328-1.022-.19-2.085-.224-3.128-.245a179.015 179.015 0 00-5.817 0c-.98.014-1.967.049-2.933.203-1.659.258-2.8 1.21-3.247 2.86a8.368 8.368 0 00-.266 1.909c-.05 1.93-.07 3.86-.063 5.783.007 1.392.042 2.783.154 4.168.16 1.909 1.344 3.259 3.226 3.622 1.022.196 2.086.231 3.13.245 1.938.035 3.877.028 5.816.007a27.227 27.227 0 002.61-.147c.82-.084 1.59-.35 2.247-.867 1.078-.853 1.484-2.028 1.547-3.336.084-1.685.098-3.37.147-5.055z" fill="#000"/><path d="M21.507 28.413c-3.22.007-5.873-2.616-5.922-5.77-.049-3.35 2.66-6.035 5.88-6.035 3.248.007 5.893 2.609 5.942 5.77.056 3.328-2.631 6.056-5.9 6.035zm0-2.077c2.1-.007 3.829-1.735 3.822-3.832-.007-2.098-1.736-3.826-3.836-3.819-2.107.007-3.829 1.735-3.822 3.832 0 2.098 1.736 3.826 3.836 3.819zM27.631 15a1.36 1.36 0 011.386 1.378c0 .762-.602 1.377-1.364 1.384a1.41 1.41 0 01-1.407-1.377c-.007-.763.616-1.378 1.386-1.385z" fill="#000"/></svg>