<svg width="23" height="22" fill="none" xmlns="http://www.w3.org/2000/svg"><path d="M7.701 6.754l-7.1.77a.675.675 0 00-.568.452c-.085.255 0 .52.189.687 2.11 1.884 5.282 4.705 5.282 4.705-.003 0-.87 4.103-1.448 6.841a.657.657 0 00.265.667.68.68 0 00.725.037c2.485-1.381 6.208-3.459 6.208-3.459s3.724 2.078 6.206 3.46c.226.121.51.119.729-.038a.653.653 0 00.263-.666c-.577-2.739-1.444-6.842-1.444-6.842s3.172-2.821 5.283-4.701a.655.655 0 00.188-.69.67.67 0 00-.566-.45c-2.841-.311-7.102-.773-7.102-.773L11.87.388A.683.683 0 0011.254 0a.673.673 0 00-.61.388C9.464 2.934 7.7 6.754 7.7 6.754z" fill="#44B54F"/><path d="M8.571 7.883l-5.362.586a.51.51 0 00-.428.345.493.493 0 00.142.523c1.594 1.435 3.99 3.585 3.99 3.585-.003 0-.658 3.126-1.094 5.212a.503.503 0 00.747.536c1.877-1.052 4.689-2.635 4.689-2.635s2.812 1.583 4.686 2.636c.17.093.385.09.55-.029a.5.5 0 00.199-.507L15.6 12.92l3.989-3.581a.502.502 0 00.142-.526.506.506 0 00-.427-.343c-2.146-.237-5.363-.588-5.363-.588l-2.222-4.851a.515.515 0 00-.464-.295.508.508 0 00-.462.295c-.89 1.94-2.222 4.85-2.222 4.85z" fill="#fff"/></svg>