<svg width="102" height="18" fill="none" xmlns="http://www.w3.org/2000/svg"><path d="M97.32 5.918h-1.476V4.064h1.476V.698h2.052v3.366h1.692v1.854h-1.692V14H97.32V5.918zM85.808 4.064h1.926v1.062c.42-.456.858-.786 1.314-.99.456-.204.99-.306 1.602-.306 1.344 0 2.34.402 2.988 1.206.648.792.972 2.016.972 3.672V14h-2.034V9.032c0-1.164-.186-2.01-.558-2.538-.36-.528-.936-.792-1.728-.792-.828 0-1.446.276-1.854.828-.396.54-.594 1.386-.594 2.538V14h-2.034V4.064zm-1.831 6.894c-.156.48-.396.924-.72 1.332a4.96 4.96 0 01-1.098 1.026c-.42.288-.882.516-1.386.684a5.266 5.266 0 01-1.566.234 5.528 5.528 0 01-2.106-.396 5.213 5.213 0 01-1.692-1.098 5.358 5.358 0 01-1.116-1.638 5.098 5.098 0 01-.414-2.052c0-.732.132-1.416.396-2.052a5.299 5.299 0 011.116-1.656 5.105 5.105 0 011.638-1.098 5.098 5.098 0 012.052-.414c.732 0 1.41.138 2.034.414.636.264 1.182.63 1.638 1.098a5.01 5.01 0 011.098 1.674c.264.636.396 1.326.396 2.07 0 .168-.012.312-.036.432-.012.108-.03.234-.054.378h-8.118c.12.732.462 1.326 1.026 1.782.576.456 1.272.684 2.088.684 1.14 0 2.01-.468 2.61-1.404h2.214zm-1.764-2.88c-.18-.756-.54-1.338-1.08-1.746-.54-.42-1.218-.63-2.034-.63-.792 0-1.458.21-1.998.63-.54.408-.906.99-1.098 1.746h6.21zM57.454 4.064h1.908v1.008c.36-.456.738-.774 1.134-.954.408-.192.912-.288 1.512-.288.72 0 1.314.132 1.782.396.48.264.9.69 1.26 1.278.408-.576.87-.996 1.386-1.26.516-.276 1.14-.414 1.872-.414 1.308 0 2.298.372 2.97 1.116.684.744 1.026 1.83 1.026 3.258V14h-2.052V8.456c0-1.836-.702-2.754-2.106-2.754-1.5 0-2.25 1.038-2.25 3.114V14h-2.034V8.438c0-1.824-.726-2.736-2.178-2.736-.756 0-1.314.252-1.674.756-.348.504-.522 1.29-.522 2.358V14h-2.034V4.064zm-3.971 8.784c-.42.504-.852.864-1.296 1.08-.444.204-.996.306-1.656.306-1.308 0-2.292-.402-2.952-1.206-.648-.816-.972-2.022-.972-3.618V4.064h2.034v5.022c0 1.14.174 1.974.522 2.502.36.516.93.774 1.71.774.864 0 1.494-.276 1.89-.828.408-.552.612-1.434.612-2.646V4.064h2.034V14h-1.926v-1.152zm-16.812 1.8c.396.54.81.918 1.242 1.134.432.228.978.342 1.638.342.996 0 1.752-.276 2.268-.828.528-.54.792-1.338.792-2.394v-.45c-.444.624-.936 1.08-1.476 1.368-.54.276-1.194.414-1.962.414a4.99 4.99 0 01-1.998-.396 4.937 4.937 0 01-1.566-1.08 5.282 5.282 0 01-1.026-1.656 5.76 5.76 0 01-.378-2.106c0-.744.126-1.428.378-2.052a5.063 5.063 0 011.026-1.638 4.937 4.937 0 011.566-1.08 4.945 4.945 0 011.98-.396c1.488 0 2.64.552 3.456 1.656V4.064h1.962v8.082c0 3.864-1.692 5.796-5.076 5.796-1.236 0-2.292-.288-3.168-.864-.876-.564-1.512-1.374-1.908-2.43h2.25zm2.718-2.286c.468 0 .894-.078 1.278-.234.384-.168.714-.402.99-.702.288-.3.504-.654.648-1.062.156-.408.234-.864.234-1.368 0-.48-.078-.918-.234-1.314a2.94 2.94 0 00-.666-1.044c-.288-.3-.63-.528-1.026-.684a3.331 3.331 0 00-1.314-.252 2.94 2.94 0 00-1.224.252 2.754 2.754 0 00-.972.684 3.46 3.46 0 00-.63 1.062c-.144.396-.216.84-.216 1.332 0 .492.072.942.216 1.35.156.408.372.762.648 1.062.276.288.606.516.99.684.384.156.81.234 1.278.234zM28.872 4.064h1.908V5.18c.156-.252.312-.462.468-.63.156-.168.33-.3.522-.396.192-.108.408-.186.648-.234.24-.048.522-.078.846-.09v1.98c-1.572.06-2.358.918-2.358 2.574V14h-2.034V4.064zM20.263.698h1.8L27.697 14h-2.304l-1.584-3.78h-5.22L16.951 14h-2.286L20.263.698zm2.7 7.542l-1.8-4.716-1.818 4.716h3.618z" fill="#363636"/><path d="M4.72 4.064h1.926v1.062c.42-.456.858-.786 1.314-.99.456-.204.99-.306 1.602-.306 1.344 0 2.34.402 2.988 1.206.648.792.972 2.016.972 3.672V14h-2.034V9.032c0-1.164-.186-2.01-.558-2.538-.36-.528-.936-.792-1.728-.792-.828 0-1.446.276-1.854.828-.396.54-.594 1.386-.594 2.538V14H4.72V4.064zM.314.698h2.088V14H.314V.698z" fill="#3F53BA"/></svg>