<svg width="205" height="15" fill="none" xmlns="http://www.w3.org/2000/svg"><path fill-rule="evenodd" clip-rule="evenodd" d="M10.55 4.59c0-2.496-1.933-4.35-4.43-4.35H0v14.256h6.684c2.98 0 4.43-2.013 4.51-4.51 0-1.289-.564-2.336-1.772-2.899.724-.564 1.128-1.61 1.128-2.497zM6.443 8.778c1.45 0 1.53 2.496 0 2.496h-2.9V8.778h2.9zm-.564-5.316c1.45 0 1.45 2.337 0 2.337H3.543V3.462h2.336zm7.248 3.866c.08 4.832 3.705 7.329 7.328 7.329 3.061 0 6.283-1.61 6.765-5.639h-3.543c-.404 1.53-1.61 2.255-3.222 2.255-2.093 0-3.542-1.853-3.542-3.946 0-2.337 1.449-3.947 3.542-3.947 1.53 0 2.658.645 3.142 2.094h3.624C26.657 1.61 23.436 0 20.457 0c-3.625 0-7.248 2.497-7.328 7.328h-.002zM38.979.241h-8.94v14.255h9.101v-3.222h-5.476V8.697h4.832V5.476h-4.832V3.462h5.316V.241zm20.779 0H47.919v14.255h3.706V3.543h4.43v10.953h3.705V.24h-.002zm12.725 14.255h3.625v-.564L69.665 0h-1.61l-6.443 13.934v.564h3.625l.805-1.853h5.638l.805 1.853-.002-.002zM70.47 9.582h-3.22l1.61-3.785 1.61 3.785h.001zm14.416-3.221L79.249.16h-1.288v14.335h3.705v-6.36l3.06 3.141h.404l2.98-3.141v6.363h3.786V.16h-1.288l-5.719 6.202-.003-.002zm9.18 7.571v.564h4.107l2.417-4.187h1.933v4.187h3.625V.24h-6.202c-5.638 0-6.684 6.764-3.061 9.18l-2.818 4.511zm5.88-6.927c-2.014 0-2.094-3.543 0-3.543h2.577v3.543h-2.577zm11.918-3.543v11.034h3.625V3.462h3.543V.241h-10.63v3.221h3.462zM133.128.241h-3.705v5.154h-4.43V.241h-3.705v14.255h3.705V8.779h4.43v5.719h3.705V.24zm12.242 7.248v7.007h3.705V.16h-1.288l-7.248 7.007V.24h-3.706v14.255h1.289l7.248-7.007zm11.114 7.007V9.02c.483 0 .885 0 1.449-.08l3.141 5.558h4.027v-.564l-3.866-6.283c2.818-1.852 2.738-4.51 2.738-7.408h-3.786c0 2.657.241 5.395-3.462 5.395h-.241V.241h-3.705v14.255h3.705zm19.249-7.007v7.007h3.785V.16h-1.369l-7.168 7.007V.24h-3.785v14.255h1.289l7.248-7.007zm19.892-2.979h-2.818v7.248h1.852V9.584h.966c1.449 0 2.577-1.047 2.577-2.497 0-1.53-1.128-2.577-2.577-2.577zm0 3.302h-.966v-1.53h.966c.403 0 .724.322.724.805a.72.72 0 01-.724.725zm7.007-3.302l-1.128 2.98-1.369-2.98h-1.933l2.417 4.994c-.322.403-.725.644-1.45.564v1.692c1.61.08 2.658-.644 3.302-2.174l2.094-5.074h-1.933V4.51zm-15.866 5.96c1.369 0 2.497-.966 2.497-2.337 0-1.37-1.128-2.336-2.497-2.336-1.368 0-2.496.966-2.496 2.336 0 1.371 1.128 2.337 2.496 2.337z" fill="#44B54F"/></svg>