<svg width="254" height="34" fill="none" xmlns="http://www.w3.org/2000/svg"><path d="M11.555 5.03c0 .842-.533 1.15-1.325 1.15H.863V3.875h9.368c.792 0 1.325.289 1.325 1.156zm17.594 22.003v6.238h-7.713v-6.238c0-1.644.159-3.129.717-4.205.558-1.076 1.525-1.744 3.14-1.744 3.228 0 3.856 2.661 3.856 5.95zM14.24 16.898v16.373h-1.38c-5.73 0-10.379-4.649-10.379-10.378v-5.995h11.76zm3.812-5.455c0 .842-.629 1.3-1.54 1.3H7.359v-2.715h9.154c.911 0 1.54.239 1.54 1.415h-.002zm17.703-.593v5.79H20.493c1.987-.524 2.84-1.884 2.84-4.5 0-2.087-.792-3.363-2.377-4.06.937-.429 1.754-1.61 1.754-3.508 0-2.96-1.166-4.121-2.68-4.574h4.872c5.995 0 10.853 4.858 10.853 10.853v-.001z" fill="#44B54F"/><path fill-rule="evenodd" clip-rule="evenodd" d="M59.74 13.897c0-2.497-1.934-4.35-4.43-4.35h-6.12v14.255h6.683c2.981 0 4.43-2.013 4.51-4.51 0-1.288-.563-2.336-1.772-2.898.725-.564 1.128-1.61 1.128-2.497zm-4.108 4.187c1.45 0 1.53 2.497 0 2.497h-2.9v-2.497h2.901zm-.563-5.315c1.449 0 1.449 2.336 0 2.336h-2.337V12.77h2.337zm7.247 3.866c.08 4.831 3.706 7.328 7.329 7.328 3.06 0 6.282-1.61 6.764-5.638h-3.543c-.403 1.53-1.61 2.254-3.221 2.254-2.094 0-3.543-1.853-3.543-3.946 0-2.336 1.45-3.946 3.543-3.946 1.53 0 2.657.644 3.141 2.093h3.625c-.564-3.864-3.786-5.474-6.764-5.474-3.625 0-7.248 2.497-7.329 7.329h-.002zM88.17 9.547h-8.94v14.255h9.1v-3.221h-5.475v-2.577h4.831v-3.222h-4.831V12.77h5.315V9.547zm20.778 0H97.109v14.255h3.705V12.85h4.43v10.953h3.705V9.547h-.002zm12.726 14.255h3.625v-.564l-6.443-13.932h-1.61l-6.443 13.934v.564h3.625l.804-1.852h5.639l.805 1.852-.002-.002zm-2.013-4.913h-3.222l1.61-3.786 1.61 3.786h.002zm14.415-3.222l-5.636-6.2h-1.289v14.335h3.705v-6.36l3.061 3.14h.404l2.98-3.14v6.362h3.786V9.467h-1.289l-5.718 6.202-.004-.002zm9.181 7.571v.564h4.107l2.416-4.187h1.933v4.187h3.625V9.547h-6.202c-5.638 0-6.684 6.765-3.061 9.181l-2.818 4.51zm5.879-6.926c-2.013 0-2.093-3.543 0-3.543h2.577v3.543h-2.577zm11.919-3.543v11.033h3.625V12.77h3.542V9.547h-10.63v3.222h3.463zm21.264-3.222h-3.706v5.155h-4.429V9.547h-3.706v14.255h3.706v-5.716h4.429v5.718h3.706V9.547zm12.241 7.248v7.007h3.706V9.467h-1.289l-7.248 7.007V9.547h-3.705v14.255h1.288l7.248-7.007zm11.114 7.007v-5.475c.484 0 .885 0 1.449-.08l3.142 5.557h4.026v-.564l-3.866-6.282c2.818-1.853 2.738-4.51 2.738-7.409h-3.785c0 2.658.241 5.396-3.463 5.396h-.241V9.546h-3.705v14.255h3.705zm19.249-7.007v7.007h3.786V9.467h-1.369l-7.168 7.007V9.547h-3.786v14.255h1.289l7.248-7.007zm19.891-2.978h-2.818v7.248h1.853V18.89h.965c1.449 0 2.577-1.048 2.577-2.497 0-1.53-1.128-2.577-2.577-2.577zm0 3.302h-.965v-1.53h.965c.404 0 .725.321.725.805a.72.72 0 01-.725.725zm7.007-3.302l-1.128 2.98-1.369-2.98h-1.933l2.417 4.994c-.321.403-.725.644-1.449.563v1.692c1.61.08 2.657-.644 3.302-2.173l2.093-5.075h-1.933v-.001zm-15.865 5.959c1.369 0 2.497-.965 2.497-2.336 0-1.37-1.128-2.337-2.497-2.337s-2.497.966-2.497 2.337c0 1.37 1.128 2.336 2.497 2.336z" fill="#44B54F"/></svg>