<svg width="36" height="34" fill="none" xmlns="http://www.w3.org/2000/svg"><path d="M11.055 5.493c0 .842-.533 1.15-1.325 1.15H.363V4.338h9.368c.792 0 1.325.289 1.325 1.156zm17.594 22.003v6.238h-7.713v-6.238c0-1.644.159-3.129.717-4.205.558-1.076 1.525-1.744 3.14-1.744 3.228 0 3.856 2.66 3.856 5.95zM13.74 17.361v16.373h-1.38c-5.73 0-10.379-4.649-10.379-10.378V17.36h11.76zm3.812-5.456c0 .843-.629 1.3-1.54 1.3H6.859v-2.714h9.154c.911 0 1.54.239 1.54 1.414h-.002zm17.703-.592v5.79H19.993c1.987-.524 2.84-1.884 2.84-4.5 0-2.088-.792-3.363-2.377-4.06.937-.429 1.754-1.61 1.754-3.508 0-2.96-1.166-4.121-2.68-4.574h4.872c5.995 0 10.853 4.858 10.853 10.853v-.001z" fill="#44B54F"/></svg>