<svg width="305" height="305" fill="none" xmlns="http://www.w3.org/2000/svg"><mask id="a" style="mask-type:luminance" maskUnits="userSpaceOnUse" x="0" y="0" width="305" height="305"><path d="M0 0h305v305H0V0z" fill="#fff"/></mask><g mask="url(#a)"><path d="M55.994 163.377c-53.298 30.771-53.296 80.661.003 111.433 53.298 30.771 139.712 30.771 193.009 0 53.298-30.772 53.296-80.662-.003-111.433-53.299-30.772-139.712-30.772-193.01 0z" fill="#E0E4FC"/></g><path d="M177.784 25.329l-1.745.975V85.94l1.745-.974V25.329z" fill="#E0E4FC"/><path d="M177.784 84.966l.004-57.652 55.439 32.038-.014 57.645-55.429-32.031z" fill="#fff"/><path d="M176.039 85.94V26.304l57.188 33.048v59.635l-57.188-33.049zm60.428 38.66V57.481l-63.668-36.788v67.119l63.668 36.788z" fill="#6B7AC7"/><path d="M176.039 85.94l1.745-.975 55.429 32.032.014 1.991-57.188-33.048z" fill="#3F53BA" fill-opacity=".18"/><path d="M207.959 48.132l-1.746-1.008v56.247l1.746-.973V48.132z" fill="#E0E4FC"/><path d="M236.467 124.6l1.736-1.011v-67.12l-1.736 1.012V124.6z" fill="#3F53BA" fill-opacity=".18"/><path d="M238.204 56.47l-1.737 1.01-63.668-36.787 1.736-1.01 63.669 36.787z" fill="#E0E4FC"/><path d="M233.227 86.038v2.013L176.034 55l1.736-1.01 55.457 32.047z" fill="#3F53BA" fill-opacity=".18"/><path d="M233.219 91.788l.008-3.738L176.033 55l.006 3.745 57.18 33.044z" fill="#6B7AC7"/><path d="M206.213 107.114l-3.236-1.869V41.514l3.236 1.868v63.732z" fill="#6B7AC7"/><path d="M206.213 72.435l1.746-1.006V44.738l-1.746-1.008v28.705z" fill="#E0E4FC"/><path d="M273.118 102.8l-.951.548-23.733-13.727.95-.548 23.734 13.727z" fill="#F5F5F5"/><path d="M249.384 89.073l22.784 13.179.016-19.758L249.4 69.317l-.016 19.756z" fill="#E0E4FC"/><path d="M248.45 68.768l23.734 13.726-.016 20.854-23.734-13.727.016-20.853zm-.967 21.4l25.633 14.826.018-23.047-25.632-14.825-.019 23.046z" fill="#ECECEC"/><path d="M248.435 89.621l.949-.548.016-19.756-.95-.55-.015 20.854z" fill="#3F53BA" fill-opacity=".18"/><path d="M247.501 67.122l.951-.548 25.632 14.825-.95.548-25.633-14.825z" fill="#F5F5F5"/><path d="M274.084 81.4l-.95.547-.018 23.047.95-.548.018-23.046z" fill="#3F53BA" fill-opacity=".18"/><mask id="b" style="mask-type:luminance" maskUnits="userSpaceOnUse" x="0" y="0" width="305" height="305"><path d="M0 0h305v305H0V0z" fill="#fff"/></mask><g mask="url(#b)"><path d="M266.172 93.664c.885.512 1.601 1.756 1.601 2.778-.001 1.023-.719 1.437-1.604.925-.886-.512-1.602-1.756-1.601-2.778 0-1.023.718-1.436 1.604-.925z" fill="#ECECEC"/><mask id="c" style="mask-type:luminance" maskUnits="userSpaceOnUse" x="253" y="74" width="15" height="10"><path d="M253.787 74.581h13.28v8.577h-13.28V74.58z" fill="#fff"/></mask><g mask="url(#c)"><path d="M254.395 74.664l12.065 6.972c.336.194.607.666.607 1.053v.035c0 .387-.272.545-.608.351l-12.065-6.967c-.335-.194-.607-.665-.607-1.052v-.041c.001-.388.273-.545.608-.351z" fill="#000" opacity=".2"/></g><mask id="d" style="mask-type:luminance" maskUnits="userSpaceOnUse" x="251" y="77" width="18" height="16"><path d="M251.865 77.844h17.105v14.871h-17.105v-14.87z" fill="#fff"/></mask><g opacity=".2" fill="#000" mask="url(#d)"><path d="M252.482 77.948l15.88 9.185c.336.194.608.597.608.9-.001.303-.273.391-.608.197l-15.892-9.192c-.336-.194-.605-.595-.601-.896.003-.301.278-.388.613-.194zm-.002 2.192l15.881 9.184c.335.194.607.597.606.9 0 .303-.272.391-.607.198l-15.892-9.192c-.336-.195-.605-.596-.601-.897.003-.301.278-.388.613-.194zm-.001 2.19l15.88 9.186c.336.194.608.596.607.9 0 .303-.272.39-.608.197l-15.892-9.192c-.335-.194-.604-.596-.601-.897.004-.3.278-.387.614-.193z"/></g><mask id="e" style="mask-type:luminance" maskUnits="userSpaceOnUse" x="251" y="86" width="13" height="10"><path d="M251.996 86.168h11.475v9.26h-11.475v-9.26z" fill="#fff"/></mask><g mask="url(#e)"><path d="M255.89 87.797c.158.102.486.347.503.633.01.166-.132.192-.215.216-.256.073-.591.001-.924-.084a4.732 4.732 0 01-1.157-.457c.291-.652.85-.922 1.793-.308zm7.429 7.262a1.896 1.896 0 01-.397-.354c-.339-.387-.307-.701-.297-.927.005-.103-.145-.441-.223-.39-.206.134-.468.175-.69.282-.134.064-.392.267-.719-.182a.941.941 0 01-.18-.565c.154-.131.25-.348.213-.745-.011-.116-.186-.446-.241-.369-.082.117-.19.353-.207.673-.143.11-.338.142-.512.172-.111.019-.208.07-.33.067-.029 0-.085.018-.133-.028-.111-.11-.101-.163-.115-.255-.019-.118.027-.2.055-.264.001-.006.005-.011.007-.018l-.006-.01c0-.109-.136-.425-.193-.356-.223.266-.515.556-.933.476-.019-.004-.04-.013-.062-.021-.003-.067-.016-.147-.022-.217-.014-.163-.023-.32-.075-.519-.026-.098-.148-.346-.212-.328-.336.099-.606.365-1.057.24a1.286 1.286 0 01-.222-.102c-.072-.125.039-.38.055-.422.042-.122.1-.226.156-.33a.61.61 0 00.128-.273c.021-.106-.204-.567-.245-.44-.017.053-.079.156-.147.292-.216.228-.599.39-.892.48-.34.103-.693.102-1.24-.238a1.613 1.613 0 01-.56-.572 1.362 1.362 0 01-.144-.617 2.308 2.308 0 01.149-.928c.492.32.949.503 1.377.62.38.102.791.208 1.041.049.142-.091.227-.413-.116-.955-.236-.373-.541-.56-.741-.68-.278-.164-.538-.262-.757-.285-.454-.048-.757.233-.948.638a3.28 3.28 0 00-.108.253c-.528-.354-1.103-.888-1.747-1.728-.033-.043-.047.015-.014.06.619.85 1.184 1.416 1.71 1.814-.154.487-.241 1.265.378 2.153.659.943 1.365.974 1.696.912a1.42 1.42 0 00.665-.304c.015-.012.038-.01.057-.013-.018.286.06.602.361.9.317.312.585.189.753.15.16-.038.304-.103.452-.163.026.309.076.682.341.934.254.243.483.046.608.002.107-.037.212-.08.301-.148.015.049.034.101.06.159.22.491.481.54.623.518.203-.033.43-.05.62-.13.051.188.132.388.262.6.339.552.658.64.854.616.246-.03.447-.155.639-.29.028.159.091.345.234.596.247.436.564.744.799.872.104.057.002-.29-.109-.362z" fill="#000" opacity=".3"/></g><path d="M273.118 138.284l-.951.548-23.733-13.727.95-.548 23.734 13.727z" fill="#F5F5F5"/><path d="M249.384 124.557l22.784 13.179.015-19.758-22.784-13.178-.015 19.757z" fill="#E0E4FC"/><path d="M248.45 104.252l23.734 13.726-.016 20.854-23.734-13.727.016-20.853zm-.967 21.4l25.633 14.826.018-23.047-25.632-14.825-.019 23.046z" fill="#ECECEC"/><path d="M248.434 125.105l.95-.548.016-19.756-.95-.549-.016 20.853z" fill="#3F53BA" fill-opacity=".18"/><path d="M247.501 102.606l.951-.548 25.632 14.825-.95.548-25.633-14.825z" fill="#F5F5F5"/><path d="M274.084 116.883l-.95.548-.018 23.047.95-.548.018-23.047z" fill="#3F53BA" fill-opacity=".18"/><path d="M266.172 129.148c.885.512 1.601 1.756 1.601 2.778-.001 1.023-.719 1.437-1.604.924-.886-.511-1.602-1.755-1.601-2.778 0-1.022.718-1.435 1.604-.924z" fill="#ECECEC"/><mask id="f" style="mask-type:luminance" maskUnits="userSpaceOnUse" x="253" y="110" width="15" height="9"><path d="M253.787 110.065h13.28v8.576h-13.28v-8.576z" fill="#fff"/></mask><g mask="url(#f)"><path d="M254.395 110.148l12.065 6.972c.336.194.607.666.607 1.053v.035c0 .387-.272.545-.608.351l-12.065-6.967c-.335-.194-.607-.665-.607-1.053v-.04c.001-.388.273-.545.608-.351z" fill="#000" opacity=".2"/></g><mask id="g" style="mask-type:luminance" maskUnits="userSpaceOnUse" x="251" y="113" width="18" height="16"><path d="M251.865 113.329h17.105v14.87h-17.105v-14.87z" fill="#fff"/></mask><g opacity=".2" fill="#000" mask="url(#g)"><path d="M252.482 113.432l15.88 9.185c.336.194.608.597.608.9-.001.303-.273.391-.608.197l-15.892-9.192c-.336-.194-.605-.595-.601-.896.003-.301.278-.388.613-.194zm-.002 2.191l15.881 9.185c.335.194.607.597.606.9 0 .303-.272.391-.607.197l-15.892-9.192c-.336-.194-.605-.595-.601-.896.003-.301.278-.388.613-.194zm-.001 2.191l15.88 9.185c.336.194.608.597.607.9 0 .303-.272.392-.608.198l-15.892-9.193c-.335-.193-.604-.595-.601-.896.004-.301.278-.388.614-.194z"/></g><mask id="h" style="mask-type:luminance" maskUnits="userSpaceOnUse" x="251" y="121" width="13" height="10"><path d="M251.996 121.652h11.475v9.259h-11.475v-9.259z" fill="#fff"/></mask><g mask="url(#h)"><path d="M255.89 123.28c.158.103.486.348.503.634.01.166-.132.193-.215.216-.256.073-.591.001-.924-.084a4.753 4.753 0 01-1.157-.457c.291-.652.85-.922 1.793-.309zm7.429 7.263a1.887 1.887 0 01-.397-.354c-.339-.386-.307-.701-.297-.927.005-.103-.145-.442-.223-.39-.206.134-.468.175-.69.282-.134.064-.392.267-.719-.182a.941.941 0 01-.18-.565c.154-.131.25-.348.213-.746-.011-.115-.186-.445-.241-.368-.082.117-.19.353-.207.673-.143.11-.338.142-.512.172-.111.019-.208.07-.33.067-.029-.001-.085.018-.133-.028-.111-.11-.101-.164-.115-.255-.019-.118.027-.201.055-.264.001-.006.005-.011.007-.018l-.006-.01c0-.109-.136-.425-.193-.356-.223.266-.515.556-.933.476-.019-.004-.04-.013-.062-.021-.003-.068-.016-.147-.022-.217-.014-.163-.023-.32-.075-.519-.026-.098-.148-.347-.212-.328-.336.099-.606.365-1.057.24a1.25 1.25 0 01-.222-.102c-.072-.125.039-.38.055-.422.042-.123.1-.226.156-.329a.614.614 0 00.128-.274c.021-.106-.204-.568-.245-.439-.017.051-.079.155-.147.291-.216.228-.599.39-.892.48-.34.103-.693.102-1.24-.238a1.601 1.601 0 01-.56-.572 1.365 1.365 0 01-.144-.617 2.313 2.313 0 01.149-.929c.492.321.949.504 1.377.62.38.103.791.209 1.041.05.142-.091.227-.413-.116-.954-.236-.373-.541-.561-.741-.681-.278-.164-.538-.262-.757-.285-.454-.048-.757.232-.948.638-.03.064-.069.149-.108.253-.528-.354-1.103-.888-1.747-1.728-.033-.043-.047.015-.014.06.619.85 1.184 1.416 1.71 1.814-.154.487-.241 1.265.378 2.153.659.943 1.365.974 1.696.912a1.42 1.42 0 00.665-.304c.015-.012.038-.009.057-.014-.018.288.06.603.361.901.317.312.585.189.753.149.16-.037.304-.102.452-.162.026.309.076.682.341.934.254.243.483.046.608.002.107-.037.212-.08.301-.149.015.05.034.102.06.16.22.491.481.54.623.518.203-.033.43-.05.62-.129.051.187.132.387.262.599.339.552.658.64.854.616.246-.031.447-.156.639-.289.028.158.091.344.234.595.247.436.564.744.799.872.104.057.002-.289-.109-.362z" fill="#000" opacity=".3"/></g></g><mask id="i" style="mask-type:luminance" maskUnits="userSpaceOnUse" x="0" y="0" width="305" height="305"><path d="M0 0h305v305H0V0z" fill="#fff"/></mask><g mask="url(#i)" fill="#3F53BA" fill-opacity=".18"><path d="M78.615 232.323l69.431 40.154c.416.24 1.09.24 1.506 0l100.423-58.01c.416-.24.416-.63 0-.87l-69.431-40.153c-.416-.24-1.091-.24-1.506 0l-100.423 58.01c-.416.24-.416.629 0 .869z"/><path d="M39.328 238.677c-17.26 9.966-17.26 26.123 0 36.089 17.26 9.965 45.246 9.966 62.507 0 17.261-9.965 17.261-26.123 0-36.089-17.261-9.965-45.247-9.965-62.507 0zm134.822 32.111l6.679 3.856c1.523.88 3.994.88 5.518 0l47.094-27.19c1.524-.879 1.524-2.306 0-3.186l-6.679-3.856c-1.524-.88-3.995-.88-5.519 0l-47.093 27.189c-1.525.881-1.525 2.307 0 3.187zm88.45-59.819c4.952 2.892 4.952 7.579 0 10.47-4.953 2.892-12.981 2.892-17.933 0-4.952-2.891-4.952-7.578 0-10.47 4.952-2.891 12.981-2.891 17.933 0z"/></g><path d="M149.921 201.828l3.397-1.968-1.121 60.064-2.276 1.313v-59.409z" fill="#202B67"/><path d="M149.922 201.828l-3.396-1.968 1.12 60.064 2.276 1.313v-59.409zm68.349-39.478l3.397-1.967-1.121 60.064-2.276 1.313v-59.41z" fill="#202B67"/><path d="M218.272 162.35l-3.396-1.967 1.12 60.064 2.276 1.313v-59.41zM99.87 172.939l3.397-1.968-1.121 60.064-2.275 1.313v-59.409z" fill="#202B67"/><path d="M99.87 172.939l-3.395-1.968 1.12 60.064 2.275 1.313v-59.409zm68.351-39.478l3.396-1.967-1.121 60.064-2.275 1.313v-59.41zm-.001 0l-3.395-1.967 1.12 60.064 2.275 1.313v-59.41z" fill="#202B67"/><mask id="j" style="mask-type:luminance" maskUnits="userSpaceOnUse" x="0" y="0" width="305" height="305"><path d="M0 0h305v305H0V0z" fill="#fff"/></mask><g mask="url(#j)"><path d="M71.774 166.194v-2.926c0-.48.337-1.065.753-1.304l100.423-58.011c.415-.24 1.089-.24 1.505 0l69.432 40.154c.415.24.752.824.752 1.304v2.926c0 .479-.339 1.065-.752 1.305l-100.423 58.01c-.416.24-1.091.24-1.506 0l-69.43-40.154c-.417-.24-.754-.824-.754-1.304z" fill="#6B7AC7"/><mask id="k" style="mask-type:luminance" maskUnits="userSpaceOnUse" x="71" y="103" width="174" height="105"><path d="M71.773 103.773H244.64v104.059H71.773V103.773z" fill="#fff"/></mask><g mask="url(#k)"><path d="M71.774 166.194v-2.926c0-.48.337-1.065.753-1.304l100.423-58.011c.415-.24 1.089-.24 1.505 0l69.432 40.154c.415.24.752.824.752 1.304v2.926c0 .479-.339 1.065-.752 1.305l-100.423 58.01c-.416.24-1.091.24-1.506 0l-69.43-40.154c-.417-.24-.754-.824-.754-1.304z" fill="#fff" opacity=".2"/></g><path d="M142.711 203.167v4.664a1.59 1.59 0 01-.754-.177L72.527 167.5c-.416-.243-.753-.824-.753-1.304v-2.928c0-.423.26-.933.615-1.206-.273.232-.227.557.139.771l69.429 40.155c.209.121.481.179.754.179z" fill="#6B7AC7"/><path d="M72.527 162.833l69.431 40.153c.416.24 1.09.24 1.506 0l100.422-58.01c.416-.24.416-.629 0-.87l-69.431-40.153c-.416-.24-1.09-.24-1.506 0L72.527 161.964c-.416.239-.416.629 0 .869z" fill="#E0E4FC"/><path d="M173.702 103.773a1.55 1.55 0 00-.753.18l-100.422 58.01c-.416.24-.416.63 0 .87l69.431 40.154c.208.119.48.18.752.18.273 0 .546-.061.754-.18l100.422-58.011c.416-.24.416-.629 0-.869l-69.431-40.154a1.55 1.55 0 00-.753-.18zm0 .689c.189 0 .336.045.409.087l69.149 39.994-100.141 57.847a.86.86 0 01-.409.088.86.86 0 01-.408-.088l-69.15-39.993 100.142-57.847a.856.856 0 01.408-.088z" fill="#6B7AC7"/><mask id="l" style="mask-type:luminance" maskUnits="userSpaceOnUse" x="99" y="138" width="55" height="32"><path d="M99.976 138.2h53.389v30.825h-53.39V138.2z" fill="#fff"/></mask><g mask="url(#l)"><path d="M153.021 151.849l-29.406 16.978c-.457.264-1.198.264-1.655 0l-21.641-12.495c-.458-.264-.458-.692 0-.955l29.406-16.979c.457-.263 1.199-.263 1.656 0l21.64 12.495c.458.264.458.692 0 .956z" fill="#000" opacity=".2"/></g><path d="M153.021 150.317l-29.406 16.978c-.457.264-1.198.264-1.655 0L100.319 154.8c-.458-.264-.458-.691 0-.955l29.406-16.979c.457-.263 1.199-.263 1.656 0l21.64 12.495c.457.264.457.692 0 .956z" fill="#ECECEC"/><path d="M131.381 136.867l20.549 11.864-28.315 16.348c-.457.264-1.198.264-1.656 0l-20.549-11.864 28.315-16.348c.458-.264 1.199-.264 1.656 0z" fill="#3F53BA" fill-opacity=".18"/><path d="M122.787 164.367c-.289 0-.559-.064-.759-.179l-21.641-12.495c-.177-.102-.275-.23-.275-.36 0-.13.098-.258.275-.36l29.407-16.977c.2-.117.47-.181.759-.181.289 0 .559.064.76.181l21.641 12.494c.176.102.274.23.274.36 0 .13-.098.258-.274.36l-29.407 16.978c-.2.115-.47.179-.76.179z" fill="#E0E4FC"/><path d="M130.553 133.679c-.3 0-.599.066-.828.198l-29.406 16.978c-.458.264-.458.692 0 .956l21.64 12.494c.229.132.528.198.828.198.3 0 .599-.066.828-.198l29.406-16.977c.457-.265.457-.692 0-.956l-21.64-12.495a1.695 1.695 0 00-.828-.198zm0 .272c.261 0 .513.06.691.162l21.641 12.495c.13.074.207.165.207.242 0 .077-.077.167-.207.241l-29.406 16.979c-.178.102-.43.161-.692.161-.262 0-.514-.059-.691-.161l-21.641-12.495c-.13-.074-.207-.165-.207-.242 0-.077.077-.167.207-.242l29.406-16.978c.178-.102.43-.162.692-.162z" fill="#3F53BA" fill-opacity=".18"/><mask id="m" style="mask-type:luminance" maskUnits="userSpaceOnUse" x="153" y="144" width="55" height="32"><path d="M153.17 144.493h54.403v31.452H153.17v-31.452z" fill="#fff"/></mask><g mask="url(#m)"><path d="M183.47 144.493l-30.3 17.491 24.181 13.961 30.221-17.448-24.102-14.004z" fill="#000" opacity=".2"/></g><path d="M204.699 156.357c.455-.263.455-.69.001-.954l-23.279-13.526-30.3 17.492 23.356 13.484c.455.263 1.194.263 1.649 0l17.305-9.99 2.897.546a.79.79 0 00.539-.092l7.182-4.137a.789.789 0 00.265-1.117l-.759-1.045 1.144-.661z" fill="#6B7AC7"/><mask id="n" style="mask-type:luminance" maskUnits="userSpaceOnUse" x="151" y="141" width="55" height="33"><path d="M151.121 141.877h53.92v31.174h-53.92v-31.174z" fill="#fff"/></mask><g mask="url(#n)"><path d="M204.699 156.357c.455-.263.456-.69.001-.954l-23.278-13.526-30.3 17.492 23.356 13.484c.455.263 1.193.263 1.648 0l17.306-9.99 2.897.546a.792.792 0 00.539-.093l7.181-4.137a.787.787 0 00.265-1.116l-.759-1.045 1.144-.661z" fill="#000" opacity=".15"/></g><path d="M181.421 141.877l-29.275 16.901 23.155 13.378 30.222-17.449-24.102-12.83z" fill="#6B7AC7"/><path d="M151.121 159.369l23.317 10.83c.477.222 1.233.188 1.688-.075l28.573-16.496c.455-.263.438-.657-.038-.879l-23.24-10.872-30.3 17.492z" fill="#6B7AC7"/><mask id="o" style="mask-type:luminance" maskUnits="userSpaceOnUse" x="109" y="165" width="54" height="31"><path d="M109.67 165.484h52.479v30.299H109.67v-30.299z" fill="#fff"/></mask><g mask="url(#o)"><path d="M110.007 178.9l28.906 16.688c.449.26 1.177.26 1.627 0l21.272-12.281c.45-.26.45-.68 0-.94l-28.906-16.688c-.449-.26-1.177-.26-1.627 0l-21.272 12.281c-.449.26-.449.681 0 .94z" fill="#000" opacity=".2"/></g><path d="M141.142 193.215l-.691-.397s.397-.126.58-.041c.183.085.111.438.111.438z" fill="#000"/><path d="M141.616 192.78s-.559-.617-1.231 0-.706 1.228-.985 1.218c-.278-.01-.274-4.926-.274-4.926l2.648 2.463-.158 1.245z" fill="#000"/><path d="M113.867 174.902l-.044-.025.426-.246 18.273-10.551 26.629 17.234c.439.254.518.62.173.819l-.622.358-17.082 9.866-.121-.088-27.632-17.367z" fill="#202B67"/><path d="M139.34 186.744l1.323-.272v5.297c-.798.338-1.306.659-1.389 1.327l.066-6.352z" fill="#6B7AC7"/><path d="M141.249 191.839l16.921-9.77c.293-.17.532-.582.532-.92v-5.223l-17.085 9.951s-.204.738-.81.971c-.606.233-.144.468-.144.468v4.453c.523-.062.586.07.586.07z" fill="#ECECEC"/><path d="M139.688 186.563c.175-.101.313-.107.313-.012v.166c0 .183.279.174.626-.025.344-.2.627-.509.627-.693v-.166c0-.095.235-.307.527-.476l-27.532-15.775-.426.248a.4.4 0 00-.105.228v.166c0 .184-.279.494-.622.693-.347.2-.627.209-.627.025v-.166c0-.095-.138-.089-.313.013l27.532 15.774z" fill="#202B67"/><path d="M113.867 169.855l-.044-.025.426-.246 18.273-10.55 26.629 15.376c.439.255.518.621.173.819l-.622.358-17.085 10.29-27.75-16.022zm-1.403.76l27.51 15.883-.963.753-27.421-15.832c.119-.282.241-.431.366-.512l.508-.292z" fill="#202B67"/><path d="M111.697 178.532a.267.267 0 01-.049-.036.088.088 0 01-.031-.027.291.291 0 01-.055-.074c-.012-.012-.018-.024-.028-.04a.714.714 0 01-.07-.153 1.37 1.37 0 01-.056-.178 3.72 3.72 0 01-.055-.335l-.009-.101a3.065 3.065 0 01-.009-.239v-4.545c0-.508.1-1.017.254-1.386l27.422 15.833.116 7.12-27.421-15.834-.009-.005z" fill="#202B67"/><mask id="p" style="mask-type:luminance" maskUnits="userSpaceOnUse" x="111" y="171" width="29" height="17"><path d="M111.335 171.419h27.676v15.832h-27.676v-15.832z" fill="#fff"/></mask><g mask="url(#p)"><path d="M139.011 187.251s-21.595-10.108-23.561-11.034c-1.297-.611-1.146.921-.24 2.104.724.947 7.083 6.329 7.083 6.329l-7.056-4.074-3.53-2.038-.01-.006a.316.316 0 01-.049-.035.083.083 0 01-.031-.028.34.34 0 01-.055-.074c-.012-.012-.019-.025-.028-.04a1.484 1.484 0 01-.126-.331 3.72 3.72 0 01-.039-.209c-.01-.04-.013-.083-.016-.125l-.009-.102a3.033 3.033 0 01-.01-.239v-4.545c0-.508.101-1.017.255-1.386l27.422 15.833z" fill="#000" opacity=".1"/></g><path d="M138.757 188.638h.613c0-.657.194-1.2.298-1.342a.81.81 0 00.503.166c.289 0 .574-.129.765-.239.249-.145.524-.365.709-.623.012-.019.027-.037.037-.055.11-.163.177-.344.183-.526l16.207-9.356.55-.319.703-.405c.144-.083.215-.197.215-.317v-.718c0 .141-.083.246-.215.326l-.009.005-1.86 1.071-15.673 9.051c-.292.168-.531.381-.531.476v.165c0 .08-.052.184-.144.292a1.785 1.785 0 01-.479.402c-.347.199-.627.208-.627.025v-.166c0-.095-.137-.089-.312.012l-.31.181c-.344.196-.623 1.046-.623 1.894z" fill="#202B67"/><path d="M139.37 188.638v4.545c0 .064.004.128.007.19l.015.153c0 .006 0 .009.003.015.055-.488.522-.923.927-1.153.181-.108.46-.234.749-.234.214 0 .408.077.549.203l.055-.031.107-.064 15.674-9.05.899-.519c.083-.049.172-.098.258-.151l.758-.438c.104-.077.169-.172.169-.295v.718c0 .101-.053.2-.157.276 0 .004-.003.004-.006.007-.089.051-.185.104-.28.162l-.174.102c-.104.058-.206.119-.301.174-.068.04-.129.077-.187.108-.05.028-.092.055-.133.076l-.23.136-12.45 7.184-3.974 2.295c-.283.166-.513.225-.528.139a.285.285 0 01-.003-.03v-.161c0-.199-.279-.199-.623 0-.338.194-.485.433-.492.626v.197c0 .101-.039.205-.092.233-.024.016-.058.034-.091.052-.056.031-.123.071-.197.114l-.242.141c-.114.064-.218.052-.31-.028a.34.34 0 01-.086-.101v-.003a.172.172 0 01-.028-.037 1.354 1.354 0 01-.125-.331c-.016-.068-.028-.136-.041-.209a.851.851 0 01-.015-.126l-.009-.101a3.065 3.065 0 01-.009-.239v-4.545h.613z" fill="#202B67"/><mask id="q" style="mask-type:luminance" maskUnits="userSpaceOnUse" x="111" y="159" width="47" height="28"><path d="M111.591 159.587h45.982v26.878h-45.982v-26.878z" fill="#fff"/></mask><g mask="url(#q)"><path d="M111.591 171.418l26.061 15.047 19.7-11.374c.294-.169.294-.445 0-.614l-25.789-14.89-17.311 9.995h-.003l-.427.249a.395.395 0 00-.105.227v.166c0 .184-.278.494-.623.693-.018.013-.036.019-.054.028l-.574-.331-.274.156c-.012.007-.021.009-.036.019l.003.003-.203.116c-.123.08-.249.23-.365.51z" fill="#000" opacity=".1"/></g><path d="M155.884 175.205l-.783-.419.713-.17c.146.165.155.365.07.589z" fill="#6B7AC7"/><mask id="r" style="mask-type:luminance" maskUnits="userSpaceOnUse" x="155" y="174" width="1" height="2"><path d="M155.1 174.616h.838v.589h-.838v-.589z" fill="#fff"/></mask><g mask="url(#r)"><path d="M155.884 175.205l-.783-.419.713-.17c.146.165.155.365.07.589z" fill="#000" opacity=".5"/></g><path d="M135.112 185.666c.441.254 1.154.254 1.595 0l17.901-10.336-26.798-15.222-.625-.362-17.901 10.084c-.44.255-.44.67 0 .921l25.828 14.915z" fill="#6B7AC7"/><path d="M141.834 166.392l6.243 3.593 4.041-2.333 4.701 2.716v3.137c0 .411-.46.996-.628.9 0 0-.368.075-.898.319-.531.244-1.298.959-1.298.959l-14.345-8.03 2.184-1.261z" fill="#6B7AC7"/><mask id="s" style="mask-type:luminance" maskUnits="userSpaceOnUse" x="139" y="166" width="18" height="10"><path d="M139.65 166.392h17.169v9.291H139.65v-9.291z" fill="#fff"/></mask><g mask="url(#s)"><path d="M141.834 166.392l6.242 3.593 4.042-2.333 4.701 2.716v3.137c0 .411-.461.996-.628.9 0 0-.368.075-.899.319s-1.297.959-1.297.959l-14.345-8.03 2.184-1.261z" fill="#000" opacity=".15"/></g><path d="M154.24 170.746v3.405c.019-.014.038-.025.055-.035.191-.11.475-.239.764-.239.198 0 .37.016.504.119v-4.015l-1.323.765z" fill="#202B67"/><path d="M153.362 175.321c.007-.203.093-.402.225-.581.063-.089.139-.173.22-.253l.075-.072.098-.082.083-.062a2.61 2.61 0 01.177-.119v-3.391l-.875.507v-.017l-.003 4.07z" fill="#3F53BA" fill-opacity=".18"/><mask id="t" style="mask-type:luminance" maskUnits="userSpaceOnUse" x="155" y="170" width="2" height="5"><path d="M155.563 170.204h1.256v4.211h-1.256v-4.211z" fill="#fff"/></mask><g mask="url(#t)"><path d="M156.819 173.505c0 .411-.461.996-.628.9l-.628-.408v-2.589l.629-1.082.343-.122.284.165v3.136z" fill="#000" opacity=".4"/></g><path d="M135.91 181.328v3.886c.193 0 .386-.04.53-.126l1.965-1.132 14.957-8.636.004-4.07-17.456 10.078z" fill="#ECECEC"/><mask id="u" style="mask-type:luminance" maskUnits="userSpaceOnUse" x="148" y="173" width="5" height="4"><path d="M148.044 173.854h4.187v2.418h-4.187v-2.418z" fill="#fff"/></mask><g mask="url(#u)"><path d="M152.231 173.855l-4.187 2.417s.435-.453 2.094-1.399c1.612-.92 2.093-1.018 2.093-1.018z" fill="#000" opacity=".15"/></g><path d="M109.731 166.733v2.934c0 .338.24.752.531.921l23.155 13.368 1.961 1.132c.145.086.338.126.532.126v-3.447l-26.179-15.034z" fill="#F5F5F5"/><path d="M127.811 155.059l26.797 15.473v.359c0 .2.28.273.623.074.347-.2.627-.448.627-.792l.033-.341-27.304-15.762-.11-.064a.36.36 0 00-.047.166v.166c0 .199-.275.518-.619.721z" fill="#6B7AC7"/><mask id="v" style="mask-type:luminance" maskUnits="userSpaceOnUse" x="127" y="154" width="29" height="18"><path d="M127.811 154.006h28.08v17.076h-28.08v-17.076z" fill="#fff"/></mask><g mask="url(#v)"><path d="M127.811 155.059l26.798 15.473v.359c0 .2.279.274.623.074.347-.199.626-.448.626-.792l.034-.341-27.304-15.761-.111-.065a.358.358 0 00-.046.166v.166c0 .199-.276.518-.62.721z" fill="#000" opacity=".1"/></g><path d="M136.707 180.868l17.504-10.107c.223-.116.426-.21.511-.165l-.114-.064-26.798-15.474-.313-.18c-.173-.1-.55-.044-.844.126l-17.369 10.029c-.44.255-.44.669 0 .92l25.828 14.915c.441.254 1.154.254 1.595 0z" fill="#6B7AC7"/><mask id="w" style="mask-type:luminance" maskUnits="userSpaceOnUse" x="108" y="154" width="47" height="28"><path d="M108.954 154.828h45.769v26.231h-45.769v-26.231z" fill="#fff"/></mask><g mask="url(#w)"><path d="M136.707 180.868l17.505-10.107c.222-.117.425-.21.511-.165l-.114-.064-26.798-15.474-.313-.18c-.173-.1-.551-.044-.845.125l-17.369 10.029c-.439.255-.439.67 0 .921l25.829 14.915c.44.254 1.154.254 1.594 0z" fill="#fff" opacity=".3"/></g><path d="M142.506 166.426l.178.102-.526.303 3.585 2.07.525-.303.178.102-2.002 1.156-.178-.102.558-.322-3.585-2.07-.677.39a.847.847 0 00-.282.24c-.087.146-.031.331.171.553l.427.466-.191.11-1.398-.838 3.217-1.857zm-2.57 5.115l-.945-1.198-1.149.664 2.094.534zm-3.834-1.417l.177.102-.466.269 1.753.444 1.307-.755-.788-1-.368.211a.578.578 0 01-.079.039c-.066.027-.151.011-.256-.05l1.208-.698.178.103-.421.243 2.324 3.002-.485.281-5.312-1.278-.197.114a.58.58 0 01-.08.038c-.065.028-.15.011-.255-.05l1.76-1.015zm-5.238 3.023a.673.673 0 01.224-.083c.122-.02.369.016.742.11l2.554.655-1.484-1.857.131-.076a.66.66 0 01.224-.083c.122-.02.369.016.741.11l4.517 1.152.329-.189.178.102-1.78 1.027-.177-.102.525-.303-3.9-1.062 1.109 1.384 1.793.459-1.523.879-.178-.102.532-.3-3.835-1.039 1.884 2.158.526-.303.178.102-1.084.625-.177-.102.328-.19-2.508-2.896.131-.076z" fill="#fff"/><path d="M149.862 170.487c0-.319.127-.611.35-.824l-21.644-12.495a3.102 3.102 0 01-2.918 0l-12.82 7.401c.222.213.348.506.348.825 0 .318-.126.611-.348.823l21.623 12.485a3.105 3.105 0 012.915.002l12.842-7.392a1.128 1.128 0 01-.348-.825zm-12.578 8.563a2.758 2.758 0 00-2.747-.002.17.17 0 01-.172 0l-21.931-12.662a.172.172 0 010-.298.793.793 0 00.4-.695.793.793 0 00-.4-.694.173.173 0 01-.086-.149c0-.061.033-.118.086-.149l13.128-7.579a.17.17 0 01.172 0 2.76 2.76 0 002.75 0 .17.17 0 01.172 0l21.952 12.673a.172.172 0 01-.001.298.798.798 0 00-.402.695c0 .29.151.55.402.695a.173.173 0 01-.001.298l-13.151 7.569a.172.172 0 01-.171 0z" fill="#fff"/><path d="M128.477 154.006l.11.065 27.304 15.761s.018-.043.059-.074c.024-.015.055-.03.092-.051l.196-.114.242-.141c.114-.065.218-.052.31.028a.532.532 0 01.114.141.768.768 0 01.071.153c.021.055.04.117.055.178.015.068.028.135.04.208a.865.865 0 01.015.127l.009.1c.006.077.009.157.009.24v-.767c0-.424-.358-.973-.798-1.228l-25.831-14.915c-.441-.254-1.077-.297-1.42-.101l-.326.19-.012.006c-.022.016-.077.046-.138.08 0 0-.003 0-.003.003a.269.269 0 00-.098.111z" fill="#6B7AC7"/><mask id="x" style="mask-type:luminance" maskUnits="userSpaceOnUse" x="128" y="153" width="30" height="18"><path d="M128.477 153.493h28.626v17.134h-28.626v-17.134z" fill="#fff"/></mask><g mask="url(#x)"><path d="M128.477 154.006l.11.064 27.304 15.762s.018-.043.059-.074c.024-.015.055-.03.092-.051l.196-.114.242-.141c.114-.065.218-.052.31.028a.532.532 0 01.114.141.768.768 0 01.071.153c.021.055.04.117.055.178.015.068.028.135.04.208a.865.865 0 01.015.127l.009.1c.006.077.009.157.009.24v-.767c0-.424-.358-.973-.798-1.228l-25.831-14.915c-.441-.254-1.077-.297-1.42-.101l-.326.19-.012.006c-.022.016-.077.046-.138.08 0 0-.003 0-.003.003a.269.269 0 00-.098.111z" fill="#fff" opacity=".3"/></g><path d="M136.708 185.665l1.08-.626 16.207-9.357c.006-.203.089-.402.221-.58.184-.258.46-.479.709-.623.19-.11.475-.239.764-.239.196 0 .368.061.503.165.104-.141.298-.684.298-1.341h.614c0 .847-.28 1.697-.623 1.894l-.31.181c-.175.101-.313.107-.313.012v-.166c0-.184-.279-.175-.627.025-.343.199-.622.51-.622.693v.166c0 .095-.24.307-.531.476l-15.673 9.05-1.697.979s-.004 0-.004.003c-.22.123-.506.187-.794.187v-.709c.288 0 .577-.061.798-.19z" fill="#6B7AC7"/><mask id="y" style="mask-type:luminance" maskUnits="userSpaceOnUse" x="135" y="173" width="23" height="14"><path d="M135.91 173.064h21.194v13.5H135.91v-13.5z" fill="#fff"/></mask><g mask="url(#y)"><path d="M136.708 185.665l1.08-.626 16.207-9.357c.007-.203.089-.402.221-.58.184-.258.461-.479.709-.623.19-.11.476-.239.764-.239.197 0 .369.061.504.165.104-.141.297-.684.297-1.341h.614c0 .847-.279 1.697-.623 1.894l-.31.181c-.175.101-.313.107-.313.012v-.166c0-.184-.279-.175-.626.025-.344.199-.623.51-.623.693v.166c0 .095-.239.307-.531.476l-15.673 9.05-1.697.979s-.003 0-.003.003a1.667 1.667 0 01-.795.187v-.708c.289 0 .577-.062.798-.191z" fill="#000" opacity=".3"/></g><path d="M136.701 180.871s.003-.003.007-.003l1.08-.626 12.451-7.184 3.974-2.296c.282-.166.513-.224.527-.138.003.003.003.007.003.01v.18c0 .2.28.2.624 0 .337-.193.485-.432.491-.626v-.196c0-.101.04-.206.092-.233.024-.015.058-.034.092-.053.055-.03.123-.07.197-.113l.242-.141a.25.25 0 01.31.027.09.09 0 01.03.028.32.32 0 01.056.074c.012.012.018.024.027.039a.834.834 0 01.071.154c.021.055.04.117.055.178.016.067.028.135.04.209.009.039.012.083.015.126l.009.101c.006.077.01.157.01.239v2.437h-.614v-2.437c0-.064-.003-.129-.006-.19l-.016-.154c0-.006 0-.009-.003-.015-.055.488-.521.924-.926 1.154-.181.108-.461.233-.749.233a.829.829 0 01-.55-.202l-.055.03c-.036.022-.07.044-.107.065l-15.673 9.05-1.697.979s-.004 0-.004.003c-.003.003-.006.003-.012.006-.217.12-.5.181-.782.181v-.708c.317 0 .569-.071.791-.188z" fill="#6B7AC7"/><mask id="z" style="mask-type:luminance" maskUnits="userSpaceOnUse" x="135" y="169" width="23" height="13"><path d="M135.91 169.41h21.194v12.357H135.91V169.41z" fill="#fff"/></mask><g mask="url(#z)"><path d="M136.701 180.871s.003-.003.007-.003l1.08-.626 12.451-7.184 3.974-2.296c.282-.165.513-.223.527-.138.003.003.003.007.003.01v.18c0 .2.28.2.624 0 .337-.193.485-.432.491-.626v-.196c0-.101.04-.206.092-.233.024-.015.058-.034.092-.052l.197-.114.242-.141a.248.248 0 01.31.028.077.077 0 01.03.027.32.32 0 01.056.074c.012.012.018.024.027.04a.795.795 0 01.071.153c.021.055.04.117.055.178.016.067.028.135.04.209.009.04.012.083.015.126l.009.101c.006.077.01.157.01.239v2.438h-.614v-2.438c0-.064-.003-.129-.006-.19l-.016-.153c0-.007 0-.01-.003-.016-.055.488-.521.924-.926 1.154-.181.108-.461.233-.749.233a.824.824 0 01-.55-.202l-.055.03c-.036.022-.07.044-.107.065l-15.673 9.05-1.697.979s-.004 0-.004.003c-.003.003-.006.003-.012.006-.217.12-.5.181-.782.181v-.708c.317 0 .569-.071.791-.188z" fill="#000" opacity=".3"/></g><path d="M108.955 165.484v.721c0 .166.104.329.316.455l.012.006 24.134 13.933 1.695.979v.003s.003-.003.003 0c.221.122.506.187.795.187v-.709c-.289 0-.577-.061-.798-.19l-1.077-.624h-.003l-24.749-14.291c-.234-.137-.327-.295-.328-.47z" fill="#6B7AC7"/><mask id="A" style="mask-type:luminance" maskUnits="userSpaceOnUse" x="108" y="165" width="28" height="17"><path d="M108.956 165.484h26.954v16.284h-26.954v-16.284z" fill="#fff"/></mask><g mask="url(#A)"><path d="M108.955 165.484v.721c0 .166.104.329.316.455l.012.006 24.134 13.933 1.695.979v.003s.003-.003.003 0c.221.122.506.187.795.187v-.709c-.289 0-.577-.061-.798-.19l-1.077-.623h-.003l-24.749-14.292c-.234-.137-.327-.295-.328-.47z" fill="#000" opacity=".2"/></g><path d="M108.955 170.281v.721c0 .166.104.328.316.454l.012.006 24.134 13.933 1.695.979v.003s.003-.003.003 0c.221.123.506.188.795.188v-.71c-.289 0-.577-.061-.798-.19l-1.077-.623h-.003l-24.749-14.292c-.234-.136-.327-.295-.328-.469z" fill="#6B7AC7"/><mask id="B" style="mask-type:luminance" maskUnits="userSpaceOnUse" x="108" y="170" width="28" height="17"><path d="M108.956 170.281h26.954v16.283h-26.954v-16.283z" fill="#fff"/></mask><g mask="url(#B)"><path d="M108.955 170.281v.721c0 .166.104.329.316.454l.012.006 24.134 13.933 1.695.979v.003s.003-.003.003 0c.221.123.506.188.795.188v-.71c-.289 0-.577-.061-.798-.19l-1.077-.623h-.003l-24.749-14.292c-.234-.136-.327-.295-.328-.469z" fill="#000" opacity=".2"/></g><path d="M151.534 174.257v9.67l-1.396-1.612-1.396 3.224v-9.67l2.792-1.612z" fill="#6B7AC7"/><mask id="C" style="mask-type:luminance" maskUnits="userSpaceOnUse" x="148" y="174" width="4" height="12"><path d="M148.742 174.257h2.792v11.282h-2.792v-11.282z" fill="#fff"/></mask><g mask="url(#C)"><path d="M151.534 174.257v9.67l-1.396-1.612-1.395 3.224v-9.67l2.791-1.612z" fill="#000" opacity=".5"/></g><path d="M145.253 186.826v2.623c0 .87.463 1.674 1.217 2.109l3.668 2.117-3.49-.403.698 2.014-3.668-2.117a2.434 2.434 0 01-1.217-2.108v-2.624l2.792-1.611z" fill="#6B7AC7"/><mask id="D" style="mask-type:luminance" maskUnits="userSpaceOnUse" x="142" y="186" width="9" height="10"><path d="M142.461 186.826h7.677v8.461h-7.677v-8.461z" fill="#fff"/></mask><g mask="url(#D)"><path d="M145.253 186.826v2.623c0 .87.464 1.673 1.217 2.108l3.668 2.118-3.489-.403.698 2.014-3.668-2.117a2.434 2.434 0 01-1.217-2.108v-2.624l2.791-1.611z" fill="#000" opacity=".5"/></g><mask id="E" style="mask-type:luminance" maskUnits="userSpaceOnUse" x="141" y="186" width="6" height="3"><path d="M141.877 186.358h4.187v2.417h-4.187v-2.417z" fill="#fff"/></mask><g mask="url(#E)"><path d="M146.064 186.358l-4.187 2.417s.435-.452 2.094-1.399c1.612-.919 2.093-1.018 2.093-1.018z" fill="#000" opacity=".15"/></g><mask id="F" style="mask-type:luminance" maskUnits="userSpaceOnUse" x="144" y="120" width="64" height="38"><path d="M144.373 120.402h63.53v36.647h-63.53v-36.647z" fill="#fff"/></mask><g mask="url(#F)"><path d="M207.903 133.681l-22.7-13.104a1.304 1.304 0 00-1.304 0l-39.381 22.739a.29.29 0 000 .503l22.912 13.231 40.473-23.369z" fill="#000" opacity=".2"/></g><path d="M204.686 131.767v.489c0 .717-.381 1.38-1.004 1.742l-35.178 20.309c-.309.18-.66.266-1.002.266a2.02 2.02 0 01-1.011-.268l-19.176-11.034a2.022 2.022 0 01-1.003-1.742v-.678h.005v.008c0 .086.041.167.127.221l21.058 12.16 37.184-21.473z" fill="#202B67"/><path d="M204.689 131.765l-20.858-12.041a1.2 1.2 0 00-1.199 0l-36.186 20.895a.266.266 0 000 .461l21.054 12.158 37.189-21.473z" fill="#202B67"/><path d="M167.308 151.466l-11.25-6.488 32.895-18.993 11.309 6.455-32.954 19.026z" fill="#202B67"/><path d="M200.262 132.44l-.429.247-10.88-6.208-32.463 18.747-.43-.247 32.893-18.994 11.309 6.455zm-38.484.977l.208.119 5.514 3.183 9.806-5.661.204-.117-5.722-3.302-10.01 5.778z" fill="#2A3677"/><path d="M161.986 133.536l5.514 3.183 9.806-5.662-5.517-3.183-9.803 5.662z" fill="#202B67"/><path d="M167.5 153.236v1.338c.345 0 .694-.088 1.003-.267l35.179-20.309a2.015 2.015 0 001.007-1.743v-.49L167.5 153.236z" fill="#2A3677"/><path d="M168.067 153.533a2.383 2.383 0 002.053-.158l35.023-20.221a2.386 2.386 0 001.159-1.666l3.834-22.865a2.383 2.383 0 00-.673-2.085l-36.396 21.017a1.77 1.77 0 00-.856 1.232l-4.144 24.746z" fill="#202B67"/><path d="M167.5 153.238l.24.137c.105.06.214.113.327.158l4.144-24.745c.088-.518.401-.969.856-1.233l36.397-21.017a2.45 2.45 0 00-.486-.369l-36.471 21.055a1.772 1.772 0 00-.856 1.232l-4.151 24.782z" fill="#202B67"/><path d="M172.549 128.021l-.564-.325c-.167.222-.286.48-.333.76l-4.152 24.782.24.137c.105.06.214.113.327.158l4.145-24.745c.048-.283.168-.543.337-.767z" fill="#2A3677"/><path d="M187.793 132.425c.257-1.531 1.837-3.564 3.53-4.542 1.693-.976 2.857-.528 2.6 1.003-.256 1.531-1.837 3.564-3.53 4.541-1.693.978-2.857.529-2.6-1.002z" fill="#6B7AC7"/><mask id="G" style="mask-type:luminance" maskUnits="userSpaceOnUse" x="215" y="141" width="15" height="9"><path d="M215.877 141.662h13.307v7.682h-13.307v-7.682z" fill="#fff"/></mask><g mask="url(#G)"><path d="M227.236 142.786c2.598 1.5 2.598 3.932 0 5.433-2.599 1.5-6.812 1.5-9.41 0s-2.598-3.933 0-5.433 6.812-1.5 9.41 0z" fill="#000" opacity=".2"/></g><path d="M227.109 129.693c2.528 1.46 2.528 3.827 0 5.286-2.528 1.46-6.627 1.46-9.156 0-2.527-1.459-2.527-3.826 0-5.286 2.529-1.46 6.628-1.46 9.156 0z" fill="#2A3677"/><path d="M227.201 125.648c-2.579-1.489-6.76-1.489-9.339 0-1.381.797-2.021 1.859-1.925 2.902l1.403 16.431v.001c.06.72.565 1.428 1.516 1.977 2.03 1.172 5.321 1.172 7.351 0 .951-.549 1.456-1.257 1.516-1.977l1.404-16.432h-.002c.097-1.043-.544-2.105-1.924-2.902z" fill="#6B7AC7"/><mask id="H" style="mask-type:luminance" maskUnits="userSpaceOnUse" x="215" y="124" width="15" height="24"><path d="M215.927 124.532h13.207v23.255h-13.207v-23.255z" fill="#fff"/></mask><g mask="url(#H)"><path d="M227.201 125.648c-2.125-1.227-5.338-1.442-7.847-.646a7.836 7.836 0 00-.619.223l-.062.025c-.045.019-.09.038-.135.059l-.115.051a3.706 3.706 0 00-.11.052c-.049.023-.096.047-.144.071a4.732 4.732 0 00-.307.165c-1.381.797-2.021 1.859-1.925 2.902l1.403 16.431v.001c.06.72.565 1.428 1.516 1.977.77.445 1.723.72 2.718.827-.852-.389-1.499-1.021-1.532-2.044l-.115-3.388c2.211.625 4.955.408 6.793-.653.643-.371 1.106-.807 1.392-1.27l.541-6.339c-.31.522-.824 1.011-1.544 1.427-2 1.154-4.983 1.394-7.394.722l-.115-3.291c2.695.673 5.943.375 8.145-.896a5.646 5.646 0 001.156-.865l.225-2.639c.097-1.043-.545-2.105-1.925-2.902z" fill="#000" opacity=".1"/></g><path d="M227.201 125.648c2.579 1.489 2.579 3.904 0 5.393-2.579 1.489-6.76 1.489-9.339 0-2.58-1.489-2.58-3.904 0-5.393 2.579-1.489 6.76-1.489 9.339 0z" fill="#3F53BA" fill-opacity=".18"/><path d="M227.745 123.912c-2.879-1.662-7.548-1.662-10.427 0-1.438.831-2.158 1.919-2.158 3.007a280.8 280.8 0 000 1.298c.004 1.086.723 2.17 2.158 2.998 2.879 1.663 7.548 1.663 10.427 0 1.44-.831 2.159-1.921 2.158-3.011v-1.279c.002-1.09-.717-2.181-2.158-3.013z" fill="#6B7AC7"/><mask id="I" style="mask-type:luminance" maskUnits="userSpaceOnUse" x="215" y="122" width="15" height="11"><path d="M215.159 122.666h14.744v9.796h-14.744v-9.796z" fill="#fff"/></mask><g mask="url(#I)"><path d="M227.745 123.912c-2.879-1.662-7.548-1.662-10.427 0-1.438.831-2.158 1.919-2.158 3.007a280.8 280.8 0 000 1.298c.004 1.086.723 2.17 2.158 2.999 2.879 1.662 7.548 1.662 10.427 0 1.44-.832 2.159-1.922 2.158-3.012v-1.279c.002-1.09-.717-2.181-2.158-3.013z" fill="#000" opacity=".2"/></g><mask id="J" style="mask-type:luminance" maskUnits="userSpaceOnUse" x="215" y="123" width="5" height="10"><path d="M215.159 123.021h4.424v9.086h-4.424v-9.086z" fill="#fff"/></mask><g mask="url(#J)"><path d="M219.583 123.02a8.88 8.88 0 00-2.265.892c-1.439.83-2.158 1.919-2.159 3.007v1.297c.005 1.086.724 2.171 2.159 3a8.879 8.879 0 002.265.891v-9.087z" fill="#000" opacity=".2"/></g><path d="M227.744 123.912c2.88 1.662 2.88 4.357 0 6.019-2.879 1.663-7.547 1.663-10.426.001-2.88-1.663-2.88-4.358 0-6.02 2.879-1.662 7.547-1.662 10.426 0z" fill="#6B7AC7"/><path d="M229.124 126.457h.002l-.243-2.179h-.001c-.091-.818-.707-1.622-1.851-2.247-2.485-1.36-6.514-1.36-9 0-1.143.625-1.759 1.429-1.85 2.247h-.001l-.248 2.179h.002c-.106.982.526 1.985 1.898 2.735 2.547 1.393 6.847 1.393 9.395 0 1.372-.75 2.003-1.753 1.897-2.735z" fill="#6B7AC7"/><mask id="K" style="mask-type:luminance" maskUnits="userSpaceOnUse" x="215" y="121" width="15" height="10"><path d="M215.922 121.011h13.214v9.226h-13.214v-9.226z" fill="#fff"/></mask><g mask="url(#K)"><path d="M229.124 126.457h.001l-.242-2.179h-.001c-.092-.818-.708-1.622-1.851-2.247-2.485-1.36-6.515-1.36-9 0-1.143.625-1.759 1.429-1.851 2.247h-.001l-.247 2.179h.001c-.105.982.526 1.985 1.899 2.735 2.547 1.393 6.847 1.393 9.394 0 1.372-.75 2.004-1.753 1.898-2.735z" fill="#000" opacity=".2"/></g><mask id="L" style="mask-type:luminance" maskUnits="userSpaceOnUse" x="215" y="121" width="6" height="9"><path d="M215.922 121.289h4.119v8.581h-4.119v-8.581z" fill="#fff"/></mask><g mask="url(#L)"><path d="M218.031 122.03c-1.143.626-1.759 1.43-1.851 2.248h-.001l-.247 2.179h.001c-.106.982.526 1.985 1.899 2.735.52.285 1.114.51 1.752.678l.153-2.591.304-5.99a7.954 7.954 0 00-2.01.741z" fill="#000" opacity=".2"/></g><path d="M227.031 122.03c2.485 1.36 2.485 3.564 0 4.923s-6.515 1.359-9 0c-2.485-1.359-2.485-3.563 0-4.923 2.485-1.359 6.515-1.359 9 0z" fill="#6B7AC7"/><path d="M226.41 122.56c2.142 1.067 2.142 2.796 0 3.863-2.142 1.066-5.615 1.066-7.757 0-2.142-1.067-2.142-2.796 0-3.863 2.142-1.066 5.615-1.066 7.757 0z" fill="#6B7AC7"/><mask id="M" style="mask-type:luminance" maskUnits="userSpaceOnUse" x="217" y="121" width="12" height="7"><path d="M217.046 121.76h10.97v5.463h-10.97v-5.463z" fill="#fff"/></mask><g mask="url(#M)"><path d="M226.41 122.56c2.142 1.067 2.142 2.796 0 3.863-2.143 1.066-5.615 1.066-7.758 0-2.142-1.067-2.142-2.796 0-3.863 2.143-1.067 5.615-1.067 7.758 0z" fill="#000" opacity=".2"/></g><path d="M226.41 123.977c-2.142-1.067-5.615-1.067-7.757 0-.706.351-1.178.775-1.419 1.223.241.448.713.872 1.419 1.223 2.142 1.066 5.615 1.066 7.757 0 .706-.351 1.177-.775 1.418-1.223-.241-.448-.712-.872-1.418-1.223z" fill="#6B7AC7"/><mask id="N" style="mask-type:luminance" maskUnits="userSpaceOnUse" x="217" y="123" width="11" height="5"><path d="M217.235 123.177h10.593v4.046h-10.593v-4.046z" fill="#fff"/></mask><g mask="url(#N)"><path d="M226.41 123.977c-2.142-1.067-5.615-1.067-7.757 0-.706.351-1.178.775-1.419 1.223.241.448.713.872 1.419 1.223 2.142 1.066 5.615 1.066 7.757 0 .706-.351 1.177-.775 1.418-1.223-.241-.448-.712-.872-1.418-1.223z" fill="#fff" opacity=".1"/></g><path d="M227.181 123.337l-6.463 3.733c-.755-.132-1.463-.347-2.065-.647-.995-.495-1.529-1.135-1.599-1.783.07-.648.603-1.287 1.599-1.784 2.142-1.066 5.614-1.066 7.757 0 .299.149.556.311.771.481z" fill="#6B7AC7"/><mask id="O" style="mask-type:luminance" maskUnits="userSpaceOnUse" x="217" y="122" width="11" height="6"><path d="M217.054 122.057h10.127v5.013h-10.127v-5.013z" fill="#fff"/></mask><g mask="url(#O)"><path d="M227.182 123.337l-6.464 3.733c-.754-.132-1.462-.348-2.065-.647-.994-.495-1.528-1.135-1.598-1.783.069-.648.602-1.287 1.598-1.784 2.142-1.066 5.615-1.066 7.758 0 .299.149.556.311.771.481z" fill="#fff" opacity=".2"/></g><path d="M227.586 124.846l-4.032 2.33c-.943.087-1.923.052-2.836-.107l6.464-3.732.404 1.509z" fill="#6B7AC7"/><mask id="P" style="mask-type:luminance" maskUnits="userSpaceOnUse" x="220" y="123" width="8" height="5"><path d="M220.718 123.337h6.868v3.886h-6.868v-3.886z" fill="#fff"/></mask><g mask="url(#P)"><path d="M227.586 124.846l-4.032 2.33c-.943.087-1.923.052-2.836-.107l6.464-3.732.404 1.509z" fill="#000" opacity=".1"/></g><mask id="Q" style="mask-type:luminance" maskUnits="userSpaceOnUse" x="226" y="126" width="2" height="2"><path d="M226.081 126.227h1.42v.819h-1.42v-.819z" fill="#fff"/></mask><g mask="url(#Q)"><path d="M227.441 126.474l-.932.538c-.089.051-.242.044-.344-.014-.102-.059-.113-.148-.025-.198l.932-.539c.089-.051.243-.045.344.015.102.058.113.147.025.198z" fill="#000" opacity=".5"/></g><path d="M228.997 132.53l-.548 6.375c-.067.82-.643 1.63-1.729 2.257-2.314 1.336-6.064 1.336-8.378 0-1.16-.67-1.738-1.548-1.735-2.426l-.539-6.18c.089.882.718 1.75 1.885 2.423 2.529 1.459 6.629 1.459 9.156 0 1.179-.68 1.808-1.558 1.888-2.449z" fill="#202B67"/><path d="M227.465 137.485c-.04-.077-.141-.107-.22-.073a2.69 2.69 0 00-1.37 1.263c-.158.3-.262.638-.46.917a1.754 1.754 0 01-.518.49c-.028.017-.017.085.019.1.628.273 1.483.059 2.092-.578.614-.644.779-1.511.457-2.119zm-1.431.331c.249-.23.548-.432.87-.564.132-.054.141-.243.014-.306-.631-.313-1.521-.106-2.149.551-.662.693-.8 1.646-.372 2.254.054.077.169.089.243.031.338-.264.555-.577.777-1.08.146-.331.35-.641.617-.886z" fill="#2A3677"/><path d="M220.018 135.781a7.87 7.87 0 01-2.065-.802c-1.167-.673-1.795-1.541-1.884-2.423l.538 6.18c-.003.878.575 1.756 1.735 2.426.56.323 1.205.567 1.893.734l-.217-6.115z" fill="#202B67"/><mask id="R" style="mask-type:luminance" maskUnits="userSpaceOnUse" x="147" y="118" width="25" height="15"><path d="M147.448 118.036h24.351V132.2h-24.351v-14.164z" fill="#fff"/></mask><g mask="url(#R)"><path d="M171.725 119.442L150.8 131.541l-3.233.658a.1.1 0 01-.107-.145l1.013-1.857 20.928-12.1c.638-.369 2.824 1.056 2.324 1.345z" fill="#000" opacity=".2"/></g><path d="M169.481 116.758c0 .553.389 1.225.867 1.501.186.108.358.139.499.106a.415.415 0 01-.094.074l.208-.119c.088-.057.121-.106.128-.115a.516.516 0 00.086-.171c.004-.007.005-.014.007-.021a.895.895 0 00.033-.254c0-.553-.389-1.225-.867-1.501a.777.777 0 00-.388-.118h-.003c-.019 0-.036 0-.053.003l-.05.008c-.011.002-.021.006-.031.009l-.018.005a.263.263 0 00-.035.015l-.007.003a.341.341 0 00-.033.017l-.182.104a.339.339 0 01.094-.033c-.101.105-.161.271-.161.487z" fill="#6B7AC7"/><path d="M149.47 127.903l1.223 2.125.207-.119 19.853-11.471a.362.362 0 00.093-.073c.101-.105.16-.271.16-.488 0-.553-.388-1.225-.867-1.501a.779.779 0 00-.387-.118.494.494 0 00-.11.012.377.377 0 00-.109.041l-.005.003-.002.001-20.056 11.588z" fill="#6B7AC7"/><path d="M150.084 127.964c-.479-.277-.867-.053-.867.5s.388 1.225.867 1.501c.478.276.866.053.866-.5s-.388-1.225-.866-1.501z" fill="#6B7AC7"/><path d="M148.22 129.252l.021-.025 1.107-1.216.002-.003.008-.01.021-.021.012-.013v.001c.158-.152.409-.165.692-.001.479.276.867.948.867 1.501 0 .321-.131.53-.335.596h.001l-.013.003a.442.442 0 01-.063.014l-.014.003-.004.001-1.603.349c-.081.019-.176 0-.28-.06-.274-.158-.496-.542-.496-.858 0-.113.028-.2.077-.261z" fill="#3F53BA" fill-opacity=".18"/><path d="M164.395 120.191c.001-.001.003-.003.005-.003l.029-.017c.053-.024.124-.016.202.029.17.098.308.338.308.534 0 .087-.027.151-.071.186 0 .002-.002.002-.002.002l-.037.02-15.18 8.773-.866-.501 15.612-9.023z" fill="#202B67"/><path d="M150.873 129.008l-1.223.707-.866-.501 1.655-.956c.192.211.347.478.434.75z" fill="#202B67"/><path d="M147.784 129.83l-.001-.001 1.003-1.103a.27.27 0 01.027-.03c.112-.112.291-.122.495-.004.338.195.612.67.612 1.061 0 .226-.091.373-.233.421l-.009.004-.041.008-1.471.321-.001-.001a.223.223 0 01-.158-.034.616.616 0 01-.279-.483c0-.072.021-.126.056-.159z" fill="#6B7AC7"/><mask id="S" style="mask-type:luminance" maskUnits="userSpaceOnUse" x="147" y="128" width="3" height="3"><path d="M147.728 128.608h2.192v1.902h-2.192v-1.902z" fill="#fff"/></mask><g mask="url(#S)"><path d="M147.784 129.83l-.001-.001 1.003-1.103a.406.406 0 01.027-.03c.112-.112.291-.121.495-.004.338.195.612.67.612 1.061 0 .226-.091.373-.233.422l-.009.003-.041.008-1.471.321-.001-.001a.223.223 0 01-.158-.034.616.616 0 01-.279-.483c0-.072.021-.125.056-.159z" fill="#000" opacity=".1"/></g><path d="M147.728 129.989c0 .178.125.394.279.483a.223.223 0 00.158.034l.001.001.743-.163c.117-.025.194-.135.194-.312 0-.284-.2-.63-.445-.772-.146-.085-.276-.079-.358 0l-.02.022-.497.547.001.001c-.035.033-.056.087-.056.159z" fill="#6B7AC7"/><mask id="T" style="mask-type:luminance" maskUnits="userSpaceOnUse" x="147" y="129" width="2" height="2"><path d="M147.728 129.79h.558v.72h-.558v-.72z" fill="#fff"/></mask><g mask="url(#T)"><path d="M148.007 129.828c-.154-.089-.278-.017-.278.161 0 .177.124.394.278.483.154.088.279.016.279-.161a.616.616 0 00-.279-.483z" fill="#000" opacity=".1"/></g><path d="M167.676 118.297c.055-.033.132-.028.217.021.17.098.308.336.307.531 0 .1-.035.169-.091.2l-3.241 1.871c.044-.035.071-.099.071-.186a.682.682 0 00-.308-.534c-.078-.045-.149-.052-.202-.029l3.247-1.874z" fill="#E0E4FC"/><path d="M167.586 118.495a.68.68 0 00.307.531c.085.048.16.054.214.022.057-.031.093-.1.093-.199a.675.675 0 00-.307-.531c-.085-.049-.162-.054-.217-.021-.056.031-.09.101-.09.198z" fill="#F5F5F5"/><path d="M168.272 117.183v-.001l.01-.006.014-.007 1.278-.738a.228.228 0 01.03-.017l.007-.004c.139-.068.325-.052.529.066.431.249.78.854.78 1.351 0 .25-.089.425-.231.506l-1.294.747-.007.004-.008.004c-.141.075-.33.061-.54-.06-.431-.249-.78-.854-.78-1.351 0-.239.081-.409.212-.494z" fill="#6B7AC7"/><mask id="U" style="mask-type:luminance" maskUnits="userSpaceOnUse" x="168" y="116" width="3" height="4"><path d="M168.06 116.37h2.86v2.764h-2.86v-2.764z" fill="#fff"/></mask><g mask="url(#U)"><path d="M168.272 117.183v-.001l.01-.006.014-.007 1.278-.738.03-.018.007-.003c.139-.068.325-.052.529.066.431.249.78.854.78 1.351 0 .25-.089.425-.231.506l-1.294.747-.007.004-.008.004c-.141.075-.33.061-.54-.06-.431-.249-.78-.854-.78-1.351 0-.239.081-.409.212-.494z" fill="#000" opacity=".05"/></g><mask id="V" style="mask-type:luminance" maskUnits="userSpaceOnUse" x="168" y="117" width="2" height="3"><path d="M168.06 117.12h1.56v2.014h-1.56v-2.014z" fill="#fff"/></mask><g mask="url(#V)"><path d="M168.84 117.227c-.431-.249-.78-.047-.78.45 0 .498.349 1.103.78 1.351.43.249.78.047.78-.45 0-.498-.35-1.103-.78-1.351z" fill="#000" opacity=".1"/></g><path d="M147.374 130.294l.529-.318.001.001c.026-.017.063-.016.104.008a.319.319 0 01.142.247c0 .046-.016.078-.042.093l-.527.319a.203.203 0 01-.207-.35z" fill="#202B67"/><path d="M147.344 130.318l.001-.001c.008-.007.018-.016.028-.022l.002-.001c.024-.01.057-.004.092.016a.316.316 0 01.143.247c0 .045-.015.076-.041.091-.003.002-.007.005-.011.005a.154.154 0 01-.075.017.204.204 0 01-.139-.352z" fill="#2A3677"/></g><mask id="W" style="mask-type:luminance" maskUnits="userSpaceOnUse" x="0" y="0" width="305" height="305"><path d="M0 0h305v305H0V0z" fill="#fff"/></mask><g mask="url(#W)"><path d="M243.641 192.816c0 5.844.872 13.002.872 13.002l2.01 10.067h.003c.19.906.884 1.783 2.089 2.479 2.86 1.651 7.496 1.651 10.355 0 1.205-.696 1.9-1.573 2.09-2.479h.002l2.011-10.067s.871-7.158.871-13.002h-20.303z" fill="#6B7AC7"/><mask id="X" style="mask-type:luminance" maskUnits="userSpaceOnUse" x="243" y="192" width="21" height="28"><path d="M243.641 192.816h20.303v26.786h-20.303v-26.786z" fill="#fff"/></mask><g mask="url(#X)"><path d="M243.641 192.816c0 5.844.872 13.003.872 13.003l2.01 10.066h.003c.19.906.884 1.783 2.089 2.479 2.86 1.651 7.496 1.651 10.355 0 1.205-.696 1.9-1.573 2.09-2.479h.002l2.011-10.066s.871-7.159.871-13.003h-20.303z" fill="#fff" opacity=".3"/></g><mask id="Y" style="mask-type:luminance" maskUnits="userSpaceOnUse" x="244" y="205" width="20" height="15"><path d="M244.529 205.906h18.526v13.697h-18.526v-13.697z" fill="#fff"/></mask><g mask="url(#Y)"><path d="M263.055 205.906l-1.992 9.978h-.003c-.191.906-.886 1.784-2.09 2.482-2.858 1.65-7.494 1.65-10.355 0-.602-.351-1.077-.744-1.424-1.162-.351-.422-.571-.868-.667-1.32l-1.994-9.978c.295 1.092 1.172 2.143 2.632 2.982 3.662 2.114 9.601 2.114 13.261 0 1.46-.839 2.337-1.89 2.632-2.982z" fill="#000" opacity=".05"/></g><path d="M260.971 188.744c3.965 2.289 3.965 6 0 8.289-3.964 2.289-10.392 2.289-14.356 0-3.964-2.289-3.964-6 0-8.289 3.964-2.289 10.392-2.289 14.356 0z" fill="#6B7AC7"/><mask id="Z" style="mask-type:luminance" maskUnits="userSpaceOnUse" x="243" y="187" width="21" height="12"><path d="M243.641 187.028h20.303v11.722h-20.303v-11.722z" fill="#fff"/></mask><g mask="url(#Z)"><path d="M260.971 188.744c3.965 2.289 3.965 6 0 8.289-3.964 2.289-10.392 2.289-14.356 0-3.964-2.289-3.964-6 0-8.289 3.964-2.289 10.392-2.289 14.356 0z" fill="#fff" opacity=".7"/></g><path d="M259.499 189.75c3.151 1.733 3.151 4.544 0 6.278-3.152 1.733-8.261 1.733-11.413 0-3.151-1.734-3.151-4.545 0-6.278 3.152-1.734 8.261-1.734 11.413 0z" fill="#6B7AC7"/><mask id="aa" style="mask-type:luminance" maskUnits="userSpaceOnUse" x="245" y="188" width="17" height="10"><path d="M245.723 188.45h16.14v8.878h-16.14v-8.878z" fill="#fff"/></mask><g mask="url(#aa)"><path d="M259.5 189.75c3.151 1.733 3.151 4.544 0 6.278-3.152 1.733-8.262 1.733-11.413 0-3.152-1.734-3.152-4.545 0-6.278 3.151-1.734 8.261-1.734 11.413 0z" fill="#fff" opacity=".3"/></g><path d="M259.499 193.172c-3.152-1.734-8.261-1.734-11.413 0-.767.422-1.347.908-1.74 1.428.393.519.973 1.005 1.74 1.428 3.152 1.733 8.261 1.733 11.413 0 .768-.423 1.347-.909 1.741-1.428-.394-.52-.973-1.006-1.741-1.428z" fill="#fff"/><path d="M252.865 195.826h-1.883s-4.145-7.637-3.889-15.575c.255-7.939.188-15.131 1.937-23.981.471 4.268 1.782 6.959 3.111 11.063 1.33 4.104 1.801 21.665.724 28.493z" fill="#202B67"/><path d="M252.663 148.88c.292 1.266.263 3.473-.301 5.863-.741 3.139-2.137 6.746-2.265 10.494-.217 6.391 2.116 17.673 1.64 30.589h1.871c3.161-11.591 3.894-17.75 3.781-23.507-.117-5.952-.618-17.963-4.726-23.439zm-2.58 46.946c1.294 1.167 5.074 1.197 6.406 0h-6.406z" fill="#202B67"/><path d="M253.608 195.826c2.63-9.644 3.577-15.525 3.756-20.546-5.184 10.225-4.835 17.687-3.756 20.546zm-1.466 0h-2.059s-3.824-5.383-4.886-12.885c-1.062-7.5.54-14.748.54-18.709 2.538 3.58 3.979 10.787 4.045 15.423.084 5.899.73 13.348 2.36 16.171z" fill="#202B67"/><path d="M253.608 195.826h2.881s2.079-3.733 3.927-8.085c1.268-2.982 3.122-7.838 2.253-16.139-.452-4.33-1.408-7.622-1.408-7.622.404 2.599-1.234 7.523-2.376 9.957-2.396 5.099-6.309 14.823-5.277 21.889z" fill="#202B67"/><path d="M250.519 185.182c-.254-2.692-.514-5.376-.663-8.076-.138-2.521-.466-4.87-1.302-7.262-.406-1.162-.885-2.299-1.368-3.43-.309-.721-.717-1.977-1.526-2.275-.114-.042-.124.153-.101.216.29.789.825 1.509 1.154 2.3.49 1.18.961 2.37 1.37 3.581.851 2.524 1.046 5.004 1.2 7.641.306 5.227.726 10.581 1.974 15.677.036.148.187.106.175-.039-.226-2.786-.65-5.549-.913-8.333zm2.055-36.555c-.06-.159-.183 0-.162.109.771 3.937-1.165 7.992-1.793 11.833-.304 1.863-.519 3.821-.499 5.71.02 1.966-.017 3.951.342 5.891.012.067.07.011.069-.033-.063-2.157-.129-4.25.051-6.403.162-1.929.496-3.829.86-5.729.707-3.685 2.54-7.663 1.132-11.378zm8.738 15.124c-.06-.15-.18-.027-.179.082.017 1.159.042 2.163-.222 3.306-.198.86-.437 1.699-.713 2.538-.557 1.687-1.25 3.319-1.882 4.978-1.256 3.289-2.717 6.577-3.453 10.035-.014.066.054.1.079.029.36-1.052.631-2.115 1.107-3.124.406-.861.772-1.744 1.152-2.617.759-1.749 1.623-3.455 2.343-5.219.692-1.696 1.385-3.421 1.81-5.206.356-1.492.533-3.342-.042-4.802z" fill="#6B7AC7"/><path d="M253.793 153.166c2.389 9.057 2.256 18.606 1.364 27.868-.076-9.193.044-18.784-1.364-27.868zm7.75 19.37c-.061 4.138-1.008 8.215-2.058 12.2-1.134 3.963-2.433 7.938-4.481 11.533 2.894-7.676 5.13-15.649 6.539-23.733z" fill="#202B67"/></g><mask id="ab" style="mask-type:luminance" maskUnits="userSpaceOnUse" x="0" y="0" width="305" height="305"><path d="M0 0h305v305H0V0z" fill="#fff"/></mask><g mask="url(#ab)"><path d="M192.36 231.794c-.025 0-.049-.002-.074-.003a.958.958 0 01-.881-1.026l.905-11.882c.527-6.907 4.375-14.849 8.759-18.08 2.093-1.542 4.24-1.933 6.047-1.098 2.105.971 3.454 3.505 3.697 6.953l.757 10.654a.954.954 0 01-.885 1.022.941.941 0 01-1.021-.885l-.757-10.656c-.194-2.731-1.139-4.681-2.592-5.353-1.146-.528-2.606-.207-4.11.902-3.924 2.891-7.507 10.376-7.988 16.687l-.904 11.881a.958.958 0 01-.953.884z" fill="#202B67"/><path d="M228.6 245.992l-2.147-38.834c-.044-.791-.635-1.754-1.321-2.15l-1.047-.604c-.355-.205-.682-.214-.922-.069l-.001-.004-42.767 24.696 5.147 42.45 42.747-24.68c.212-.129.333-.408.311-.805z" fill="#202B67"/><path d="M179.424 268.326l5.284 3.05c.687.397 1.207.077 1.163-.714l-2.147-38.835c-.044-.791-.635-1.753-1.321-2.15l-1.046-.603c-.686-.396-1.274-.076-1.313.715l-1.792 36.387c-.039.791.486 1.754 1.172 2.15z" fill="#2A3677"/><path d="M197.599 261.149a.478.478 0 01-.477-.451L196.194 245a.479.479 0 01.449-.506c.25-.028.49.186.505.449l.928 15.699a.478.478 0 01-.449.505c-.01.002-.019.002-.028.002zm19.427-10.984a.477.477 0 01-.477-.45l-.927-15.699a.478.478 0 01.955-.056l.926 15.699a.478.478 0 01-.449.505l-.028.001z" fill="#6B7AC7"/><path d="M188.578 252.62c-1.638.945-3.696-.168-3.801-2.056l-1.049-18.741c-.048-.785-.64-1.75-1.329-2.143l-1.042-.602c-.325-.191-.622-.22-.852-.114l42.66-24.634v.01c.239-.154.564-.144.918.066l1.052.603c.679.391 1.272 1.358 1.32 2.151l1.038 18.568a6.997 6.997 0 01-3.491 6.454l-35.424 20.438z" fill="#202B67"/><path d="M204.005 242.155l5.074-2.928.215 2.809-5.084 2.936-.205-2.817z" fill="#6B7AC7"/></g><path d="M80.03 250.48l2.514-1.317-2.556-.597.041 1.914z" fill="#2A3677"/><mask id="ac" style="mask-type:luminance" maskUnits="userSpaceOnUse" x="0" y="0" width="305" height="305"><path d="M0 0h305v305H0V0z" fill="#fff"/></mask><g mask="url(#ac)"><path d="M105.63 254.175s-30.758-12.223-31.058-10.224c-.066.441-.037.836.061 1.195-.027-.036-.06-.07-.086-.105l.7 3.686s2.233 1.721 4.782 1.753l-.041-1.913c.834.306 1.694.673 2.72 1.284 1.988 1.182 3.317 3.323 5.473 5.79 1.571 1.798 4.277 2.566 8.26 2.974 4.285.438 8.011-.494 9.028-1.647.81-.919.325-2.54.161-2.793z" fill="#2A3677"/><path d="M104.769 253.518c-.303-.287-1.426-1.407-2.934-2.616-1.318-1.059-2.86-2.4-4.503-3.469-.657-.427-1.664-1.112-2.235-1.667a23.07 23.07 0 01-1.569-1.67c-1.363-1.613-2.517-3.384-3.52-5.227-.864-1.585-1.091-2.712-1.082-4.507.022-4.391.223-8.789.814-13.145l-14.578.23c.507 2.229.804 6.037 1.123 8.579.484 3.866.623 4.725-.781 8.649-.414 1.155-1.055 2.274-1.067 3.497-.02 1.987 1.645 3.643 3.47 4.55 1.513.751 3.232 1.036 4.703 1.842 1.547.847 2.774 2.165 3.903 3.47 1.067 1.233 1.941 2.703 3.404 3.545 1.62.932 3.142 1.186 4.991 1.484 2.127.342 4.836.291 6.633.089 3.132-.352 5.428-1.548 3.228-3.634z" fill="#FFBEA7"/><path d="M75.76 237.823s-.274.776-1.01 2.303c-.736 1.528-.828 3.028.217 4.492 1.38 1.937 3.01 2.49 4.666 2.851 1.273-4.471-2.033-8.755-3.874-9.646zm27.191 13.591c-1.344-1.023-3.25-2.486-5.545-4.127-.51-.23-2.52-.622-4.678.583-4.407 2.462-5.048 5.752-5.048 5.752s1.049 2.17 3.787 2.996c5.277 2.026 14.543.992 14.545-1.342.001-1.486-1.429-2.621-3.061-3.862z" fill="#202B67"/><path d="M52.266 243.108c.857 1.334-.255 6.365-.059 9.946.178 3.253 1.073 8.925.041 12.14-1.222 3.809-3.709 8.23-8.331 4.661-2.865-2.212-4.508-5.071-4.898-9.756-.272-3.255 1.07-7.758 2.22-11.751 1.346-4.664 1.858-7.159 1.858-7.159l9.169 1.919z" fill="#2A3677"/><path d="M42.776 219.105c-.33 7.591.581 12.92.634 17.781-.052 2.263-.207 4.174-.715 6.564-.658 3.1-1.774 7.413-2.244 9.422-.656 2.808-1.153 4.579-.151 7.729.078.245.195.48.328.711 1.399 2.596 4.956 4.557 6.096 4.242.318.513 1.125.821 2.003.679.125-.02.251-.05.378-.09.127-.039.254-.088.38-.149.757-.36 1.477-1.103 1.894-2.386a6.44 6.44 0 00.183-.686c.829-3.911.227-6.437.15-7.966-.09-1.765.016-4.012.177-6.86.16-2.847.86-11.789 1.881-16.064.758-2.984 1.704-6.726 2.7-10.717l-13.694-2.21z" fill="#FFBEA7"/><path d="M39.758 256.528c2.806-1.199 10.94-1.366 12.236 2.47.034 3.612.057 6.059-2.298 9.202-3.129 4.176-7.21-.251-8.775-3.062-1.566-2.811-1.545-6.664-1.163-8.61zm13.625-136.557c-3.963 6.881-7.16 12.682-8.192 30.86-1.165 20.515-.99 28.327-1.093 30.804-.101 2.477-1.748 7.017-3.147 19.209-1.399 12.192.075 41.751.075 41.751s.99 1.991 5.803 2.443c4.44.418 7.047-1.092 7.047-1.092s8.575-36.986 10.273-44.332c2.4-10.382 5.933-30.96 5.933-30.96l2.169 17.296s-1.406 6.724-.132 17.433a11885.58 11885.58 0 013.638 31.195s2.792 1.903 6.57 2.311c4.29.465 7.182-1.501 7.182-1.501s4.302-42.447 4.394-54.574c.091-12.128-.875-42.39-4.68-60.373l-35.84-.47z" fill="#202B67"/><path d="M87.983 174.007c.11 2.782.26 5.58.191 8.331-.079 2.763-.275 5.559-.441 8.343l-.499 8.364a696.426 696.426 0 00-.812 16.751 448.36 448.36 0 001.851-16.676c.514-5.574.998-11.126 1.235-16.752.024-5.654-.428-11.211-.902-16.792a261.495 261.495 0 00-1.99-16.667l.955 16.736c.138 2.789.302 5.575.412 8.362zm-34.475 31.661a719.075 719.075 0 00-3.408 18.967 719.216 719.216 0 004.428-18.766c1.411-6.273 2.74-12.533 4.062-18.846 1.238-6.328 2.092-12.708 2.78-19.094.7-6.385 1.225-12.782 1.674-19.187-.961 6.352-1.83 12.714-2.704 19.068-.898 6.35-1.805 12.695-3.06 18.97-1.287 6.266-2.571 12.582-3.772 18.888zm3.1-77.854c.69-1.192 1.384-2.387 2.02-3.644-1.076.935-2.02 1.986-2.888 3.092a29.834 29.834 0 00-2.354 3.487c-.688 1.222-1.312 2.481-1.796 3.797-.489 1.31-.868 2.671-1 4.067l1.953-3.66c.663-1.199 1.318-2.396 2.008-3.577.67-1.192 1.374-2.367 2.057-3.562zm3.02 1.49a133.47 133.47 0 011.773-5.856c-1.15 1.732-2.017 3.626-2.76 5.548-.748 1.925-1.338 3.9-1.855 5.889a60.67 60.67 0 00-1.193 6.037c-.293 2.028-.496 4.076-.464 6.133.52-1.991 1.005-3.968 1.488-5.946.493-1.976.955-3.953 1.465-5.918a234.94 234.94 0 011.547-5.887zm14.007 13.733l-3.553 25.617 2.169 17.296-.496-17.547 3.1-21.434c3.024-.68 9.92-4.138 11.844-9.133-4.688 4.681-13.064 5.201-13.064 5.201z" fill="#2A3677"/><path d="M134.107 100.916c-.474-.095-.888.107-1.877.235 1.107-.442 2.695-1.113 3.658-2.251.144-.17.31-.454.338-.675.026-.21.006-.815-.304-.987 0 0 .603-.48 1.133-.884.432-.33 1.356-1.162.686-1.656-.529-.391-1.397-.243-2.368.11.52-.392.889-.76.935-1.042.139-.85-.339-1.376-2.113-.822-1.774.556-6.219 2.156-9.551 1.735-.6-.075-1.819-.07-2.265-.535-.614-.638.506-1.428.973-1.766.447-.323.873-.675 1.274-1.054.449-.423.875-.89 1.125-1.453.252-.563.308-1.24.025-1.788-.153-.295-.428-.548-.749-.364-1.279.731-2.582 1.417-3.865 2.141-1.216.687-2.512 1.35-3.59 2.242-1.24 1.026-2.329 2.535-4.119 3.95-1.791 1.413-3.672 2.645-7.955 4.788-2.365 1.183-6.35 3.403-6.35 3.403s-4.869-10.557-6.814-14.753c-4.031-8.7-7.573-11.558-16.573-13.483l5.391 16.335s3.761 16.876 5.442 22.471c1.68 5.595 4 6.953 5.96 7.151 6.149.544 12.226-6.202 23.049-15.634.882-.769 2.931-2.197 5.833-1.839 1.137.141 2.424.211 3.177.267.911.067 2.586-.059 3.491-.191 1.911-.278 1.909-.136 4.812-1.613.358-.182 1.822-1.03 1.793-1.43-.025-.338-.27-.542-.602-.608z" fill="#FFBEA7"/><path d="M132.229 101.151c-.89.226-1.762.413-2.66.497-.891.124-1.796.139-2.708.264.908.155 1.829.158 2.747.071.91-.124 1.832-.347 2.621-.832zm-16.153-1.379c.048-.17.112-.336.2-.49a3.38 3.38 0 01.658-.791 4.437 4.437 0 011.767-.98c1.406-.398 3.123-.033 4.164 1.016.029.03.041.171-.03.141-1.289-.536-2.598-1.005-4.005-.613-1.164.324-2.051 1.288-2.624 2.32-.053.097-.156.042-.156-.055 0-.201-.029-.35.026-.548zm10.501-2.752c1.472-.144 2.963-.53 4.397-.888 1.375-.344 2.731-.79 4.084-1.212.016-.005.027.035.013.042-1.368.732-2.803 1.214-4.311 1.577-1.389.334-2.758.407-4.175.512-.013.001-.02-.03-.008-.03zm-.439 2.474c1.472-.144 2.963-.53 4.397-.888a38.52 38.52 0 001.642-.454c.534-.159 1.083-.302 1.597-.516l.476-.198c.204-.084.391-.187.61-.235.222-.05.454-.058.68-.024.021.004.049.023.036.04-.288 0-.572.074-.838.182-.179.072-.35.16-.519.25-.152.084-.303.144-.461.216-.488.22-.988.416-1.495.589a22.1 22.1 0 01-1.942.557c-1.389.334-2.758.407-4.175.512-.013 0-.02-.03-.008-.03z" fill="#FF9A79"/><path d="M75.76 76.007c8.565 1 12.324 4.214 15.54 10.207 2.34 4.362 8.08 17.645 8.08 17.645l6.893-3.411s-.775 1.663.487 5.318c1.262 3.655 4.406 4.797 4.406 4.797s-4.806 4.791-8.992 7.842c-4.186 3.051-8.19 5.116-11.565 3.13-3.375-1.986-4.267-5.869-5.47-10.47-1.202-4.601-4.359-18.899-4.359-18.899l-5.02-16.159z" fill="#202B67"/><path d="M90.81 113.039c1.592-3.729 5.154-7.952 8.57-9.18l-.716-1.646c-5.264 2.099-7.105 7.28-7.854 10.826zM48.733 80.79h14.32c.438-6.34.133-12.715-.34-19.056a364.206 364.206 0 00-1.262-13.557c-.128-1.144-.275-2.327-.867-3.314-1.296-2.167-4.473-1.847-6.521-1.125-2.353.83-4.4 2.596-5.435 4.882-1.057 2.338-1.093 4.992-1.077 7.558.05 8.216.447 16.43 1.182 24.612z" fill="#2A3677"/><path d="M70.295 71.265l-.237.216a6.553 6.553 0 01-2.416 1.453c-.846.292-1.496.153-2.338.16-1.248.01-2.611.472-3.84.096-.536-.165-.685-.531-1.025-.95-.465-.574-.956-1.13-1.427-1.698-1.883-2.27-3.696-4.617-5.157-7.187-1.95-3.43-3.263-7.322-3.086-11.263.076-1.69.446-3.416 1.41-4.808.963-1.392 2.6-2.393 4.288-2.27.2-1.097 1.238-3.117 2.082-3.847 3.72-3.217 6.454-3.161 10.242-3.244 2.926-.063 7.087 1.002 9.58 2.534 2.494 1.531 4.37 4.483 4.973 7.346.694 3.293-.7 6.046-2.692 8.19-1.78 1.914-4.719 3.32-5.308 6.103-.184.87-.106 1.78-.275 2.653-.343 1.77-1.638 3.179-2.88 4.486.035.298-1.3 1.495-1.894 2.03z" fill="#2A3677"/><path d="M74.191 77.161s-.769-.728-1.69-.86c-.655-.092-.903-.562-.903-1.688 0-1.125.004-2.043.004-2.043 2.307.12 4.23-.396 5.841-1.77 2.432-2.075 3.77-6.232 3.59-10.724-.12-2.984-.874-4.388-.824-5.059.3-3.993-.002-4.707-.91-6.783-1.634-3.31-5.838-4.557-7.694-1.046-5.16-4.12-10.983 1.153-10.833 7.318.647 5.095-.923 5.33-1.914 5.351-1.428-3.188-4.714-3.177-6.12-1.144-1.272 1.841-1.34 4.763 1.114 7.327 2.323 2.426 4.874.878 4.997.006 0 0 .306 7.303.344 8.672.038 1.369-.252 2.882-1.959 3.424-.005.002.005-.001 0 0-1.741.553-2.155.92-2.155.92s.379.282.642.576c.605.722 1.508 1.362 3.75 4.075 5.765 2.237 12.641 5.34 16.701 7.825 1.408-3.385 2.736-8.915 2.736-8.915-2.124-3.15-4.717-5.462-4.717-5.462z" fill="#FFBEA7"/><path d="M57.717 64.76a1.204 1.204 0 11-2.408 0 1.204 1.204 0 012.408 0z" fill="#fff"/><path d="M77.896 51.894l-2.974-.842a1.483 1.483 0 011.856-1.093 1.624 1.624 0 011.118 1.935zm-13.683.646l2.88-1.225a1.502 1.502 0 00-2.003-.862 1.645 1.645 0 00-.877 2.087z" fill="#2A3677"/><path d="M72.71 64.228l-4.412-1.237c-.39 1.216.28 2.478 1.5 2.82 1.218.34 2.522-.368 2.912-1.583z" fill="#C76668"/><path d="M68.199 63.629c-.028.99.594 1.9 1.599 2.181.334.093.672.102.999.049a3.082 3.082 0 00-2.598-2.23z" fill="#FF9090"/><path d="M75.327 55.921a1.3 1.3 0 001.212 1.334 1.217 1.217 0 001.312-1.164 1.298 1.298 0 00-1.211-1.334 1.218 1.218 0 00-1.313 1.164zm-9.09.525a1.326 1.326 0 001.237 1.361 1.242 1.242 0 001.34-1.188 1.325 1.325 0 00-1.238-1.36 1.243 1.243 0 00-1.34 1.187z" fill="#2A3677"/><path d="M71.602 72.57c-4.914-.316-9.663-1.492-10.966-4.443 0 0 .074 2.658 2.94 4.076 4.137 2.048 8.022 1.873 8.022 1.873l.004-1.506z" fill="#FF9A79"/><path d="M81.302 56.244c-.093.647-.291 2.044-1.557 2.724-.36.194-.812.33-1.371.37-1.484.112-2.374-.423-2.907-1.064a3.302 3.302 0 01-.446-.703 4.066 4.066 0 01-.23-.6c-.268-.9-.458-1.954-.146-2.478.313-.523 1.651-1.155 2.971-1.388 1.005-.168 2.016-.228 2.978.098.211.076.374.163.486.25.433.337.338 1.962.222 2.79zm-10.916.983c-.07.456-.248 1.118-.74 1.683h-.001c-.498.566-1.317 1.033-2.67 1.09-1.37.06-2.21-.432-2.74-1.036-.423-.475-.683-1.084-.866-1.677-.262-.808-.625-2.403-.222-2.79.39-.374 1.518-.832 3.409-.768 1.19.072 2.66.247 3.576 1.026.417.48.392 1.549.254 2.471zM82.12 52.15a19.51 19.51 0 00-.58-.032c-1.87-.081-4.3.005-5.728.509-1.789.633-2.387 1.26-3.4 1.323-1.086.059-1.82-.49-3.819-.904-1.594-.327-4.182-.122-6.151.183-.212.033-.416.068-.611.102-.337.06-.67.507-.604 1.002.066.496.495.87.682 1.086.082.096.165.236.238.439.274.764.528 2.245 1.004 3.048.191.322.46.716.877 1.065.136.112.274.212.428.304.78.474 1.746.609 2.664.556 2.521-.136 3.48-1.333 4.01-2.541.53-1.206.232-2.854 1.395-2.917a.978.978 0 01.215.01c.873.14.894 1.663 1.525 2.726.242.407.537.81.921 1.146.24.216.53.402.814.539.303.144.645.256 1.036.322l.094.016a5.79 5.79 0 001.237.045c2.359-.147 3.065-1.503 3.382-2.352.317-.85.34-2.343.466-3.135a.91.91 0 01.181-.418c.156-.2.45-.674.439-1.171-.012-.497-.394-.929-.715-.95z" fill="#202B67"/><path d="M76.292 60.16l-4.454 1.816-.47-4.483c.223-1 .24-2.01 1.08-2.11l3.844 4.777z" fill="#FF9A79"/><path d="M61.974 53.95l-6.372 3.36c.505.072.978.14 1.664.571l4.895-2.597-.188-1.333z" fill="#202B67"/><path d="M88.337 111.141c-.108-2.103-.18-5.094.05-7.774 0 0 3.205-3.323 3.206-7.612.001-4.496-1.97-7.567-6.677-12.023-4.83-4.573-8.867-6.957-8.867-6.957l-3.763-.522s2.53 4.962 1.149 7.763c-7.374-.554-13.698-3.729-16.29-5.935l-6.138 1.208s-3.741 7.86-2.238 14.365c.814 3.521 2.432 9.483 3.745 14.212a19.473 19.473 0 01-1.257 13.742l-.568 1.168c-1.772 3.661-4.115 10.395-4.115 10.395s10.305 4.617 27.232 2.563c16.927-2.053 18.327-5.041 18.327-5.041l-3.16-14.729a30.364 30.364 0 01-.636-4.823z" fill="#fff"/><path d="M60.184 103.502s1.768 5.418 8.377 5.951c6.044.488 9.011-4.341 9.011-4.341s-1.022 6.889-9.196 5.996c-8.163-.89-8.192-7.606-8.192-7.606z" fill="#3F53BA" fill-opacity=".18"/><path d="M59.184 75.34s6.126 13.93 8.424 20.656c2.298 6.725 1.45 12.207 1.154 24.549-.229 9.505-.718 23.848-.718 23.848s-17.994.429-23.824-7.377c1.288-4.77 5.48-15.936 6.556-18.987 1.075-3.052.39-5.684-1.798-12.565-2.187-6.881-5.423-10.566-5.53-15.714-.106-5.149 4.573-9.802 5.849-10.74 6.887-1.595 9.6-2.048 9.887-3.67zm13.102.912s12.647 11.767 13.962 23.884c1.315 12.119 3.093 38.709 3.093 38.709s1.304-.664 3.773-3.584c-.756-5.496-3.494-27.221-3.074-29.741.42-2.518 6.15-8.429.389-16.333-5.763-7.904-14.668-13.18-14.668-13.18l-4.114-.666c0 .43.261.807.639.912z" fill="#202B67"/><path d="M77.618 78.812a79.506 79.506 0 012.372 2.044c1.553 1.396 3.097 2.802 4.59 4.263a93.874 93.874 0 012.204 2.235c.362.379.717.765 1.064 1.168.335.393.726.823.914 1.414.183.566.19 1.129.162 1.672-.023.547-.126 1.076-.237 1.598a19.349 19.349 0 01-.894 2.846c.843 1.005 1.655 2.02 2.187 3.293.066.168.12.354.15.544.01.194.025.397.006.564-.017.353-.063.69-.102 1.031-.093.676-.2 1.346-.317 2.014-.464 2.67-1.047 5.312-1.684 7.942.421-2.672.85-5.342 1.227-8.013.092-.668.173-1.336.238-2.003.026-.331.058-.666.06-.988a1.88 1.88 0 00-.143-.878c-.495-1.16-1.375-2.234-2.235-3.222l-.134-.154.074-.192c.37-.944.677-1.937.889-2.93.103-.498.182-1 .212-1.494.033-.492.025-.993-.113-1.424-.118-.414-.434-.794-.767-1.19a30.301 30.301 0 00-1.029-1.156c-.702-.763-1.431-1.505-2.16-2.247a221.685 221.685 0 00-4.428-4.407c-1.5-1.443-2.983-2.91-4.575-4.258.86.593 1.665 1.262 2.469 1.928zM56.805 95.755l-.061-1.654-.122-3.308c-.127-4.413-.243-8.043-.26-12.467.358 4.408.618 8.042.867 12.461l.16 3.315.08 1.658.02.408c.004.104.023.207.053.308.068.204.198.4.36.58.679.724 1.703 1.185 2.69 1.593 1.004.397 2.06.715 3.112.959l.363.084-.122.347c-.474 1.358-.913 2.745-1.227 4.141-.075.349-.146.7-.19 1.045-.05.339-.071.71-.006.96l.022.089.065.12.914 1.676c.693 1.277 1.4 2.547 2.075 3.836l2.034 3.863-2.28-3.725c-.762-1.24-1.49-2.5-2.236-3.75l-.557-.939-.278-.47-.208-.353-.063-.169c-.131-.449-.093-.826-.06-1.203.032-.378.1-.743.176-1.106.282-1.329.666-2.614 1.09-3.894a22.41 22.41 0 01-2.877-.863c-1.044-.415-2.106-.884-2.95-1.787a2.368 2.368 0 01-.49-.829 1.866 1.866 0 01-.078-.507l-.016-.419zM49.296 79.01c-6.066 1.065-8.473 4.767-11.14 12.644-3.642 10.762-6.841 21.363-7.53 26.752l14.308-3.913 7.653-15.405s2.872-12.372-3.29-20.078z" fill="#202B67"/><path d="M71.187 98.747l.107.876s-.375-.267-.42-.486c-.047-.219.313-.39.313-.39z" fill="#000"/><path d="M70.487 98.616s-.175.905.818 1.09c.992.186 1.556-.19 1.732.064.176.252-4.18 3.514-4.18 3.514l.422-3.981 1.208-.687z" fill="#6B7AC7"/><mask id="ad" style="mask-type:luminance" maskUnits="userSpaceOnUse" x="68" y="98" width="6" height="6"><path d="M68.857 98.616h4.186v4.667h-4.186v-4.667z" fill="#fff"/></mask><g mask="url(#ad)"><path d="M70.487 98.616s-.175.905.818 1.09c.992.186 1.556-.19 1.732.064.176.252-4.18 3.514-4.18 3.514l.422-3.981 1.208-.687z" fill="#000" opacity=".3"/></g><path d="M74.537 135.614l.006.055-1.95-.768-19.604-8.358-4.3-35.836c-.066-.559.206-.872.61-.698l.73.314 20.081 8.571.002.166 4.425 36.554z" fill="#6B7AC7"/><mask id="ae" style="mask-type:luminance" maskUnits="userSpaceOnUse" x="48" y="89" width="27" height="47"><path d="M48.68 89.961h25.863v45.708H48.68V89.961z" fill="#fff"/></mask><g mask="url(#ae)"><path d="M74.537 135.614l.006.055-1.95-.768-19.604-8.358-4.3-35.836c-.066-.559.206-.872.61-.698l.73.314 20.081 8.571.002.166 4.425 36.554z" fill="#000" opacity=".2"/></g><path d="M66.655 104.64l-1.12-.99 4.69-3.518c.83.481 1.45.718 2.097.349l-5.667 4.159z" fill="#202B67"/><path d="M69.898 99.567L50.01 91.074c-.345-.148-.868-.085-1.168.14l-4.624 3.468 20.157 8.519s.789-.31 1.398.071c.609.382.51-.183.51-.183l3.942-2.957c-.402-.423-.327-.565-.327-.565z" fill="#F5F5F5"/><path d="M66.263 104.453c-.205-.088-.303-.207-.218-.27l.146-.11c.163-.122-.03-.363-.437-.538-.405-.172-.867-.216-1.03-.094l-.147.11c-.084.063-.428-.005-.771-.151l4.317 34.853c.198.085.503.213.503.213a.439.439 0 00.271-.058l.147-.11c.163-.123.623-.081 1.028.091.406.174.6.415.438.538l-.147.11c-.085.063.012.181.219.269l-4.319-34.853z" fill="#6B7AC7"/><mask id="af" style="mask-type:luminance" maskUnits="userSpaceOnUse" x="63" y="103" width="8" height="37"><path d="M63.805 103.371h6.776v35.935h-6.776v-35.935z" fill="#fff"/></mask><g mask="url(#af)"><path d="M66.263 104.453c-.205-.088-.303-.207-.218-.27l.146-.11c.163-.122-.03-.363-.437-.538-.405-.172-.867-.216-1.03-.094l-.147.11c-.084.063-.428-.005-.771-.151l4.317 34.853c.198.085.503.213.503.213a.446.446 0 00.271-.058l.147-.11c.163-.123.623-.081 1.028.091.406.174.6.415.438.538l-.147.11c-.085.063.012.181.219.269l-4.319-34.853z" fill="#000" opacity=".4"/></g><path d="M68.619 138.411l.007.055-.501-.213-21.477-9.172-4.07-33.79c-.068-.558.205-.87.609-.697l.73.313 20.458 8.294 4.244 35.21z" fill="#6B7AC7"/><mask id="ag" style="mask-type:luminance" maskUnits="userSpaceOnUse" x="42" y="94" width="27" height="45"><path d="M42.567 94.546h26.058v43.92H42.567v-43.92z" fill="#fff"/></mask><g mask="url(#ag)"><path d="M68.619 138.411l.006.055-.5-.214-21.477-9.172-4.071-33.789c-.067-.558.206-.87.61-.697l.73.313 20.457 8.294 4.245 35.21z" fill="#000" opacity=".2"/></g><path d="M70.223 139.149l-4.207-34.906 1.306.352 4.195 34.794c-.33.081-.542.071-.698.014l-.596-.254z" fill="#6B7AC7"/><mask id="ah" style="mask-type:luminance" maskUnits="userSpaceOnUse" x="66" y="104" width="6" height="36"><path d="M66.015 104.243h5.501v35.205h-5.5v-35.205z" fill="#fff"/></mask><g mask="url(#ah)"><path d="M70.223 139.149l-4.208-34.906 1.307.352 4.194 34.793c-.329.082-.542.072-.697.015l-.596-.254z" fill="#000" opacity=".2"/></g><path d="M77.742 134.569a.355.355 0 01.002.068.09.09 0 01-.005.045.363.363 0 01-.028.098c-.003.019-.01.033-.017.051a1.658 1.658 0 01-.21.331c-.049.059-.1.114-.158.174-.029.035-.065.066-.1.097l-.085.076a3.186 3.186 0 01-.206.167l-4.024 3.018c-.45.338-.967.587-1.395.695l-4.194-34.794 6.227-4.83 4.192 34.793.001.011z" fill="#6B7AC7"/><path d="M76.311 132.285l-.115-.337c-.06-.187-.122-.156-.375.034l-3.151 2.363c-.211.159-.28.21-.292.476l-.022.432-.41.307-.291-2.421.416-.311.119.43c.059.188.118.176.329.017l3.52-2.64-.078-.638c-.075-.623-.35-.681-1.207-.333l-.068-.558 1.573-.956.462 3.829-.41.306zm-2.416-6.287l-1.759 2 .003.029 1.916-.701-.16-1.328zm1.894 1.947l-.09-.309c-.055-.15-.15-.135-.414-.041l-4.126 1.431-.113-.938 3.78-4.483c.209-.245.307-.358.317-.582l.013-.329.409-.307.273 2.266-.41.307-.088-.301c-.05-.178-.141-.126-.358.116l-.64.729.195 1.628.67-.253c.227-.083.325-.197.34-.44l.016-.364.41-.307.224 1.87-.408.307zm-4.211-2.662c-.237.25-.3.353-.302.586l-.005.324-.416.312-.275-2.281.396-.296.086.343c.044.182.116.16.354-.082l2.97-2.996-.003-.03-3.956 1.793-.133-1.108 3.703-4.009-.004-.03-3.12 1.509c-.245.121-.324.211-.34.447l-.018.406-.388.291-.229-1.892.396-.297.083.314c.041.161.128.2.409.068l4.098-1.914.154 1.276-3.462 3.733.002.022 3.708-1.694.146 1.21-3.854 3.995z" fill="#fff"/><path d="M67.904 109.426l.505 4.194c2.574-1.234 4.727-2.749 6.246-4.685l-.505-4.194c-1.52 1.936-3.673 3.451-6.246 4.685z" fill="#6B7AC7"/><mask id="ai" style="mask-type:luminance" maskUnits="userSpaceOnUse" x="67" y="104" width="8" height="10"><path d="M67.904 104.741h6.75v8.879h-6.75v-8.879z" fill="#fff"/></mask><g mask="url(#ai)"><path d="M67.904 109.426l.505 4.194c2.574-1.234 4.727-2.749 6.246-4.685l-.505-4.194c-1.52 1.936-3.673 3.451-6.246 4.685z" fill="#fff" opacity=".4"/></g><path d="M68.597 115.174l.188 1.565c2.574-1.235 4.726-2.749 6.246-4.685l-.189-1.564c-1.519 1.936-3.672 3.45-6.245 4.684z" fill="#6B7AC7"/><mask id="aj" style="mask-type:luminance" maskUnits="userSpaceOnUse" x="68" y="110" width="8" height="7"><path d="M68.597 110.49h6.434v6.248h-6.434v-6.248z" fill="#fff"/></mask><g mask="url(#aj)"><path d="M68.597 115.175l.188 1.564c2.574-1.235 4.726-2.749 6.246-4.685l-.189-1.564c-1.519 1.936-3.672 3.451-6.245 4.685z" fill="#fff" opacity=".4"/></g><path d="M68.719 103.9l-.408-.544c-.582.436-1.19.626-1.385.627a.904.904 0 00-.188-.556c-.192-.255-.495-.422-.72-.517a2.603 2.603 0 00-1.022-.214c-.024.001-.05 0-.073.004-.218.01-.423.07-.587.186L45.288 94.75l-.648-.274-.825-.353c-.17-.073-.317-.06-.423.02l-.636.477c.125-.094.273-.09.431-.027l.012.005 2.183.935 18.422 7.866c.343.146.69.218.774.154l.147-.11c.07-.053.198-.076.354-.066.198.004.444.061.674.157.406.175.6.416.437.538l-.146.11c-.085.063.012.182.218.269l.366.154c.403.174 1.34-.143 2.09-.705z" fill="#6B7AC7"/><mask id="ak" style="mask-type:luminance" maskUnits="userSpaceOnUse" x="42" y="94" width="27" height="11"><path d="M42.756 94.075H68.72v10.578H42.756V94.075z" fill="#fff"/></mask><g mask="url(#ak)"><path d="M68.719 103.899l-.408-.543c-.582.436-1.19.626-1.385.627a.902.902 0 00-.188-.556c-.192-.255-.495-.422-.72-.517a2.586 2.586 0 00-1.022-.214c-.024.001-.05 0-.073.004-.218.01-.423.07-.587.186L45.288 94.75l-.648-.275-.825-.353c-.17-.072-.317-.06-.423.02l-.636.477c.125-.094.273-.09.431-.026l.012.004 2.183.936 18.422 7.866c.343.146.69.217.774.154l.147-.11c.07-.053.198-.076.354-.066.198.004.444.061.674.157.406.174.6.416.437.538l-.146.11c-.085.063.012.182.218.269l.366.154c.403.174 1.34-.143 2.09-.706z" fill="#000" opacity=".3"/></g><path d="M68.31 103.356l4.025-3.018a6.63 6.63 0 00.164-.132l.126-.116c.005-.004.008-.006.011-.013-.468.275-1.164.152-1.637-.054-.215-.089-.512-.252-.703-.508a.91.91 0 01-.186-.621l-.064-.028c-.044-.019-.085-.034-.128-.053l-18.422-7.865s-.483-.208-1.057-.452c-.098-.041-.201-.087-.304-.129-.311-.131-.624-.266-.892-.38-.137-.041-.264-.035-.373.047l.174-.13.462-.347c.09-.067.21-.087.348-.046.003-.001.005.002.01.002.105.044.215.094.33.14l.205.087c.121.054.243.103.355.15.08.034.153.063.219.094.057.026.11.045.155.067l.273.114 14.63 6.252 4.672 1.994c.334.14.539.305.473.376a.17.17 0 01-.024.022l-.142.107c-.177.132.008.38.413.551.396.171.705.142.88.02l.175-.131c.09-.067.208-.1.267-.073.03.011.069.029.107.046.064.03.145.062.231.099.087.037.186.077.287.121.132.057.19.158.18.292a.385.385 0 01-.032.144l-.003.002a.175.175 0 01-.014.049.878.878 0 01-.089.164 1.772 1.772 0 01-.28.341c-.028.035-.064.066-.1.098l-.083.075a3.57 3.57 0 01-.206.167l-4.025 3.019-.407-.544z" fill="#6B7AC7"/><mask id="al" style="mask-type:luminance" maskUnits="userSpaceOnUse" x="48" y="89" width="26" height="15"><path d="M48.87 89.49h24.682v14.41H48.87V89.49z" fill="#fff"/></mask><g mask="url(#al)"><path d="M68.311 103.356l4.024-3.018c.057-.043.113-.089.165-.132l.126-.116a.025.025 0 00.01-.013c-.468.276-1.163.152-1.636-.054-.216-.089-.513-.252-.704-.508a.91.91 0 01-.186-.62l-.063-.029c-.044-.019-.085-.034-.129-.052l-18.422-7.866s-.483-.208-1.056-.452c-.099-.041-.202-.087-.305-.128-.311-.132-.624-.267-.892-.38-.137-.042-.264-.036-.372.046l.173-.13.462-.347c.09-.067.211-.087.349-.045.003-.002.004 0 .01.001.104.044.214.094.329.14l.206.087c.12.054.242.103.354.15.08.034.153.063.22.094.057.026.11.046.155.067l.273.114 14.63 6.252 4.671 1.995c.335.14.54.304.474.375a.173.173 0 01-.025.022l-.142.107c-.177.132.008.38.413.552.396.17.706.142.881.018l.174-.13c.09-.067.208-.1.267-.073.03.011.07.029.108.047l.23.098c.088.037.186.077.287.121.132.057.191.158.181.292a.38.38 0 01-.032.144l-.003.002a.175.175 0 01-.014.049.848.848 0 01-.09.164 1.772 1.772 0 01-.279.341.926.926 0 01-.1.098l-.084.075a3.194 3.194 0 01-.206.167l-4.024 3.019-.408-.544z" fill="#000" opacity=".3"/></g><path d="M47.041 107.63l.35.069c.192.042.196-.028.158-.342l-.47-3.91c-.032-.263-.043-.347-.267-.491l-.363-.236-.061-.507 2.241.957.063.516-.433-.112c-.191-.042-.21.014-.18.277l.528 4.367.59.253c.578.247.766.038.893-.879l.517.22.04 1.84-3.545-1.514-.061-.508zm6.653 1.051l-.852-2.524-.027-.011-.351 2.01 1.23.525zm-2.633.666l.312.077c.158.027.192-.062.243-.338l.824-4.289.869.372 1.992 5.515c.107.303.157.444.345.565l.28.176.06.507-2.099-.896-.061-.508.306.074c.178.044.179-.059.078-.368l-.31-.919-1.51-.644-.114.705c-.042.239.007.38.21.516l.307.195.061.507-1.731-.739-.061-.508zm4.411-2.315c-.098-.331-.156-.436-.357-.554l-.277-.167-.063-.516 2.113.902.059.491-.34-.097c-.18-.053-.197.02-.106.348l1.11 4.071.026.011.426-4.322 1.026.438 1.62 5.212.027.012.254-3.456c.018-.274-.02-.387-.217-.519l-.342-.218-.058-.483 1.752.749.06.491-.314-.086c-.16-.044-.237.011-.264.321l-.39 4.506-1.183-.505-1.501-4.865-.02-.008-.388 4.058-1.12-.479-1.533-5.335z" fill="#fff"/><path d="M30.828 118.406c-.02 4.069.604 4.746 5.067 7.033 4.464 2.288 15.726 5.808 24.648 6.669 5.814.561 8.807.288 11.064-.606 3.105-1.23 6.698-4.843 5.825-10.225.967-2.808-.505-3.188-1.714-3.494l.218 1.838s-2.608 1.775-5.01 1.808c-2.404.033-.173-2.781.258-4.479.431-1.697.343-2.677-1.048-3.48-.78-.007-1.038 1.071-3.462 3.484-1.842 1.833-3.277 5.177-6.13 4.789-2.24-.304-15.561-6.489-15.561-6.489l-.605-5.02-13.55 8.172z" fill="#FFBEA7"/><path d="M30.626 118.406c-.172 2.536.276 3.866 1.447 4.958 1.172 1.092 5.995 3.366 8.958 4.399 2.963 1.034 10.736 3.136 12.225 3.412-1.544-2.412-1.166-7.167.144-9.303 1.31-2.136 3.036-1.616 3.036-1.616l-11.454-5.002-.85-7.065-13.506 10.217z" fill="#202B67"/></g><mask id="am" style="mask-type:luminance" maskUnits="userSpaceOnUse" x="0" y="0" width="305" height="305"><path d="M0 0h305v305H0V0z" fill="#fff"/></mask><g mask="url(#am)"><path d="M131.318 30.872L104.366 46.4c-.595.343-1.076 1.178-1.076 1.865v30.902c0 .686.484 1.517 1.082 1.854l2.094 1.184c.598.338 1.565.333 2.159-.01l26.952-15.527c.595-.344 1.076-1.179 1.076-1.865V33.9c0-.686-.484-1.517-1.082-1.854l-2.094-1.184c-.598-.338-1.564-.333-2.159.01z" fill="#6B7AC7"/><mask id="an" style="mask-type:luminance" maskUnits="userSpaceOnUse" x="103" y="30" width="34" height="20"><path d="M103.626 30.61h33.013v19.001h-33.013v-19z" fill="#fff"/></mask><g mask="url(#an)"><path d="M136.639 33.705c-.085-.542-.527-.736-1.064-.428l-26.948 15.53c-.298.173-.566.466-.761.804l-4.24-2.446c.195-.323.453-.602.741-.766l26.953-15.528c.592-.344 1.556-.348 2.158-.01l2.092 1.183c.542.309.995 1.02 1.069 1.66z" fill="#fff" opacity=".4"/></g><path d="M103.288 58.854l-7.58 8.94c-.463.47-.302 1.17.163 1.473.178.116 4.234 2.472 4.234 2.472l7.443-10.394-4.26-2.49z" fill="#6B7AC7"/><mask id="ao" style="mask-type:luminance" maskUnits="userSpaceOnUse" x="95" y="58" width="13" height="14"><path d="M95.431 58.854h12.117v12.885H95.431V58.854z" fill="#fff"/></mask><g mask="url(#ao)"><path d="M103.288 58.854l-7.58 8.94c-.463.47-.303 1.17.163 1.473.178.116 4.234 2.472 4.234 2.472l7.443-10.394-4.26-2.49z" fill="#fff" opacity=".4"/></g><path d="M135.577 33.279l-26.952 15.527c-.594.343-1.077 1.178-1.077 1.865v10.674l-7.58 8.94c-.64.65-.087 1.741.815 1.61l6.765-1.26v10.938c0 .687.483.965 1.077.622l26.952-15.527c.594-.344 1.076-1.178 1.076-1.865V33.9c0-.687-.482-.965-1.076-.621z" fill="#fff"/><path d="M136.058 33.132a.973.973 0 00-.481.147l-26.952 15.527c-.594.343-1.077 1.178-1.077 1.865v10.674l-7.58 8.94c-.604.615-.145 1.622.668 1.622.049 0 .097-.004.147-.011l6.765-1.26v10.938c0 .486.243.768.596.768a.98.98 0 00.481-.147l26.952-15.527c.594-.344 1.076-1.178 1.076-1.865V33.9c0-.487-.242-.768-.595-.768zm-.229.952v30.719c0 .394-.323.954-.664 1.15L108.373 81.39V69.644l-.975.181-6.762 1.258c-.064 0-.095-.052-.108-.083-.032-.076.007-.116.028-.137l.021-.021.02-.023 7.58-8.94.196-.231V50.67c0-.395.323-.954.664-1.151l26.792-15.436z" fill="#6B7AC7"/><path d="M126.111 54.19l2.558-8.91 2.556 5.958-5.114 2.952zm-7.341 4.156l-5.114 2.952 2.558-8.91 2.556 5.958zm13.167-7.164l-.001-.006-2.972-6.607c.006-.035.027-.07.027-.103v-.247c0-.224-.136-.328-.305-.23l-5.342 3.083c-.122-.33-.393-.488-.739-.433v-1.076c0-.403-.187-.62-.418-.487-.231.133-.418.568-.418.97v1.076a2.902 2.902 0 00-.739 1.287l-5.342 3.084c-.169.097-.305.359-.305.583v.065c.009.08.052.174.149.227l-2.77 9.53c-.005.012.004.022.001.033-.006.027-.02.05-.02.077 0 3.11 2.549 1.68 3.47 1.148.921-.532 3.317-1.988 3.317-4.701a.313.313 0 00-.049-.164l-.001-.006-2.828-6.288 4.418-2.551c.137.263.388.384.699.335v9.632l-.501.306v5.967l-1.478.853c-.514.297-.93 1.092-.93 1.776v.634l-.454.263c-1.003.578-1.816 2.132-1.816 3.469v.18l11.194-6.463v-.18c0-1.337-.813-1.952-1.816-1.373l-.454.263v-.634c0-.684-.417-.999-.93-.702l-1.478.853v-6.026l-.501.305v-9.606c.31-.31.562-.72.699-1.142l4.612-2.663-2.699 9.297c-.004.012.004.022.001.034-.006.025-.02.048-.02.076 0 3.11 2.549 1.68 3.471 1.147.921-.532 3.316-1.987 3.316-4.7a.312.312 0 00-.048-.165z" fill="#202B67"/></g></svg>