<svg width="55" height="16" fill="none" xmlns="http://www.w3.org/2000/svg"><path d="M4.262 1.733H8.8c.412 0 1.65-.133 2.2 1.734.412 1.2.963 3.066 1.787 5.866h.275C13.887 6.4 14.575 4.4 14.85 3.467c.55-1.867 1.925-1.734 2.475-1.734h4.262v12.8h-4.4v-7.6h-.274l-2.338 7.6h-3.3l-2.338-7.6h-.412v7.6H4.262m19.113-12.8h4.4v7.6h.413l2.887-6.266c.55-1.2 1.787-1.334 1.787-1.334h4.125v12.8h-4.4v-7.6h-.275L29.425 13.2c-.55 1.2-1.925 1.333-1.925 1.333h-4.125M42.9 10.667v3.866h-4.125V7.867H52.25c-.55 1.6-2.475 2.8-4.675 2.8" fill="#0F754E"/><path d="M52.525 7.067c.55-2.4-1.1-5.334-4.675-5.334H38.5c.275 2.8 2.75 5.334 5.362 5.334" fill="url(#paint0_linear_238_9836)"/><defs><linearGradient id="paint0_linear_238_9836" x1="50.875" y1="0" x2="39.875" y2="0" gradientUnits="userSpaceOnUse"><stop stop-color="#1F5CD7"/><stop offset="1" stop-color="#02AEFF"/></linearGradient></defs></svg>