<svg width="18" height="17" fill="none" xmlns="http://www.w3.org/2000/svg"><path d="M6.14 5.238l.056.497.283-.032.117-.26-.455-.205zm0 0l.456.206h0v-.001l.001-.002.003-.006.011-.025.043-.095.161-.357.548-1.212A8797.533 8797.533 0 018.79.593a.027.027 0 01.004.006l1.422 3.147.549 1.213.16.356.044.096.01.024.004.007v.001h0l.456-.205m-5.297 0l.055.497h0-.01l-.027.004-.104.011-.388.043-1.323.147a20542.699 20542.699 0 00-3.44.382h0c.787.718 1.77 1.614 2.558 2.33l.984.896.29.263.077.071.02.018.005.005.001.001h0l-.336.37.337-.37.956.87H4.91l-.026.123a1991.398 1991.398 0 00-.969 4.691h.001l3.006-1.711 1.156-.66.34-.193.09-.052.024-.014.006-.003.002-.001h0l.248.434m2.65-8.152l-.055.497h.01l.026.004.105.011.388.043 1.323.147a4109.02 4109.02 0 013.44.383 7211.923 7211.923 0 01-2.558 2.33l-.984.895-.29.263-.077.071-.02.018-.005.005-.002.001h0l.336.37m-1.637-5.038l-.455.206.117.26.283.03.055-.496zm-2.65 8.152l.248-.434h.002l.006.004.023.014.091.052.34.193 1.156.66a11878.488 11878.488 0 003.007 1.712v-.003l-.699-3.386-.269-1.303-.079-.383-.02-.103-.006-.026-.002-.007v-.002h0l.49-.102M8.787 13.39l-.248-.434.248-.142.248.142-.248.434zm4.287-3.114l-.49.102-.057-.28.211-.191.336.37zm-9.159 5.317h0v-.001.001z" stroke="#44B54F"/></svg>