<svg width="15" height="15" fill="none" xmlns="http://www.w3.org/2000/svg"><circle cx="7.5" cy="7.5" r="7.5" fill="#F4F7FB"/><path d="M7.002 9.714c0-.287.018-.546.055-.778.044-.231.11-.447.197-.646.095-.208.219-.407.372-.599.16-.199.354-.406.58-.622.299-.287.503-.534.612-.742.11-.215.164-.455.164-.718 0-.223-.036-.427-.109-.61a1.425 1.425 0 00-.306-.491 1.157 1.157 0 00-.46-.323 1.382 1.382 0 00-.58-.12c-.926 0-1.437.603-1.531 1.807H5c.036-.893.277-1.595.722-2.106C6.174 3.256 6.78 3 7.538 3c.358 0 .686.068.985.203.299.128.558.312.777.551.219.231.39.51.514.838.124.319.186.67.186 1.053a2.292 2.292 0 01-.23 1.053c-.08.16-.186.323-.317.49-.131.16-.292.336-.481.527-.19.184-.347.355-.47.515a2.766 2.766 0 00-.307.455 1.818 1.818 0 00-.153.479 3.01 3.01 0 00-.044.55h-.996zm-.022.766h1.03V12H6.98v-1.52z" fill="#3F53BA"/></svg>