<svg width="177" height="48" fill="none" xmlns="http://www.w3.org/2000/svg"><path d="M103.566 12.43a2.69 2.69 0 00-1.234.273 2.448 2.448 0 00-.898.774 3.72 3.72 0 00-.547 1.226 6.414 6.414 0 00-.188 1.617c0 .808.099 1.498.297 2.07.203.568.516 1.003.938 1.305.421.297.966.446 1.632.446a6.28 6.28 0 001.391-.157 13.13 13.13 0 001.523-.445v2.031a7.33 7.33 0 01-1.492.446 8.794 8.794 0 01-1.648.14c-1.177 0-2.146-.242-2.906-.726-.756-.49-1.316-1.172-1.68-2.047-.365-.88-.547-1.906-.547-3.078 0-.865.117-1.657.352-2.375a5.379 5.379 0 011.03-1.867 4.554 4.554 0 011.681-1.22c.666-.286 1.432-.429 2.296-.429a6.83 6.83 0 011.704.219c.572.14 1.119.336 1.64.586l-.781 1.969c-.427-.204-.857-.38-1.289-.532a3.847 3.847 0 00-1.274-.226zm8.766.672c.807 0 1.503.156 2.086.468a3.208 3.208 0 011.352 1.344c.317.589.476 1.307.476 2.156v1.157h-5.633c.026.671.227 1.2.602 1.585.38.38.906.57 1.578.57.557 0 1.068-.056 1.531-.171a7.84 7.84 0 001.43-.516v1.844c-.432.214-.886.37-1.359.469-.469.099-1.04.148-1.711.148-.875 0-1.651-.161-2.329-.484a3.616 3.616 0 01-1.585-1.477c-.381-.661-.571-1.494-.571-2.5 0-1.02.172-1.87.516-2.547.349-.682.833-1.192 1.453-1.53.62-.345 1.341-.516 2.164-.516zm.016 1.695c-.464 0-.849.148-1.157.445-.302.297-.476.763-.523 1.399h3.344a2.351 2.351 0 00-.196-.946 1.466 1.466 0 00-.546-.656c-.24-.161-.547-.242-.922-.242zm9.015-1.695c.63 0 1.219.083 1.766.25.547.161.989.414 1.328.757.339.339.508.776.508 1.313 0 .526-.159.945-.477 1.258-.317.307-.739.528-1.265.664v.078c.369.088.703.208 1 .36.302.15.541.359.718.624.177.266.266.615.266 1.047a2.2 2.2 0 01-.461 1.344c-.307.406-.779.734-1.414.984-.63.25-1.44.375-2.43.375-.468 0-.911-.02-1.328-.062a9.438 9.438 0 01-1.133-.18 5.202 5.202 0 01-.898-.297v-1.969c.359.167.802.32 1.328.461a6.6 6.6 0 001.695.211c.433 0 .823-.03 1.172-.093.354-.063.633-.167.836-.313a.707.707 0 00.313-.602.716.716 0 00-.274-.578c-.177-.156-.45-.27-.82-.343-.365-.078-.828-.118-1.391-.118h-.922v-1.648h.875c.792 0 1.404-.065 1.836-.195.433-.13.649-.37.649-.72 0-.28-.138-.491-.414-.632-.276-.14-.732-.21-1.367-.21-.412 0-.865.049-1.36.148a7.127 7.127 0 00-1.39.406l-.704-1.664a10.493 10.493 0 011.641-.469c.594-.125 1.3-.187 2.117-.187zm13.649 4.515c0 .73-.099 1.375-.297 1.938a3.822 3.822 0 01-.852 1.43 3.58 3.58 0 01-1.343.874c-.521.198-1.11.297-1.766.297-.615 0-1.18-.099-1.695-.297a3.761 3.761 0 01-1.336-.875 4.075 4.075 0 01-.875-1.43c-.203-.562-.305-1.208-.305-1.937 0-.969.172-1.789.516-2.46a3.536 3.536 0 011.468-1.532c.636-.349 1.394-.523 2.274-.523.817 0 1.541.174 2.172.523.635.349 1.132.86 1.492 1.531.364.672.547 1.492.547 2.461zm-6.039 0c0 .573.062 1.055.187 1.445.125.391.32.685.586.883.266.198.612.297 1.039.297.422 0 .763-.099 1.024-.297.265-.198.458-.492.578-.883.125-.39.187-.872.187-1.445 0-.578-.062-1.057-.187-1.437-.12-.386-.313-.675-.578-.867-.266-.193-.612-.29-1.039-.29-.631 0-1.089.217-1.375.649-.282.432-.422 1.08-.422 1.945zm10.39-4.351v3.359h3.328v-3.36h2.383V22h-2.383v-3.602h-3.328V22h-2.383v-8.734h2.383zm10.594 0v3.359h3.328v-3.36h2.383V22h-2.383v-3.602h-3.328V22h-2.383v-8.734h2.383zm11.789-.18c1.172 0 2.07.255 2.695.766.625.51.938 1.286.938 2.328V22h-1.664l-.461-1.188h-.063c-.25.313-.505.568-.765.766a2.63 2.63 0 01-.899.438c-.338.093-.75.14-1.234.14a3.17 3.17 0 01-1.391-.297 2.213 2.213 0 01-.961-.906c-.234-.411-.351-.932-.351-1.562 0-.927.325-1.61.976-2.047.651-.443 1.628-.688 2.93-.735l1.516-.047v-.382c0-.459-.12-.795-.36-1.008-.239-.214-.573-.32-1-.32-.422 0-.836.06-1.242.18a9.69 9.69 0 00-1.219.452l-.789-1.609a6.782 6.782 0 011.555-.578 7.54 7.54 0 011.789-.211zm1.266 4.867l-.922.031c-.771.021-1.307.16-1.61.414-.296.256-.445.592-.445 1.008 0 .365.107.625.32.782.214.15.493.226.836.226.511 0 .941-.151 1.289-.453.355-.302.532-.732.532-1.29v-.718zM169.168 22h-2.578l2.351-3.453a3.293 3.293 0 01-.836-.516 2.53 2.53 0 01-.632-.843c-.162-.339-.243-.745-.243-1.22 0-.869.329-1.536.985-2 .661-.468 1.513-.702 2.555-.702h4.062V22h-2.383v-3.25h-1.312L169.168 22zm.398-6.016c0 .365.144.651.43.86.292.203.667.304 1.125.304h1.328v-2.203h-1.633c-.427 0-.742.104-.945.313a.993.993 0 00-.305.726zm-67.492 22.172c-.864 0-1.601-.156-2.21-.468-.61-.318-1.074-.808-1.391-1.47-.318-.66-.477-1.507-.477-2.538 0-1.068.18-1.938.54-2.61.364-.677.866-1.174 1.507-1.492.646-.318 1.393-.476 2.242-.476.604 0 1.125.06 1.563.18.442.114.828.252 1.156.413l-.703 1.844a11.087 11.087 0 00-1.047-.367 3.291 3.291 0 00-.969-.149c-.417 0-.763.1-1.039.297-.276.193-.482.485-.617.875-.136.39-.203.88-.203 1.47 0 .577.073 1.056.219 1.437.145.38.356.664.632.851.276.182.612.274 1.008.274a4.11 4.11 0 001.32-.196 5.14 5.14 0 001.125-.562v2.039a3.903 3.903 0 01-1.148.492c-.396.104-.898.156-1.508.156zm10.414-8.89h2.625l-3.461 4.187L115.418 38h-2.703l-3.57-4.43V38h-2.383v-8.734h2.383v4.242l3.343-4.242zm6.485 0v3.453c0 .177-.008.4-.024.672a31.914 31.914 0 01-.156 2l4.031-6.125h2.867V38h-2.304v-3.484c0-.287.01-.602.031-.946.021-.349.044-.677.07-.984.026-.307.045-.54.055-.695L119.527 38h-2.859v-8.734h2.305zm17.078 0v6.992h1.281v4.875h-2.141V38h-5.875v3.133h-2.14v-4.875h.734a9.04 9.04 0 00.969-2.016c.266-.755.479-1.554.641-2.398.166-.85.286-1.709.359-2.578h6.172zm-2.383 1.789h-1.789a22.62 22.62 0 01-.32 1.875 15.23 15.23 0 01-.469 1.734 10.853 10.853 0 01-.688 1.594h3.266v-5.203zm10.883-1.79h2.625l-3.461 4.188L147.48 38h-2.703l-3.57-4.43V38h-2.383v-8.734h2.383v4.242l3.344-4.242zm7.758-.18c1.171 0 2.07.256 2.695.767.625.51.937 1.286.937 2.328V38h-1.664l-.461-1.188h-.062c-.25.313-.505.568-.766.766a2.63 2.63 0 01-.898.438c-.339.093-.75.14-1.235.14-.515 0-.979-.099-1.39-.297a2.208 2.208 0 01-.961-.906c-.234-.411-.352-.932-.352-1.562 0-.927.326-1.61.977-2.047.651-.443 1.628-.688 2.93-.735l1.515-.047v-.382c0-.459-.12-.795-.359-1.008-.24-.214-.573-.32-1-.32-.422 0-.836.06-1.242.18-.407.119-.813.27-1.219.452l-.789-1.609a6.765 6.765 0 011.555-.578 7.535 7.535 0 011.789-.211zm1.265 4.868l-.922.031c-.77.021-1.307.16-1.609.414-.297.256-.445.592-.445 1.008 0 .365.106.625.32.782.214.15.492.226.836.226.51 0 .94-.151 1.289-.453.354-.302.531-.732.531-1.29v-.718zM8.629 43l3.773-18.047c.172-.734.32-1.39.446-1.969a37.4 37.4 0 01.398-1.664c.14-.53.297-1.093.469-1.687-.266.328-.547.656-.844.984-.281.328-.578.64-.89.938l-3.165 3.023-3.609-4.945L16.738 8.734h7.055L16.503 43H8.63zm16.43 0l14.554-27.164H28.668l1.477-7.055h18.96l-1.148 5.274L33.285 43H25.06zm28.64 0L72.99 8.734h5.952L59.652 43H53.7zm1.29-13.242c-1.891 0-3.329-.586-4.313-1.758-.985-1.172-1.477-2.953-1.477-5.344 0-1.062.117-2.234.352-3.515a22.11 22.11 0 011.078-3.844 15.68 15.68 0 011.852-3.516c.75-1.062 1.64-1.914 2.671-2.554 1.047-.657 2.242-.985 3.586-.985 1.766 0 3.172.57 4.219 1.711 1.062 1.14 1.594 2.985 1.594 5.531 0 .97-.11 2.079-.328 3.329a20.958 20.958 0 01-1.055 3.796 16.15 16.15 0 01-1.828 3.54 9.56 9.56 0 01-2.696 2.624c-1.046.657-2.265.985-3.656.985zm.726-5.297c.36 0 .695-.227 1.008-.68.312-.453.593-1.039.843-1.758.266-.734.493-1.515.68-2.343.188-.828.328-1.633.422-2.414.11-.782.164-1.438.164-1.97 0-.577-.063-1-.188-1.265a.648.648 0 00-.632-.398c-.344 0-.68.226-1.008.68-.313.453-.602 1.039-.867 1.757a18.447 18.447 0 00-.68 2.32 30.173 30.173 0 00-.445 2.391 14.23 14.23 0 00-.164 1.969c0 .594.078 1.031.234 1.313.172.265.383.398.633.398zm18.351 18.914c-1.922 0-3.375-.578-4.359-1.734-.969-1.172-1.453-2.961-1.453-5.368 0-1.39.14-2.773.422-4.148.281-1.39.687-2.695 1.218-3.914.532-1.234 1.18-2.32 1.946-3.258.781-.953 1.664-1.703 2.648-2.25.985-.547 2.07-.82 3.258-.82 1.766 0 3.172.57 4.219 1.71 1.062 1.126 1.594 2.97 1.594 5.532 0 1.016-.118 2.156-.352 3.422a20.942 20.942 0 01-1.055 3.797 15.144 15.144 0 01-1.828 3.492 9.39 9.39 0 01-2.695 2.578c-1.031.64-2.219.961-3.563.961zm.703-5.32c.36 0 .696-.22 1.008-.657.313-.437.594-1.007.844-1.71.266-.72.492-1.485.68-2.297.187-.828.328-1.633.422-2.414a15.04 15.04 0 00.164-2.04c0-.578-.07-1-.211-1.265-.14-.281-.36-.422-.657-.422-.406 0-.78.258-1.125.773-.328.5-.617 1.149-.867 1.946a22.89 22.89 0 00-.633 2.46c-.156.86-.28 1.65-.375 2.368-.078.703-.117 1.226-.117 1.57 0 .578.07 1.008.211 1.29.156.265.375.398.656.398z" fill="#44B54F"/></svg>