<svg width="35" height="43" fill="none" xmlns="http://www.w3.org/2000/svg"><path d="M0 9.36l5.23 9.307v5.678l-5.224 9.29L0 9.36z" fill="#5B57A2"/><path d="M20.078 15.28l4.9-2.99 10.028-.01-14.928 9.107V15.28z" fill="#D90751"/><path d="M20.05 9.305l.027 12.323-5.241-3.207V0l5.213 9.305z" fill="#FAB718"/><path d="M35.005 12.28l-10.029.01-4.927-2.985L14.836 0l20.169 12.28z" fill="#ED6F26"/><path d="M20.077 33.686v-5.979l-5.241-3.146L14.839 43l5.238-9.314z" fill="#63B22F"/><path d="M24.965 30.722L5.23 18.667 0 9.36l34.984 21.35-10.019.012z" fill="#1487C9"/><path d="M14.839 43l5.238-9.314 4.887-2.964 10.02-.012L14.838 43z" fill="#017F36"/><path d="M.007 33.634l14.873-9.073-5-3.055-4.65 2.839-5.223 9.29z" fill="#984995"/></svg>