<svg width="21" height="21" fill="none" xmlns="http://www.w3.org/2000/svg"><path d="M16.166.945H4.896A4.053 4.053 0 00.84 5.001v11.27a4.052 4.052 0 004.055 4.049h2.102c.073-1.827.575-5.033 1.271-7.007-.689.093-1.994.247-2.375-.188-.422-.482.067-1.633-.576-1.907-.495-.208-1.325-.087-1.419-.65-.093-.595.04-1.967-.776-1.92-.489.027-1.48-1.54-.87-1.82.85-.596 5.307 1.653 7.301 2.717.148-.281.255-.582.14-.683-.227-.214-1.11.127-1.257-1.907-.348-2.128 1.037-2.537 1.633-2.617.013 0 .02-.007.033-.007.007 0 .02 0 .027-.006.596-.08 2.041-.054 2.269 2.094.408 2.001-.543 1.908-.703 2.169-.08.127.107.388.314.622 1.647-1.552 5.348-4.912 6.318-4.564.663.114.12 1.88-.355 1.988-.796.174-.3 1.459-.234 2.06.06.57-.776.67-1.198 1.005-.542.428.235 1.412-.04 1.987-.254.522-1.553.723-2.242.817 1.466 2.108 3.159 6.09 3.333 7.395a.644.644 0 010 .16 4.037 4.037 0 002.63-3.787V5A4.053 4.053 0 0016.166.945zm-3.628 4.437a2.503 2.503 0 00-.354-.662c.28-.235.434-.476.408-.69-.074-.522-1.212-.963-2.637-.77-1.426.195-2.41.924-2.336 1.44.027.214.241.414.576.562-.094.22-.14.468-.168.73-.642-.255-1.07-.663-1.144-1.192-.14-1.03 1.165-2.028 2.972-2.269 1.806-.247 3.332.368 3.473 1.399.067.522-.234 1.037-.79 1.452z" fill="#959595"/></svg>