<svg width="22" height="23" fill="none" xmlns="http://www.w3.org/2000/svg"><path d="M21.918 8.874A1.527 1.527 0 0020.7 7.838l-5.743-.86-2.585-5.488A1.511 1.511 0 0011 .608c-.59 0-1.116.338-1.373.882L7.08 6.958l-5.78.88A1.528 1.528 0 00.082 8.874c-.19.568-.05 1.184.365 1.608L4.63 14.76l-.987 6.03a1.559 1.559 0 00.637 1.54 1.484 1.484 0 001.587.09l5.098-2.848 5.171 2.848a1.487 1.487 0 001.587-.09c.492-.347.736-.937.637-1.54l-.989-6.038 4.182-4.271c.415-.424.555-1.04.366-1.608z" fill="#fff"/></svg>