<svg width="20" height="20" fill="none" xmlns="http://www.w3.org/2000/svg"><path d="M15.22.22H4.17A3.974 3.974 0 00.195 4.197V15.25a3.972 3.972 0 003.976 3.97H15.22c.492 0 .965-.092 1.398-.256a3.959 3.959 0 002.578-3.714V4.197A3.974 3.974 0 0015.22.22zm1.043 14.38l-1.41 1.647a.724.724 0 01-.493.217c-.02 0-.118.006-.269.006-1.05 0-4.848-.223-7.886-3.255-3.477-3.485-3.26-7.974-3.254-8.164a.778.778 0 01.223-.493l1.64-1.41a.766.766 0 011.056.065l2.802 3.085a.751.751 0 01-.033 1.05L6.776 9.166c.079.433.354 1.312 1.26 2.218.898.9 1.777 1.175 2.217 1.26l1.81-1.87a.765.765 0 011.057-.033l3.077 2.802a.76.76 0 01.066 1.057z" fill="#44B54F"/></svg>