<svg width="14" height="16" fill="none" xmlns="http://www.w3.org/2000/svg"><path d="M12.758 2.363h-2.433L9.321.687C9.04.26 8.606 0 8.11 0H5.12c-.495 0-.956.26-1.21.687L2.905 2.363H.473A.471.471 0 000 2.835v.473c0 .262.21.472.473.472h.472v9.45a1.89 1.89 0 001.89 1.89h7.56a1.89 1.89 0 001.89-1.89V3.78h.473a.47.47 0 00.473-.472v-.473a.47.47 0 00-.473-.472zm-7.681-.86a.175.175 0 01.15-.085h2.776c.063 0 .122.033.152.084l.516.86H4.56l.517-.86zm5.318 12.2h-7.56a.473.473 0 01-.472-.473V3.78h8.505v9.45c0 .26-.213.473-.473.473zm-3.78-1.418a.472.472 0 00.473-.472V5.67a.472.472 0 10-.945 0v6.143c0 .26.212.472.472.472zm-2.362 0c.26 0 .472-.212.472-.472V5.67a.472.472 0 10-.945 0v6.143c0 .26.213.472.473.472zm4.725 0a.472.472 0 00.472-.472V5.67a.472.472 0 10-.945 0v6.143c0 .26.213.472.473.472z" fill="#696969"/></svg>