<svg width="44" height="44" fill="none" xmlns="http://www.w3.org/2000/svg"><path d="M.754 21.022c0-9.721 0-14.582 3.02-17.602C6.794.4 11.654.4 21.375.4h1.719c9.72 0 14.581 0 17.6 3.02 3.02 3.02 3.02 7.88 3.02 17.602v1.718c0 9.721 0 14.582-3.02 17.601-3.019 3.02-7.88 3.02-17.6 3.02h-1.719c-9.72 0-14.581 0-17.601-3.02-3.02-3.02-3.02-7.88-3.02-17.6v-1.72z" fill="#fff"/><path d="M23.613 31.35c-9.791 0-15.376-6.712-15.61-17.882h4.906c.16 8.198 3.777 11.67 6.64 12.387V13.468h4.619v7.07c2.828-.304 5.8-3.526 6.802-7.07h4.618c-.77 4.367-3.992 7.59-6.283 8.914 2.291 1.074 5.961 3.884 7.358 8.968h-5.084c-1.092-3.4-3.813-6.032-7.411-6.39v6.39h-.555z" fill="#000"/></svg>