<svg width="20" height="20" fill="none" xmlns="http://www.w3.org/2000/svg"><g clip-path="url(#clip0_26_328)" fill="#44B54F"><path d="M14.49 13.303l-.997 1.167a.498.498 0 01-.347.151h-.19c-.742 0-3.439-.157-5.59-2.303-2.467-2.466-2.31-5.648-2.303-5.78a.535.535 0 01.157-.347l1.161-.998a.542.542 0 01.748.046l1.988 2.185a.527.527 0 01-.026.741L7.772 9.451c.06.309.25.932.893 1.568.636.637 1.26.833 1.568.893l1.285-1.326a.548.548 0 01.748-.026l2.179 1.988a.536.536 0 01.046.748v.007z"/><path d="M15.22.22H4.17A3.973 3.973 0 00.195 4.196v11.048a3.972 3.972 0 003.976 3.97H15.22c.492 0 .965-.092 1.398-.256a3.957 3.957 0 002.578-3.714V4.196A3.973 3.973 0 0015.22.22zm.36 14.23a7.532 7.532 0 01-5.885 2.815 7.497 7.497 0 01-4.487-1.483l-2.369.945a.498.498 0 01-.518-.085.506.506 0 01-.157-.505l.767-3.07a7.64 7.64 0 01-.78-3.353A7.5 7.5 0 014.36 4.38a7.5 7.5 0 015.334-2.211h.007c1.719 0 3.398.597 4.73 1.673 3.241 2.604 3.76 7.367 1.148 10.609z"/></g><defs><clipPath id="clip0_26_328"><path fill="#fff" transform="translate(.195 .22)" d="M0 0h19v18.993H0z"/></clipPath></defs></svg>