<svg width="43" height="43" fill="none" xmlns="http://www.w3.org/2000/svg"><path d="M0 20.621C0 10.901 0 6.04 3.02 3.02 6.04 0 10.9 0 20.62 0h1.719C32.06 0 36.92 0 39.94 3.02c3.02 3.02 3.02 7.88 3.02 17.601v1.719c0 9.72 0 14.581-3.02 17.601-3.02 3.02-7.88 3.02-17.601 3.02H20.62c-9.72 0-14.581 0-17.601-3.02C0 36.921 0 32.061 0 22.34v-1.72z" fill="#fff"/><path d="M34.435 14.967a3.39 3.39 0 00-2.387-2.4C29.944 12 21.5 12 21.5 12s-8.444 0-10.548.568a3.39 3.39 0 00-2.387 2.4C8 17.082 8 21.5 8 21.5s0 4.417.565 6.533a3.39 3.39 0 002.387 2.4C13.056 31 21.5 31 21.5 31s8.444 0 10.548-.567a3.39 3.39 0 002.387-2.4C35 25.917 35 21.5 35 21.5s-.002-4.417-.565-6.533z" fill="#000"/><path d="M18.797 25.571l7.015-4.07-7.015-4.071v8.141z" fill="#fff"/></svg>