<svg width="44" height="44" fill="none" xmlns="http://www.w3.org/2000/svg"><path d="M22.108 43.361h.172c8.531 0 13.483-.859 16.99-4.264 3.577-3.612 4.403-8.598 4.403-17.096v-.24c0-8.496-.826-13.448-4.402-17.096C35.766 1.259 30.778.4 22.282.4h-.171C13.58.4 8.625 1.26 5.117 4.665 1.541 8.277.715 13.265.715 21.76V22c0 8.496.826 13.448 4.402 17.096 3.475 3.405 8.463 4.264 16.991 4.264z" fill="#fff"/><path d="M38.56 21.555a.31.31 0 00-.296-.307c-5.872-.222-9.446-.971-11.946-3.471-2.505-2.505-3.251-6.082-3.474-11.966a.307.307 0 00-.306-.297h-.685a.31.31 0 00-.307.297c-.223 5.882-.969 9.46-3.474 11.966-2.503 2.502-6.074 3.249-11.945 3.471a.307.307 0 00-.297.307v.685c0 .164.133.299.297.307 5.871.222 9.445.971 11.945 3.471s3.246 6.066 3.471 11.927c.005.164.14.297.307.297h.688a.31.31 0 00.306-.297c.225-5.86.972-9.427 3.472-11.927 2.503-2.503 6.073-3.249 11.945-3.471a.307.307 0 00.297-.307v-.685h.002z" fill="#000"/></svg>