<svg width="43" height="43" fill="none" xmlns="http://www.w3.org/2000/svg"><path d="M0 20.621C0 10.901 0 6.04 3.02 3.02 6.04 0 10.9 0 20.62 0h1.719C32.06 0 36.92 0 39.94 3.02c3.02 3.02 3.02 7.88 3.02 17.601v1.719c0 9.72 0 14.581-3.02 17.601-3.02 3.02-7.88 3.02-17.601 3.02H20.62c-9.72 0-14.581 0-17.601-3.02C0 36.921 0 32.061 0 22.34v-1.72z" fill="#fff"/><path d="M37.56 21.555a.31.31 0 00-.297-.307c-5.871-.222-9.445-.971-11.945-3.471-2.505-2.505-3.251-6.082-3.474-11.966a.307.307 0 00-.306-.297h-.686a.31.31 0 00-.306.297c-.223 5.882-.97 9.46-3.474 11.966-2.503 2.502-6.074 3.249-11.946 3.471a.307.307 0 00-.296.307v.685c0 .164.133.299.296.307 5.872.222 9.446.971 11.946 3.471s3.246 6.066 3.471 11.927c.005.164.14.297.307.297h.688a.31.31 0 00.306-.297c.225-5.86.972-9.427 3.472-11.927 2.502-2.503 6.073-3.249 11.945-3.471a.307.307 0 00.297-.307v-.685h.002z" fill="#000"/></svg>