<svg width="20" height="20" fill="none" xmlns="http://www.w3.org/2000/svg"><path d="M19.816 4.624v11.269a4.036 4.036 0 01-2.63 3.788 4.023 4.023 0 01-1.426.26H4.49a4.051 4.051 0 01-4.054-4.048V4.623A4.053 4.053 0 014.49.569h11.27a4.053 4.053 0 014.055 4.056z" fill="#959595"/><path d="M15.866 15.98H5.06a.502.502 0 00-.502.502v1.412c0 .277.224.502.502.502h10.807a.502.502 0 00.502-.502v-1.412a.502.502 0 00-.502-.502z" fill="#fff"/><path d="M10.46 7.515a4.53 4.53 0 014.53 4.53v4.344c0 .14-.113.254-.254.254H6.184a.254.254 0 01-.254-.255v-4.343a4.53 4.53 0 014.53-4.53z" fill="#fff"/><path d="M10.459 2.596v6.371M7.896 4.878h5.12" stroke="#fff" stroke-width="2" stroke-miterlimit="10"/></svg>